{"glyphs":{"0":{"ha":814,"x_min":0,"x_max":0,"o":"m 407 -14 b 79 475 189 -14 79 148 b 407 977 79 810 189 977 b 735 475 625 977 735 810 b 407 -14 735 148 625 -14 m 407 111 b 590 475 529 111 590 232 b 407 852 590 727 529 852 b 224 475 285 852 224 727 b 407 111 224 232 285 111 m 407 373 b 305 475 346 373 305 414 b 407 576 305 536 346 576 b 509 475 468 576 509 536 b 407 373 509 414 468 373 "},"1":{"ha":814,"x_min":0,"x_max":0,"o":"m 115 129 l 359 129 l 359 823 l 129 745 l 129 882 l 359 963 l 495 963 l 495 129 l 713 129 l 713 0 l 115 0 "},"2":{"ha":814,"x_min":0,"x_max":0,"o":"m 103 152 b 547 686 401 317 547 496 b 382 852 547 797 492 852 b 165 735 309 852 222 806 l 72 828 b 385 977 134 918 259 977 b 689 686 589 977 689 880 b 315 146 689 491 567 312 l 315 126 l 730 126 l 730 0 l 103 0 "},"3":{"ha":814,"x_min":0,"x_max":0,"o":"m 349 -14 b 102 19 249 -14 165 -1 l 119 149 b 343 111 174 133 237 111 b 566 271 484 111 566 170 b 279 441 566 380 462 441 l 258 441 l 241 529 b 545 727 455 557 545 629 b 397 852 545 806 492 852 b 178 749 328 852 247 817 l 85 842 b 412 977 168 936 277 977 b 688 761 588 977 688 899 b 487 522 688 645 606 554 l 487 508 b 708 258 619 485 708 397 b 349 -14 708 85 577 -14 "},"4":{"ha":814,"x_min":0,"x_max":0,"o":"m 186 909 l 326 909 l 214 342 l 532 342 l 532 963 l 669 963 l 669 342 l 760 342 l 760 216 l 669 216 l 669 0 l 532 0 l 532 216 l 50 216 "},"5":{"ha":814,"x_min":0,"x_max":0,"o":"m 416 -14 b 90 270 208 -14 90 90 l 235 270 b 418 111 235 170 300 111 b 600 311 534 111 600 184 b 401 506 600 435 528 506 b 224 461 338 506 279 491 l 148 461 l 161 963 l 681 963 l 681 837 l 297 837 l 290 602 b 449 628 342 622 395 628 b 742 311 635 628 742 513 b 416 -14 742 104 623 -14 "},"6":{"ha":814,"x_min":0,"x_max":0,"o":"m 412 -14 b 87 330 189 -14 87 94 l 87 389 b 654 967 87 757 271 948 l 667 838 b 237 453 379 826 238 699 l 250 453 b 479 610 277 553 362 610 b 742 312 647 610 742 502 b 412 -14 742 107 619 -14 m 417 111 b 600 312 532 111 600 186 b 428 486 600 423 538 486 b 232 298 302 486 232 418 b 417 111 232 181 300 111 "},"7":{"ha":814,"x_min":0,"x_max":0,"o":"m 590 834 l 216 834 l 216 625 l 76 625 l 76 963 l 783 963 l 452 0 l 303 0 "},"8":{"ha":814,"x_min":0,"x_max":0,"o":"m 407 -14 b 79 264 198 -14 79 88 b 294 507 79 394 156 479 l 294 517 b 106 732 173 545 106 620 b 407 977 106 887 216 977 b 708 732 598 977 708 887 b 521 517 708 621 641 545 l 521 507 b 735 264 659 479 735 394 b 407 -14 735 88 616 -14 m 407 111 b 593 271 526 111 593 170 b 407 444 593 380 526 444 b 221 271 288 444 221 380 b 407 111 221 170 288 111 m 407 574 b 566 705 508 574 566 623 b 407 852 566 799 508 852 b 248 705 306 852 248 799 b 407 574 248 623 306 574 "},"9":{"ha":814,"x_min":0,"x_max":0,"o":"m 342 343 b 79 642 174 343 79 452 b 408 967 79 846 201 967 b 734 624 631 967 734 859 l 734 564 b 167 -14 734 197 549 5 l 153 115 b 583 500 441 127 583 254 l 571 500 b 342 343 544 400 458 343 m 393 468 b 589 655 518 468 589 536 b 404 842 589 772 520 842 b 221 642 289 842 221 768 b 393 468 221 530 282 468 "},"A":{"ha":814,"x_min":0,"x_max":0,"o":"m 309 963 l 505 963 l 783 0 l 641 0 l 578 235 l 236 235 l 173 0 l 31 0 m 543 363 l 413 846 l 401 846 l 271 363 "},"Á":{"ha":814,"x_min":0,"x_max":0,"o":"m 309 963 l 505 963 l 783 0 l 641 0 l 578 235 l 236 235 l 173 0 l 31 0 m 543 363 l 413 846 l 401 846 l 271 363 m 467 1241 l 659 1241 l 475 1072 l 318 1072 "},"Ă":{"ha":814,"x_min":0,"x_max":0,"o":"m 309 963 l 505 963 l 783 0 l 641 0 l 578 235 l 236 235 l 173 0 l 31 0 m 543 363 l 413 846 l 401 846 l 271 363 m 407 1065 b 153 1261 246 1065 153 1137 l 272 1261 b 407 1157 272 1195 321 1157 b 542 1261 492 1157 542 1195 l 661 1261 b 407 1065 661 1137 568 1065 "},"Ắ":{"ha":814,"x_min":0,"x_max":0,"o":"m 309 963 l 505 963 l 783 0 l 641 0 l 578 235 l 236 235 l 173 0 l 31 0 m 543 363 l 413 846 l 401 846 l 271 363 m 407 1065 b 153 1261 246 1065 153 1137 l 272 1261 b 407 1157 272 1195 321 1157 b 542 1261 492 1157 542 1195 l 661 1261 b 407 1065 661 1137 568 1065 m 467 1512 l 659 1512 l 475 1343 l 318 1343 "},"Ặ":{"ha":814,"x_min":0,"x_max":0,"o":"m 309 963 l 505 963 l 783 0 l 641 0 l 578 235 l 236 235 l 173 0 l 31 0 m 543 363 l 413 846 l 401 846 l 271 363 m 407 1065 b 153 1261 246 1065 153 1137 l 272 1261 b 407 1157 272 1195 321 1157 b 542 1261 492 1157 542 1195 l 661 1261 b 407 1065 661 1137 568 1065 m 407 -285 b 316 -194 357 -285 316 -244 b 407 -103 316 -143 357 -103 b 498 -194 457 -103 498 -143 b 407 -285 498 -244 457 -285 "},"Ằ":{"ha":814,"x_min":0,"x_max":0,"o":"m 309 963 l 505 963 l 783 0 l 641 0 l 578 235 l 236 235 l 173 0 l 31 0 m 543 363 l 413 846 l 401 846 l 271 363 m 407 1065 b 153 1261 246 1065 153 1137 l 272 1261 b 407 1157 272 1195 321 1157 b 542 1261 492 1157 542 1195 l 661 1261 b 407 1065 661 1137 568 1065 m 162 1512 l 353 1512 l 503 1343 l 345 1343 "},"Ẳ":{"ha":814,"x_min":0,"x_max":0,"o":"m 309 963 l 505 963 l 783 0 l 641 0 l 578 235 l 236 235 l 173 0 l 31 0 m 543 363 l 413 846 l 401 846 l 271 363 m 407 1065 b 153 1261 246 1065 153 1137 l 272 1261 b 407 1157 272 1195 321 1157 b 542 1261 492 1157 542 1195 l 661 1261 b 407 1065 661 1137 568 1065 m 361 1322 b 406 1375 361 1339 373 1353 b 454 1426 441 1398 454 1411 b 398 1460 454 1447 435 1460 b 287 1431 355 1460 318 1451 l 241 1512 b 412 1563 278 1546 335 1563 b 566 1452 515 1563 566 1526 b 486 1332 566 1398 545 1366 b 466 1308 471 1324 466 1317 l 361 1308 "},"Ẵ":{"ha":814,"x_min":0,"x_max":0,"o":"m 309 963 l 505 963 l 783 0 l 641 0 l 578 235 l 236 235 l 173 0 l 31 0 m 153 1367 b 295 1537 153 1480 200 1537 b 422 1503 332 1537 370 1525 b 522 1469 475 1482 499 1469 b 558 1512 546 1469 558 1483 l 558 1553 l 675 1553 l 675 1519 b 547 1356 675 1411 632 1356 b 416 1394 517 1356 475 1369 b 321 1424 378 1410 344 1424 b 271 1374 288 1424 271 1408 l 271 1333 l 153 1333 m 543 363 l 413 846 l 401 846 l 271 363 m 407 1065 b 153 1261 246 1065 153 1137 l 272 1261 b 407 1157 272 1195 321 1157 b 542 1261 492 1157 542 1195 l 661 1261 b 407 1065 661 1137 568 1065 "},"Ǎ":{"ha":814,"x_min":0,"x_max":0,"o":"m 309 963 l 505 963 l 783 0 l 641 0 l 578 235 l 236 235 l 173 0 l 31 0 m 543 363 l 413 846 l 401 846 l 271 363 m 172 1248 l 323 1248 l 407 1150 l 491 1248 l 642 1248 l 465 1072 l 349 1072 "},"Â":{"ha":814,"x_min":0,"x_max":0,"o":"m 309 963 l 505 963 l 783 0 l 641 0 l 578 235 l 236 235 l 173 0 l 31 0 m 543 363 l 413 846 l 401 846 l 271 363 m 352 1248 l 469 1248 l 645 1072 l 494 1072 l 410 1169 l 326 1072 l 176 1072 "},"Ấ":{"ha":814,"x_min":0,"x_max":0,"o":"m 309 963 l 505 963 l 783 0 l 641 0 l 578 235 l 236 235 l 173 0 l 31 0 m 543 363 l 413 846 l 401 846 l 271 363 m 352 1248 l 469 1248 l 645 1072 l 494 1072 l 410 1169 l 326 1072 l 176 1072 m 705 1409 l 897 1409 l 713 1240 l 556 1240 "},"Ậ":{"ha":814,"x_min":0,"x_max":0,"o":"m 309 963 l 505 963 l 783 0 l 641 0 l 578 235 l 236 235 l 173 0 l 31 0 m 543 363 l 413 846 l 401 846 l 271 363 m 352 1248 l 469 1248 l 645 1072 l 494 1072 l 410 1169 l 326 1072 l 176 1072 m 407 -285 b 316 -194 357 -285 316 -244 b 407 -103 316 -143 357 -103 b 498 -194 457 -103 498 -143 b 407 -285 498 -244 457 -285 "},"Ầ":{"ha":814,"x_min":0,"x_max":0,"o":"m 309 963 l 505 963 l 783 0 l 641 0 l 578 235 l 236 235 l 173 0 l 31 0 m 543 363 l 413 846 l 401 846 l 271 363 m 352 1248 l 469 1248 l 645 1072 l 494 1072 l 410 1169 l 326 1072 l 176 1072 m 400 1409 l 591 1409 l 741 1240 l 583 1240 "},"Ẩ":{"ha":814,"x_min":0,"x_max":0,"o":"m 309 963 l 505 963 l 783 0 l 641 0 l 578 235 l 236 235 l 173 0 l 31 0 m 543 363 l 413 846 l 401 846 l 271 363 m 599 1219 b 644 1272 599 1236 611 1250 b 692 1322 679 1295 692 1308 b 636 1357 692 1343 673 1357 b 525 1328 593 1357 556 1348 l 479 1409 b 650 1459 516 1442 573 1459 b 804 1349 753 1459 804 1423 b 724 1229 804 1295 783 1263 b 704 1205 709 1221 704 1214 l 599 1205 m 352 1248 l 469 1248 l 645 1072 l 494 1072 l 410 1169 l 326 1072 l 176 1072 "},"Ẫ":{"ha":814,"x_min":0,"x_max":0,"o":"m 309 963 l 505 963 l 783 0 l 641 0 l 578 235 l 236 235 l 173 0 l 31 0 m 153 1354 b 295 1523 153 1467 200 1523 b 422 1490 332 1523 370 1512 b 522 1455 475 1468 499 1455 b 558 1499 546 1455 558 1470 l 558 1539 l 675 1539 l 675 1506 b 547 1343 675 1397 632 1343 b 416 1380 517 1343 475 1356 b 321 1411 378 1396 344 1411 b 271 1360 288 1411 271 1394 l 271 1320 l 153 1320 m 543 363 l 413 846 l 401 846 l 271 363 m 352 1248 l 469 1248 l 645 1072 l 494 1072 l 410 1169 l 326 1072 l 176 1072 "},"Ä":{"ha":814,"x_min":0,"x_max":0,"o":"m 309 963 l 505 963 l 783 0 l 641 0 l 578 235 l 236 235 l 173 0 l 31 0 m 543 363 l 413 846 l 401 846 l 271 363 m 266 1072 b 175 1162 216 1072 175 1112 b 266 1253 175 1213 216 1253 b 357 1162 316 1253 357 1213 b 266 1072 357 1112 316 1072 m 548 1072 b 457 1162 498 1072 457 1112 b 548 1253 457 1213 498 1253 b 639 1162 598 1253 639 1213 b 548 1072 639 1112 598 1072 "},"Ạ":{"ha":814,"x_min":0,"x_max":0,"o":"m 309 963 l 505 963 l 783 0 l 641 0 l 578 235 l 236 235 l 173 0 l 31 0 m 543 363 l 413 846 l 401 846 l 271 363 m 407 -285 b 316 -194 357 -285 316 -244 b 407 -103 316 -143 357 -103 b 498 -194 457 -103 498 -143 b 407 -285 498 -244 457 -285 "},"À":{"ha":814,"x_min":0,"x_max":0,"o":"m 309 963 l 505 963 l 783 0 l 641 0 l 578 235 l 236 235 l 173 0 l 31 0 m 543 363 l 413 846 l 401 846 l 271 363 m 162 1241 l 353 1241 l 503 1072 l 345 1072 "},"Ả":{"ha":814,"x_min":0,"x_max":0,"o":"m 309 963 l 505 963 l 783 0 l 641 0 l 578 235 l 236 235 l 173 0 l 31 0 m 543 363 l 413 846 l 401 846 l 271 363 m 361 1051 b 406 1104 361 1067 373 1082 b 454 1154 441 1126 454 1140 b 398 1189 454 1175 435 1189 b 287 1160 355 1189 318 1179 l 241 1240 b 412 1291 278 1274 335 1291 b 566 1181 515 1291 566 1255 b 486 1061 566 1126 545 1095 b 466 1037 471 1053 466 1046 l 361 1037 "},"Ɑ":{"ha":814,"x_min":0,"x_max":0,"o":"m 359 -18 b 46 470 151 -18 46 155 b 359 977 46 792 161 977 b 526 829 479 977 522 923 l 538 829 l 538 963 l 677 963 l 677 132 l 778 115 l 778 0 l 551 -9 l 545 128 l 533 128 b 359 -18 522 43 470 -18 m 538 593 b 381 852 538 766 486 852 b 189 470 257 852 189 713 b 381 106 189 230 254 106 b 538 412 513 106 538 176 "},"Ā":{"ha":814,"x_min":0,"x_max":0,"o":"m 309 963 l 505 963 l 783 0 l 641 0 l 578 235 l 236 235 l 173 0 l 31 0 m 543 363 l 413 846 l 401 846 l 271 363 m 144 1199 l 669 1199 l 669 1072 l 144 1072 "},"Ą":{"ha":814,"x_min":0,"x_max":0,"o":"m 690 -288 b 528 -144 587 -288 528 -235 b 641 0 528 -71 569 -18 l 578 235 l 236 235 l 173 0 l 31 0 l 309 963 l 505 963 l 783 0 l 781 0 b 629 -107 685 0 629 -39 b 708 -174 629 -149 658 -174 b 764 -169 724 -174 743 -172 l 751 -284 b 690 -288 730 -287 708 -288 m 543 363 l 413 846 l 401 846 l 271 363 "},"Å":{"ha":814,"x_min":0,"x_max":0,"o":"m 309 963 l 505 963 l 783 0 l 641 0 l 578 235 l 236 235 l 173 0 l 31 0 m 407 1009 b 245 1149 304 1009 245 1060 b 407 1289 245 1238 304 1289 b 568 1149 509 1289 568 1238 b 407 1009 568 1060 509 1009 m 543 363 l 413 846 l 401 846 l 271 363 m 407 1088 b 472 1149 449 1088 472 1109 b 407 1211 472 1188 449 1211 b 342 1149 365 1211 342 1188 b 407 1088 342 1109 365 1088 "},"Ǻ":{"ha":814,"x_min":0,"x_max":0,"o":"m 309 963 l 505 963 l 783 0 l 641 0 l 578 235 l 236 235 l 173 0 l 31 0 m 420 1404 l 611 1404 l 476 1279 b 568 1149 536 1260 568 1215 b 407 1009 568 1060 509 1009 b 245 1149 304 1009 245 1060 b 271 1234 245 1183 254 1212 l 271 1234 m 543 363 l 413 846 l 401 846 l 271 363 m 407 1088 b 472 1149 449 1088 472 1109 b 407 1211 472 1188 449 1211 b 342 1149 365 1211 342 1188 b 407 1088 342 1109 365 1088 "},"Ⱥ":{"ha":814,"x_min":0,"x_max":0,"o":"m 256 -208 l 334 235 l 236 235 l 173 0 l 31 0 l 309 963 l 462 963 l 497 1164 l 589 1147 l 537 852 l 783 0 l 641 0 l 578 235 l 429 235 l 348 -224 m 430 783 l 413 846 l 401 846 l 271 363 l 357 363 m 452 363 l 543 363 l 488 569 "},"Ã":{"ha":814,"x_min":0,"x_max":0,"o":"m 309 963 l 505 963 l 783 0 l 641 0 l 578 235 l 236 235 l 173 0 l 31 0 m 153 1096 b 295 1265 153 1209 200 1265 b 422 1232 332 1265 370 1254 b 522 1198 475 1211 499 1198 b 558 1241 546 1198 558 1212 l 558 1282 l 675 1282 l 675 1248 b 547 1085 675 1139 632 1085 b 416 1122 517 1085 475 1098 b 321 1153 378 1139 344 1153 b 271 1103 288 1153 271 1137 l 271 1062 l 153 1062 m 543 363 l 413 846 l 401 846 l 271 363 "},"Æ":{"ha":814,"x_min":0,"x_max":0,"o":"m 300 963 l 746 963 l 746 834 l 529 834 l 529 547 l 705 547 l 705 418 l 529 418 l 529 129 l 746 129 l 746 0 l 407 0 l 407 163 l 203 163 l 157 0 l 28 0 m 407 282 l 407 846 l 395 846 l 237 282 "},"Ǽ":{"ha":814,"x_min":0,"x_max":0,"o":"m 300 963 l 746 963 l 746 834 l 529 834 l 529 547 l 705 547 l 705 418 l 529 418 l 529 129 l 746 129 l 746 0 l 407 0 l 407 163 l 203 163 l 157 0 l 28 0 m 407 282 l 407 846 l 395 846 l 237 282 m 494 1241 l 686 1241 l 503 1072 l 345 1072 "},"B":{"ha":814,"x_min":0,"x_max":0,"o":"m 109 963 l 395 963 b 701 719 590 963 701 875 b 471 514 701 602 618 530 l 471 506 b 769 264 661 503 769 416 b 477 0 769 96 663 0 l 109 0 m 438 129 b 627 285 557 129 627 186 b 429 444 627 386 555 444 l 244 444 l 244 129 m 397 573 b 559 705 500 573 559 621 b 388 834 559 788 497 834 l 244 834 l 244 573 "},"C":{"ha":814,"x_min":0,"x_max":0,"o":"m 507 -14 b 58 483 209 -14 58 152 b 491 977 58 796 216 977 b 772 855 624 977 727 932 l 672 755 b 492 852 631 817 566 852 b 203 490 317 852 203 721 b 530 111 203 237 313 111 b 724 152 597 111 661 125 l 755 33 b 507 -14 675 1 593 -14 "},"Ć":{"ha":814,"x_min":0,"x_max":0,"o":"m 507 -14 b 58 483 209 -14 58 152 b 491 977 58 796 216 977 b 772 855 624 977 727 932 l 672 755 b 492 852 631 817 566 852 b 203 490 317 852 203 721 b 530 111 203 237 313 111 b 724 152 597 111 661 125 l 755 33 b 507 -14 675 1 593 -14 m 532 1241 l 723 1241 l 540 1072 l 382 1072 "},"Č":{"ha":814,"x_min":0,"x_max":0,"o":"m 507 -14 b 58 483 209 -14 58 152 b 491 977 58 796 216 977 b 772 855 624 977 727 932 l 672 755 b 492 852 631 817 566 852 b 203 490 317 852 203 721 b 530 111 203 237 313 111 b 724 152 597 111 661 125 l 755 33 b 507 -14 675 1 593 -14 m 237 1248 l 387 1248 l 471 1150 l 555 1248 l 706 1248 l 530 1072 l 413 1072 "},"Ç":{"ha":814,"x_min":0,"x_max":0,"o":"m 507 -14 b 496 -14 503 -14 500 -14 l 481 -68 b 598 -181 559 -84 598 -121 b 342 -326 598 -277 513 -326 l 342 -224 b 469 -175 427 -224 469 -208 b 359 -129 469 -144 433 -129 l 403 -6 b 58 483 174 31 58 193 b 491 977 58 796 216 977 b 772 855 624 977 727 932 l 672 755 b 492 852 631 817 566 852 b 203 490 317 852 203 721 b 530 111 203 237 313 111 b 724 152 597 111 661 125 l 755 33 b 507 -14 675 1 593 -14 "},"Ĉ":{"ha":814,"x_min":0,"x_max":0,"o":"m 507 -14 b 58 483 209 -14 58 152 b 491 977 58 796 216 977 b 772 855 624 977 727 932 l 672 755 b 492 852 631 817 566 852 b 203 490 317 852 203 721 b 530 111 203 237 313 111 b 724 152 597 111 661 125 l 755 33 b 507 -14 675 1 593 -14 m 416 1248 l 533 1248 l 709 1072 l 559 1072 l 475 1169 l 391 1072 l 240 1072 "},"Ċ":{"ha":814,"x_min":0,"x_max":0,"o":"m 507 -14 b 58 483 209 -14 58 152 b 491 977 58 796 216 977 b 772 855 624 977 727 932 l 672 755 b 492 852 631 817 566 852 b 203 490 317 852 203 721 b 530 111 203 237 313 111 b 724 152 597 111 661 125 l 755 33 b 507 -14 675 1 593 -14 m 471 1072 b 380 1162 421 1072 380 1112 b 471 1253 380 1213 421 1253 b 562 1162 522 1253 562 1213 b 471 1072 562 1112 522 1072 "},"Ȼ":{"ha":814,"x_min":0,"x_max":0,"o":"m 296 -208 l 334 9 b 58 483 151 66 58 223 b 491 977 58 796 216 977 b 505 977 496 977 500 977 l 538 1164 l 630 1147 l 598 966 b 772 855 679 948 740 910 l 672 755 b 575 836 648 792 614 820 l 449 118 b 530 111 474 113 501 111 b 724 152 597 111 661 125 l 755 33 b 507 -14 675 1 593 -14 b 427 -9 479 -14 452 -12 l 389 -224 m 483 852 b 203 490 313 847 203 717 b 359 148 203 316 256 202 "},"D":{"ha":814,"x_min":0,"x_max":0,"o":"m 95 963 l 328 963 b 769 468 623 963 769 800 b 328 0 769 155 623 0 l 95 0 m 328 129 b 627 468 526 129 627 242 b 328 834 627 713 526 834 l 231 834 l 231 129 "},"Ð":{"ha":814,"x_min":0,"x_max":0,"o":"m 8 544 l 95 544 l 95 963 l 328 963 b 769 468 623 963 769 800 b 328 0 769 155 623 0 l 95 0 l 95 415 l 8 415 m 328 129 b 627 468 526 129 627 242 b 328 834 627 713 526 834 l 231 834 l 231 544 l 441 544 l 441 415 l 231 415 l 231 129 "},"Ď":{"ha":814,"x_min":0,"x_max":0,"o":"m 95 963 l 328 963 b 769 468 623 963 769 800 b 328 0 769 155 623 0 l 95 0 m 328 129 b 627 468 526 129 627 242 b 328 834 627 713 526 834 l 231 834 l 231 129 m 125 1248 l 275 1248 l 359 1150 l 444 1248 l 594 1248 l 418 1072 l 301 1072 "},"Đ":{"ha":814,"x_min":0,"x_max":0,"o":"m 95 415 l 8 415 l 8 544 l 95 544 l 95 963 l 328 963 b 769 468 623 963 769 800 b 328 0 769 155 623 0 l 95 0 m 328 129 b 627 468 526 129 627 242 b 328 834 627 713 526 834 l 231 834 l 231 544 l 441 544 l 441 415 l 231 415 l 231 129 "},"E":{"ha":814,"x_min":0,"x_max":0,"o":"m 109 963 l 746 963 l 746 834 l 244 834 l 244 547 l 624 547 l 624 418 l 244 418 l 244 129 l 746 129 l 746 0 l 109 0 "},"É":{"ha":814,"x_min":0,"x_max":0,"o":"m 109 963 l 746 963 l 746 834 l 244 834 l 244 547 l 624 547 l 624 418 l 244 418 l 244 129 l 746 129 l 746 0 l 109 0 m 488 1241 l 679 1241 l 496 1072 l 338 1072 "},"Ĕ":{"ha":814,"x_min":0,"x_max":0,"o":"m 109 963 l 746 963 l 746 834 l 244 834 l 244 547 l 624 547 l 624 418 l 244 418 l 244 129 l 746 129 l 746 0 l 109 0 m 427 1065 b 174 1261 267 1065 174 1137 l 292 1261 b 427 1157 292 1195 342 1157 b 562 1261 513 1157 562 1195 l 681 1261 b 427 1065 681 1137 588 1065 "},"Ě":{"ha":814,"x_min":0,"x_max":0,"o":"m 109 963 l 746 963 l 746 834 l 244 834 l 244 547 l 624 547 l 624 418 l 244 418 l 244 129 l 746 129 l 746 0 l 109 0 m 193 1248 l 343 1248 l 427 1150 l 511 1248 l 662 1248 l 486 1072 l 369 1072 "},"Ê":{"ha":814,"x_min":0,"x_max":0,"o":"m 109 963 l 746 963 l 746 834 l 244 834 l 244 547 l 624 547 l 624 418 l 244 418 l 244 129 l 746 129 l 746 0 l 109 0 m 372 1248 l 489 1248 l 665 1072 l 515 1072 l 431 1169 l 347 1072 l 196 1072 "},"Ế":{"ha":814,"x_min":0,"x_max":0,"o":"m 109 963 l 746 963 l 746 834 l 244 834 l 244 547 l 624 547 l 624 418 l 244 418 l 244 129 l 746 129 l 746 0 l 109 0 m 372 1248 l 489 1248 l 665 1072 l 515 1072 l 431 1169 l 347 1072 l 196 1072 m 726 1409 l 917 1409 l 734 1240 l 576 1240 "},"Ệ":{"ha":814,"x_min":0,"x_max":0,"o":"m 109 963 l 746 963 l 746 834 l 244 834 l 244 547 l 624 547 l 624 418 l 244 418 l 244 129 l 746 129 l 746 0 l 109 0 m 372 1248 l 489 1248 l 665 1072 l 515 1072 l 431 1169 l 347 1072 l 196 1072 m 427 -285 b 336 -194 377 -285 336 -244 b 427 -103 336 -143 377 -103 b 518 -194 477 -103 518 -143 b 427 -285 518 -244 477 -285 "},"Ề":{"ha":814,"x_min":0,"x_max":0,"o":"m 109 963 l 746 963 l 746 834 l 244 834 l 244 547 l 624 547 l 624 418 l 244 418 l 244 129 l 746 129 l 746 0 l 109 0 m 372 1248 l 489 1248 l 665 1072 l 515 1072 l 431 1169 l 347 1072 l 196 1072 m 420 1409 l 612 1409 l 761 1240 l 604 1240 "},"Ể":{"ha":814,"x_min":0,"x_max":0,"o":"m 109 963 l 746 963 l 746 834 l 244 834 l 244 547 l 624 547 l 624 418 l 244 418 l 244 129 l 746 129 l 746 0 l 109 0 m 619 1219 b 664 1272 619 1236 631 1250 b 712 1322 699 1295 712 1308 b 656 1357 712 1343 694 1357 b 545 1328 613 1357 576 1348 l 500 1409 b 671 1459 536 1442 593 1459 b 825 1349 774 1459 825 1423 b 744 1229 825 1295 803 1263 b 724 1205 730 1221 724 1214 l 619 1205 m 372 1248 l 489 1248 l 665 1072 l 515 1072 l 431 1169 l 347 1072 l 196 1072 "},"Ễ":{"ha":814,"x_min":0,"x_max":0,"o":"m 109 963 l 746 963 l 746 834 l 244 834 l 244 547 l 624 547 l 624 418 l 244 418 l 244 129 l 746 129 l 746 0 l 109 0 m 173 1354 b 315 1523 173 1467 220 1523 b 443 1490 352 1523 391 1512 b 542 1455 496 1468 519 1455 b 578 1499 566 1455 578 1470 l 578 1539 l 695 1539 l 695 1506 b 568 1343 695 1397 652 1343 b 437 1380 537 1343 495 1356 b 341 1411 398 1396 364 1411 b 291 1360 308 1411 291 1394 l 291 1320 l 173 1320 m 372 1248 l 489 1248 l 665 1072 l 515 1072 l 431 1169 l 347 1072 l 196 1072 "},"Ë":{"ha":814,"x_min":0,"x_max":0,"o":"m 109 963 l 746 963 l 746 834 l 244 834 l 244 547 l 624 547 l 624 418 l 244 418 l 244 129 l 746 129 l 746 0 l 109 0 m 286 1072 b 195 1162 236 1072 195 1112 b 286 1253 195 1213 236 1253 b 377 1162 336 1253 377 1213 b 286 1072 377 1112 336 1072 m 568 1072 b 477 1162 518 1072 477 1112 b 568 1253 477 1213 518 1253 b 659 1162 618 1253 659 1213 b 568 1072 659 1112 618 1072 "},"Ė":{"ha":814,"x_min":0,"x_max":0,"o":"m 109 963 l 746 963 l 746 834 l 244 834 l 244 547 l 624 547 l 624 418 l 244 418 l 244 129 l 746 129 l 746 0 l 109 0 m 427 1072 b 336 1162 377 1072 336 1112 b 427 1253 336 1213 377 1253 b 518 1162 477 1253 518 1213 b 427 1072 518 1112 477 1072 "},"Ẹ":{"ha":814,"x_min":0,"x_max":0,"o":"m 109 963 l 746 963 l 746 834 l 244 834 l 244 547 l 624 547 l 624 418 l 244 418 l 244 129 l 746 129 l 746 0 l 109 0 m 427 -285 b 336 -194 377 -285 336 -244 b 427 -103 336 -143 377 -103 b 518 -194 477 -103 518 -143 b 427 -285 518 -244 477 -285 "},"È":{"ha":814,"x_min":0,"x_max":0,"o":"m 109 963 l 746 963 l 746 834 l 244 834 l 244 547 l 624 547 l 624 418 l 244 418 l 244 129 l 746 129 l 746 0 l 109 0 m 182 1241 l 374 1241 l 523 1072 l 366 1072 "},"Ẻ":{"ha":814,"x_min":0,"x_max":0,"o":"m 109 963 l 746 963 l 746 834 l 244 834 l 244 547 l 624 547 l 624 418 l 244 418 l 244 129 l 746 129 l 746 0 l 109 0 m 381 1051 b 426 1104 381 1067 393 1082 b 474 1154 461 1126 474 1140 b 418 1189 474 1175 456 1189 b 307 1160 375 1189 338 1179 l 262 1240 b 433 1291 298 1274 355 1291 b 587 1181 536 1291 587 1255 b 506 1061 587 1126 565 1095 b 486 1037 492 1053 486 1046 l 381 1037 "},"Ē":{"ha":814,"x_min":0,"x_max":0,"o":"m 109 963 l 746 963 l 746 834 l 244 834 l 244 547 l 624 547 l 624 418 l 244 418 l 244 129 l 746 129 l 746 0 l 109 0 m 165 1199 l 690 1199 l 690 1072 l 165 1072 "},"Ę":{"ha":814,"x_min":0,"x_max":0,"o":"m 655 -288 b 492 -144 551 -288 492 -235 b 570 -14 492 -77 520 -30 l 570 0 l 109 0 l 109 963 l 746 963 l 746 834 l 244 834 l 244 547 l 624 547 l 624 418 l 244 418 l 244 129 l 746 129 l 746 0 b 594 -114 650 0 594 -41 b 673 -174 594 -152 623 -174 b 728 -166 688 -174 708 -171 l 716 -281 b 655 -288 695 -286 673 -288 "},"Ɛ":{"ha":814,"x_min":0,"x_max":0,"o":"m 468 977 b 763 855 615 977 715 932 l 663 755 b 469 852 623 819 553 852 b 263 718 322 852 263 793 b 568 570 263 621 349 576 l 553 442 l 452 442 b 228 281 318 442 228 385 b 454 111 228 175 313 111 b 715 151 564 111 616 119 l 746 33 b 457 -14 659 -3 591 -14 b 87 267 229 -14 87 97 b 359 512 87 422 216 505 l 359 519 b 125 741 192 546 125 629 b 468 977 125 882 226 977 "},"Ǝ":{"ha":814,"x_min":0,"x_max":0,"o":"m 68 0 l 68 129 l 570 129 l 570 418 l 190 418 l 190 547 l 570 547 l 570 834 l 68 834 l 68 963 l 705 963 l 705 0 "},"Ʃ":{"ha":814,"x_min":0,"x_max":0,"o":"m 102 119 l 401 484 l 102 834 l 102 963 l 712 963 l 712 834 l 286 834 l 574 484 l 270 119 l 726 119 l 726 0 l 102 0 "},"Ẽ":{"ha":814,"x_min":0,"x_max":0,"o":"m 109 963 l 746 963 l 746 834 l 244 834 l 244 547 l 624 547 l 624 418 l 244 418 l 244 129 l 746 129 l 746 0 l 109 0 m 173 1096 b 315 1265 173 1209 220 1265 b 443 1232 352 1265 391 1254 b 542 1198 496 1211 519 1198 b 578 1241 566 1198 578 1212 l 578 1282 l 695 1282 l 695 1248 b 568 1085 695 1139 652 1085 b 437 1122 537 1085 495 1098 b 341 1153 398 1139 364 1153 b 291 1103 308 1153 291 1137 l 291 1062 l 173 1062 "},"Ʒ":{"ha":814,"x_min":0,"x_max":0,"o":"m 377 -14 b 50 102 241 -14 134 25 l 148 198 b 380 111 228 136 284 111 b 593 275 513 111 593 172 b 321 456 593 390 494 456 l 230 456 l 216 540 l 527 837 l 111 837 l 111 963 l 689 963 l 689 827 l 406 559 b 734 277 615 547 734 446 b 377 -14 734 101 597 -14 "},"F":{"ha":814,"x_min":0,"x_max":0,"o":"m 122 963 l 760 963 l 760 834 l 258 834 l 258 506 l 637 506 l 637 377 l 258 377 l 258 0 l 122 0 "},"G":{"ha":814,"x_min":0,"x_max":0,"o":"m 476 -14 b 45 483 189 -14 45 152 b 471 977 45 796 201 977 b 760 856 606 977 711 932 l 659 755 b 479 852 616 817 551 852 b 190 490 296 852 190 720 b 492 111 190 237 292 111 b 610 125 537 111 576 117 l 610 353 l 414 353 l 414 481 l 739 481 l 739 27 b 476 -14 701 15 598 -14 "},"Ğ":{"ha":814,"x_min":0,"x_max":0,"o":"m 476 -14 b 45 483 189 -14 45 152 b 471 977 45 796 201 977 b 760 856 606 977 711 932 l 659 755 b 479 852 616 817 551 852 b 190 490 296 852 190 720 b 492 111 190 237 292 111 b 610 125 537 111 576 117 l 610 353 l 414 353 l 414 481 l 739 481 l 739 27 b 476 -14 701 15 598 -14 m 458 1065 b 204 1261 297 1065 204 1137 l 323 1261 b 458 1157 323 1195 372 1157 b 593 1261 543 1157 593 1195 l 711 1261 b 458 1065 711 1137 618 1065 "},"Ǧ":{"ha":814,"x_min":0,"x_max":0,"o":"m 476 -14 b 45 483 189 -14 45 152 b 471 977 45 796 201 977 b 760 856 606 977 711 932 l 659 755 b 479 852 616 817 551 852 b 190 490 296 852 190 720 b 492 111 190 237 292 111 b 610 125 537 111 576 117 l 610 353 l 414 353 l 414 481 l 739 481 l 739 27 b 476 -14 701 15 598 -14 m 223 1248 l 374 1248 l 458 1150 l 542 1248 l 692 1248 l 516 1072 l 399 1072 "},"Ĝ":{"ha":814,"x_min":0,"x_max":0,"o":"m 476 -14 b 45 483 189 -14 45 152 b 471 977 45 796 201 977 b 760 856 606 977 711 932 l 659 755 b 479 852 616 817 551 852 b 190 490 296 852 190 720 b 492 111 190 237 292 111 b 610 125 537 111 576 117 l 610 353 l 414 353 l 414 481 l 739 481 l 739 27 b 476 -14 701 15 598 -14 m 403 1248 l 519 1248 l 696 1072 l 545 1072 l 461 1169 l 377 1072 l 227 1072 "},"Ģ":{"ha":814,"x_min":0,"x_max":0,"o":"m 476 -14 b 45 483 189 -14 45 152 b 471 977 45 796 201 977 b 760 856 606 977 711 932 l 659 755 b 479 852 616 817 551 852 b 190 490 296 852 190 720 b 492 111 190 237 292 111 b 610 125 537 111 576 117 l 610 353 l 414 353 l 414 481 l 739 481 l 739 27 b 476 -14 701 15 598 -14 m 398 -95 l 549 -95 l 469 -326 l 346 -326 "},"Ġ":{"ha":814,"x_min":0,"x_max":0,"o":"m 476 -14 b 45 483 189 -14 45 152 b 471 977 45 796 201 977 b 760 856 606 977 711 932 l 659 755 b 479 852 616 817 551 852 b 190 490 296 852 190 720 b 492 111 190 237 292 111 b 610 125 537 111 576 117 l 610 353 l 414 353 l 414 481 l 739 481 l 739 27 b 476 -14 701 15 598 -14 m 458 1072 b 367 1162 408 1072 367 1112 b 458 1253 367 1213 408 1253 b 549 1162 508 1253 549 1213 b 458 1072 549 1112 508 1072 "},"Ǥ":{"ha":814,"x_min":0,"x_max":0,"o":"m 476 -14 b 45 483 189 -14 45 152 b 471 977 45 796 201 977 b 760 856 606 977 711 932 l 659 755 b 479 852 616 817 551 852 b 190 490 296 852 190 720 b 492 111 190 237 292 111 b 597 123 532 111 567 117 l 597 251 l 434 251 l 434 380 l 597 380 l 597 481 l 726 481 l 726 380 l 814 380 l 814 251 l 726 251 l 726 27 b 476 -14 690 15 592 -14 "},"H":{"ha":814,"x_min":0,"x_max":0,"o":"m 583 415 l 231 415 l 231 0 l 95 0 l 95 963 l 231 963 l 231 544 l 583 544 l 583 963 l 719 963 l 719 0 l 583 0 "},"Ħ":{"ha":814,"x_min":0,"x_max":0,"o":"m 28 808 l 95 808 l 95 963 l 231 963 l 231 808 l 583 808 l 583 963 l 719 963 l 719 808 l 785 808 l 785 680 l 719 680 l 719 0 l 583 0 l 583 415 l 231 415 l 231 0 l 95 0 l 95 680 l 28 680 m 583 544 l 583 680 l 231 680 l 231 544 "},"Ȟ":{"ha":814,"x_min":0,"x_max":0,"o":"m 583 415 l 231 415 l 231 0 l 95 0 l 95 963 l 231 963 l 231 544 l 583 544 l 583 963 l 719 963 l 719 0 l 583 0 m 172 1248 l 323 1248 l 407 1150 l 491 1248 l 642 1248 l 465 1072 l 349 1072 "},"Ĥ":{"ha":814,"x_min":0,"x_max":0,"o":"m 583 415 l 231 415 l 231 0 l 95 0 l 95 963 l 231 963 l 231 544 l 583 544 l 583 963 l 719 963 l 719 0 l 583 0 m 352 1248 l 469 1248 l 645 1072 l 494 1072 l 410 1169 l 326 1072 l 176 1072 "},"Ḥ":{"ha":814,"x_min":0,"x_max":0,"o":"m 583 415 l 231 415 l 231 0 l 95 0 l 95 963 l 231 963 l 231 544 l 583 544 l 583 963 l 719 963 l 719 0 l 583 0 m 407 -285 b 316 -194 357 -285 316 -244 b 407 -103 316 -143 357 -103 b 498 -194 457 -103 498 -143 b 407 -285 498 -244 457 -285 "},"I":{"ha":814,"x_min":0,"x_max":0,"o":"m 114 129 l 338 129 l 338 834 l 114 834 l 114 963 l 700 963 l 700 834 l 474 834 l 474 129 l 700 129 l 700 0 l 114 0 "},"Ĳ":{"ha":814,"x_min":0,"x_max":0,"o":"m 430 -14 b 153 241 245 -14 153 71 l 289 241 b 433 109 289 153 337 109 b 598 296 543 109 598 170 l 598 834 l 468 834 l 468 963 l 734 963 l 734 296 b 430 -14 734 89 633 -14 m 37 466 l 157 466 l 157 834 l 37 834 l 37 963 l 393 963 l 393 834 l 286 834 l 286 466 l 406 466 l 406 337 l 37 337 "},"Í":{"ha":814,"x_min":0,"x_max":0,"o":"m 114 129 l 338 129 l 338 834 l 114 834 l 114 963 l 700 963 l 700 834 l 474 834 l 474 129 l 700 129 l 700 0 l 114 0 m 467 1241 l 659 1241 l 475 1072 l 318 1072 "},"Ĭ":{"ha":814,"x_min":0,"x_max":0,"o":"m 114 129 l 338 129 l 338 834 l 114 834 l 114 963 l 700 963 l 700 834 l 474 834 l 474 129 l 700 129 l 700 0 l 114 0 m 407 1065 b 153 1261 246 1065 153 1137 l 272 1261 b 407 1157 272 1195 321 1157 b 542 1261 492 1157 542 1195 l 661 1261 b 407 1065 661 1137 568 1065 "},"Î":{"ha":814,"x_min":0,"x_max":0,"o":"m 114 129 l 338 129 l 338 834 l 114 834 l 114 963 l 700 963 l 700 834 l 474 834 l 474 129 l 700 129 l 700 0 l 114 0 m 352 1248 l 469 1248 l 645 1072 l 494 1072 l 410 1169 l 326 1072 l 176 1072 "},"Ï":{"ha":814,"x_min":0,"x_max":0,"o":"m 114 129 l 338 129 l 338 834 l 114 834 l 114 963 l 700 963 l 700 834 l 474 834 l 474 129 l 700 129 l 700 0 l 114 0 m 266 1072 b 175 1162 216 1072 175 1112 b 266 1253 175 1213 216 1253 b 357 1162 316 1253 357 1213 b 266 1072 357 1112 316 1072 m 548 1072 b 457 1162 498 1072 457 1112 b 548 1253 457 1213 498 1253 b 639 1162 598 1253 639 1213 b 548 1072 639 1112 598 1072 "},"İ":{"ha":814,"x_min":0,"x_max":0,"o":"m 114 129 l 338 129 l 338 834 l 114 834 l 114 963 l 700 963 l 700 834 l 474 834 l 474 129 l 700 129 l 700 0 l 114 0 m 407 1072 b 316 1162 357 1072 316 1112 b 407 1253 316 1213 357 1253 b 498 1162 457 1253 498 1213 b 407 1072 498 1112 457 1072 "},"Ị":{"ha":814,"x_min":0,"x_max":0,"o":"m 114 129 l 338 129 l 338 834 l 114 834 l 114 963 l 700 963 l 700 834 l 474 834 l 474 129 l 700 129 l 700 0 l 114 0 m 407 -285 b 316 -194 357 -285 316 -244 b 407 -103 316 -143 357 -103 b 498 -194 457 -103 498 -143 b 407 -285 498 -244 457 -285 "},"Ì":{"ha":814,"x_min":0,"x_max":0,"o":"m 114 129 l 338 129 l 338 834 l 114 834 l 114 963 l 700 963 l 700 834 l 474 834 l 474 129 l 700 129 l 700 0 l 114 0 m 162 1241 l 353 1241 l 503 1072 l 345 1072 "},"Ỉ":{"ha":814,"x_min":0,"x_max":0,"o":"m 114 129 l 338 129 l 338 834 l 114 834 l 114 963 l 700 963 l 700 834 l 474 834 l 474 129 l 700 129 l 700 0 l 114 0 m 361 1051 b 406 1104 361 1067 373 1082 b 454 1154 441 1126 454 1140 b 398 1189 454 1175 435 1189 b 287 1160 355 1189 318 1179 l 241 1240 b 412 1291 278 1274 335 1291 b 566 1181 515 1291 566 1255 b 486 1061 566 1126 545 1095 b 466 1037 471 1053 466 1046 l 361 1037 "},"Ī":{"ha":814,"x_min":0,"x_max":0,"o":"m 114 129 l 338 129 l 338 834 l 114 834 l 114 963 l 700 963 l 700 834 l 474 834 l 474 129 l 700 129 l 700 0 l 114 0 m 144 1199 l 669 1199 l 669 1072 l 144 1072 "},"Į":{"ha":814,"x_min":0,"x_max":0,"o":"m 431 -288 b 269 -144 328 -288 269 -235 b 346 -14 269 -77 296 -30 l 346 0 l 114 0 l 114 129 l 338 129 l 338 834 l 114 834 l 114 963 l 700 963 l 700 834 l 474 834 l 474 129 l 700 129 l 700 0 l 522 0 b 370 -114 426 0 370 -41 b 449 -174 370 -152 399 -174 b 505 -166 465 -174 484 -171 l 492 -281 b 431 -288 471 -286 449 -288 "},"Ɩ":{"ha":814,"x_min":0,"x_max":0,"o":"m 514 -14 b 278 271 347 -14 278 72 l 278 899 l 66 899 l 66 1017 l 422 1017 l 422 278 b 568 115 422 164 445 115 b 712 141 609 115 652 123 l 728 15 b 514 -14 655 -5 591 -14 "},"Ĩ":{"ha":814,"x_min":0,"x_max":0,"o":"m 114 129 l 338 129 l 338 834 l 114 834 l 114 963 l 700 963 l 700 834 l 474 834 l 474 129 l 700 129 l 700 0 l 114 0 m 153 1096 b 295 1265 153 1209 200 1265 b 422 1232 332 1265 370 1254 b 522 1198 475 1211 499 1198 b 558 1241 546 1198 558 1212 l 558 1282 l 675 1282 l 675 1248 b 547 1085 675 1139 632 1085 b 416 1122 517 1085 475 1098 b 321 1153 378 1139 344 1153 b 271 1103 288 1153 271 1137 l 271 1062 l 153 1062 "},"J":{"ha":814,"x_min":0,"x_max":0,"o":"m 389 -14 b 58 323 178 -14 58 110 l 194 323 b 393 109 194 187 266 109 b 585 323 515 109 585 186 l 585 834 l 332 834 l 332 963 l 720 963 l 720 323 b 389 -14 720 109 597 -14 "},"Ĵ":{"ha":814,"x_min":0,"x_max":0,"o":"m 389 -14 b 58 323 178 -14 58 110 l 194 323 b 393 109 194 187 266 109 b 585 323 515 109 585 186 l 585 834 l 332 834 l 332 963 l 720 963 l 720 323 b 389 -14 720 109 597 -14 m 481 1248 l 597 1248 l 774 1072 l 623 1072 l 539 1169 l 455 1072 l 304 1072 "},"K":{"ha":814,"x_min":0,"x_max":0,"o":"m 102 963 l 237 963 l 237 442 b 602 963 489 465 602 710 l 742 963 b 548 452 742 764 673 576 l 788 0 l 624 0 l 433 367 b 237 309 375 336 310 315 l 237 0 l 102 0 "},"Ḱ":{"ha":814,"x_min":0,"x_max":0,"o":"m 102 963 l 237 963 l 237 442 b 602 963 489 465 602 710 l 742 963 b 548 452 742 764 673 576 l 788 0 l 624 0 l 433 367 b 237 309 375 336 310 315 l 237 0 l 102 0 m 481 1241 l 672 1241 l 489 1072 l 332 1072 "},"Ķ":{"ha":814,"x_min":0,"x_max":0,"o":"m 102 963 l 237 963 l 237 442 b 602 963 489 465 602 710 l 742 963 b 548 452 742 764 673 576 l 788 0 l 624 0 l 433 367 b 237 309 375 336 310 315 l 237 0 l 102 0 m 347 -95 l 498 -95 l 418 -326 l 295 -326 "},"Ḳ":{"ha":814,"x_min":0,"x_max":0,"o":"m 102 963 l 237 963 l 237 442 b 602 963 489 465 602 710 l 742 963 b 548 452 742 764 673 576 l 788 0 l 624 0 l 433 367 b 237 309 375 336 310 315 l 237 0 l 102 0 m 420 -285 b 330 -194 370 -285 330 -244 b 420 -103 330 -143 370 -103 b 511 -194 471 -103 511 -143 b 420 -285 511 -244 471 -285 "},"Ḵ":{"ha":814,"x_min":0,"x_max":0,"o":"m 102 963 l 237 963 l 237 442 b 602 963 489 465 602 710 l 742 963 b 548 452 742 764 673 576 l 788 0 l 624 0 l 433 367 b 237 309 375 336 310 315 l 237 0 l 102 0 m 129 -141 l 712 -141 l 712 -269 l 129 -269 "},"L":{"ha":814,"x_min":0,"x_max":0,"o":"m 109 963 l 244 963 l 244 129 l 746 129 l 746 0 l 109 0 "},"Ĺ":{"ha":814,"x_min":0,"x_max":0,"o":"m 109 963 l 244 963 l 244 129 l 746 129 l 746 0 l 109 0 m 237 1241 l 428 1241 l 245 1072 l 87 1072 "},"Ƚ":{"ha":814,"x_min":0,"x_max":0,"o":"m -14 568 l 109 568 l 109 963 l 244 963 l 244 568 l 553 568 l 553 439 l 244 439 l 244 129 l 746 129 l 746 0 l 109 0 l 109 439 l -14 439 "},"Ľ":{"ha":814,"x_min":0,"x_max":0,"o":"m 109 963 l 244 963 l 244 129 l 746 129 l 746 0 l 109 0 m 551 1063 l 694 1063 l 633 806 l 517 806 "},"Ļ":{"ha":814,"x_min":0,"x_max":0,"o":"m 109 963 l 244 963 l 244 129 l 746 129 l 746 0 l 109 0 m 347 -95 l 498 -95 l 418 -326 l 295 -326 "},"Ŀ":{"ha":814,"x_min":0,"x_max":0,"o":"m 109 963 l 244 963 l 244 129 l 746 129 l 746 0 l 109 0 m 543 530 b 442 631 487 530 442 575 b 543 731 442 686 487 731 b 643 631 598 731 643 686 b 543 530 643 575 598 530 "},"Ḷ":{"ha":814,"x_min":0,"x_max":0,"o":"m 109 963 l 244 963 l 244 129 l 746 129 l 746 0 l 109 0 m 420 -285 b 330 -194 370 -285 330 -244 b 420 -103 330 -143 370 -103 b 511 -194 471 -103 511 -143 b 420 -285 511 -244 471 -285 "},"Ḻ":{"ha":814,"x_min":0,"x_max":0,"o":"m 109 963 l 244 963 l 244 129 l 746 129 l 746 0 l 109 0 m 129 -141 l 712 -141 l 712 -269 l 129 -269 "},"Ɫ":{"ha":814,"x_min":0,"x_max":0,"o":"m 227 503 b 174 513 210 509 193 513 b 123 462 138 513 123 497 l 123 399 l -1 399 l -1 456 b 153 622 -1 572 45 622 b 227 610 178 622 203 617 l 227 963 l 353 963 l 353 553 b 433 527 381 538 405 527 b 473 578 461 527 473 543 l 473 640 l 596 640 l 596 583 b 459 418 596 467 555 418 b 353 441 421 418 386 427 l 353 129 l 746 129 l 746 0 l 227 0 "},"Ł":{"ha":814,"x_min":0,"x_max":0,"o":"m 39 434 l 176 505 l 176 963 l 312 963 l 312 576 l 586 719 l 586 593 l 312 450 l 312 129 l 746 129 l 746 0 l 176 0 l 176 380 l 39 309 "},"M":{"ha":814,"x_min":0,"x_max":0,"o":"m 87 963 l 292 963 l 401 549 l 412 549 l 522 963 l 727 963 l 727 0 l 597 0 l 597 792 l 579 792 l 469 393 l 345 393 l 235 792 l 217 792 l 217 0 l 87 0 "},"N":{"ha":814,"x_min":0,"x_max":0,"o":"m 244 732 l 231 732 l 231 0 l 100 0 l 100 963 l 271 963 l 570 231 l 583 231 l 583 963 l 713 963 l 713 0 l 543 0 "},"Ń":{"ha":814,"x_min":0,"x_max":0,"o":"m 244 732 l 231 732 l 231 0 l 100 0 l 100 963 l 271 963 l 570 231 l 583 231 l 583 963 l 713 963 l 713 0 l 543 0 m 467 1241 l 659 1241 l 475 1072 l 318 1072 "},"Ň":{"ha":814,"x_min":0,"x_max":0,"o":"m 244 732 l 231 732 l 231 0 l 100 0 l 100 963 l 271 963 l 570 231 l 583 231 l 583 963 l 713 963 l 713 0 l 543 0 m 172 1248 l 323 1248 l 407 1150 l 491 1248 l 642 1248 l 465 1072 l 349 1072 "},"Ņ":{"ha":814,"x_min":0,"x_max":0,"o":"m 244 732 l 231 732 l 231 0 l 100 0 l 100 963 l 271 963 l 570 231 l 583 231 l 583 963 l 713 963 l 713 0 l 543 0 m 334 -95 l 484 -95 l 405 -326 l 281 -326 "},"Ŋ":{"ha":814,"x_min":0,"x_max":0,"o":"m 395 -212 l 477 -199 b 583 -60 547 -189 583 -145 l 583 0 l 543 0 l 244 732 l 231 732 l 231 0 l 100 0 l 100 963 l 271 963 l 570 231 l 583 231 l 583 963 l 713 963 l 713 -65 b 490 -317 713 -212 632 -304 l 402 -326 "},"Ɲ":{"ha":814,"x_min":0,"x_max":0,"o":"m -53 -207 l -5 -199 b 100 -60 64 -189 100 -145 l 100 963 l 271 963 l 570 231 l 583 231 l 583 963 l 713 963 l 713 0 l 543 0 l 244 732 l 231 732 l 231 125 l 231 125 l 231 -65 b 8 -317 231 -214 150 -303 l -46 -323 "},"Ṉ":{"ha":814,"x_min":0,"x_max":0,"o":"m 244 732 l 231 732 l 231 0 l 100 0 l 100 963 l 271 963 l 570 231 l 583 231 l 583 963 l 713 963 l 713 0 l 543 0 m 115 -141 l 699 -141 l 699 -269 l 115 -269 "},"Ñ":{"ha":814,"x_min":0,"x_max":0,"o":"m 244 732 l 231 732 l 231 0 l 100 0 l 100 963 l 271 963 l 570 231 l 583 231 l 583 963 l 713 963 l 713 0 l 543 0 m 153 1096 b 295 1265 153 1209 200 1265 b 422 1232 332 1265 370 1254 b 522 1198 475 1211 499 1198 b 558 1241 546 1198 558 1212 l 558 1282 l 675 1282 l 675 1248 b 547 1085 675 1139 632 1085 b 416 1122 517 1085 475 1098 b 321 1153 378 1139 344 1153 b 271 1103 288 1153 271 1137 l 271 1062 l 153 1062 "},"O":{"ha":814,"x_min":0,"x_max":0,"o":"m 407 -14 b 52 475 171 -14 52 148 b 407 977 52 810 171 977 b 762 475 643 977 762 810 b 407 -14 762 148 643 -14 m 407 111 b 620 475 549 111 620 232 b 407 852 620 727 549 852 b 194 475 265 852 194 727 b 407 111 194 232 265 111 "},"Ó":{"ha":814,"x_min":0,"x_max":0,"o":"m 407 -14 b 52 475 171 -14 52 148 b 407 977 52 810 171 977 b 762 475 643 977 762 810 b 407 -14 762 148 643 -14 m 407 111 b 620 475 549 111 620 232 b 407 852 620 727 549 852 b 194 475 265 852 194 727 b 407 111 194 232 265 111 m 467 1241 l 659 1241 l 475 1072 l 318 1072 "},"Ŏ":{"ha":814,"x_min":0,"x_max":0,"o":"m 407 -14 b 52 475 171 -14 52 148 b 407 977 52 810 171 977 b 762 475 643 977 762 810 b 407 -14 762 148 643 -14 m 407 111 b 620 475 549 111 620 232 b 407 852 620 727 549 852 b 194 475 265 852 194 727 b 407 111 194 232 265 111 m 407 1065 b 153 1261 246 1065 153 1137 l 272 1261 b 407 1157 272 1195 321 1157 b 542 1261 492 1157 542 1195 l 661 1261 b 407 1065 661 1137 568 1065 "},"Ô":{"ha":814,"x_min":0,"x_max":0,"o":"m 407 -14 b 52 475 171 -14 52 148 b 407 977 52 810 171 977 b 762 475 643 977 762 810 b 407 -14 762 148 643 -14 m 407 111 b 620 475 549 111 620 232 b 407 852 620 727 549 852 b 194 475 265 852 194 727 b 407 111 194 232 265 111 m 352 1248 l 469 1248 l 645 1072 l 494 1072 l 410 1169 l 326 1072 l 176 1072 "},"Ố":{"ha":814,"x_min":0,"x_max":0,"o":"m 407 -14 b 52 475 171 -14 52 148 b 407 977 52 810 171 977 b 762 475 643 977 762 810 b 407 -14 762 148 643 -14 m 407 111 b 620 475 549 111 620 232 b 407 852 620 727 549 852 b 194 475 265 852 194 727 b 407 111 194 232 265 111 m 352 1248 l 469 1248 l 645 1072 l 494 1072 l 410 1169 l 326 1072 l 176 1072 m 705 1409 l 897 1409 l 713 1240 l 556 1240 "},"Ộ":{"ha":814,"x_min":0,"x_max":0,"o":"m 407 -14 b 52 475 171 -14 52 148 b 407 977 52 810 171 977 b 762 475 643 977 762 810 b 407 -14 762 148 643 -14 m 407 111 b 620 475 549 111 620 232 b 407 852 620 727 549 852 b 194 475 265 852 194 727 b 407 111 194 232 265 111 m 352 1248 l 469 1248 l 645 1072 l 494 1072 l 410 1169 l 326 1072 l 176 1072 m 407 -285 b 316 -194 357 -285 316 -244 b 407 -103 316 -143 357 -103 b 498 -194 457 -103 498 -143 b 407 -285 498 -244 457 -285 "},"Ồ":{"ha":814,"x_min":0,"x_max":0,"o":"m 407 -14 b 52 475 171 -14 52 148 b 407 977 52 810 171 977 b 762 475 643 977 762 810 b 407 -14 762 148 643 -14 m 407 111 b 620 475 549 111 620 232 b 407 852 620 727 549 852 b 194 475 265 852 194 727 b 407 111 194 232 265 111 m 352 1248 l 469 1248 l 645 1072 l 494 1072 l 410 1169 l 326 1072 l 176 1072 m 400 1409 l 591 1409 l 741 1240 l 583 1240 "},"Ổ":{"ha":814,"x_min":0,"x_max":0,"o":"m 407 -14 b 52 475 171 -14 52 148 b 407 977 52 810 171 977 b 762 475 643 977 762 810 b 407 -14 762 148 643 -14 m 407 111 b 620 475 549 111 620 232 b 407 852 620 727 549 852 b 194 475 265 852 194 727 b 407 111 194 232 265 111 m 599 1219 b 644 1272 599 1236 611 1250 b 692 1322 679 1295 692 1308 b 636 1357 692 1343 673 1357 b 525 1328 593 1357 556 1348 l 479 1409 b 650 1459 516 1442 573 1459 b 804 1349 753 1459 804 1423 b 724 1229 804 1295 783 1263 b 704 1205 709 1221 704 1214 l 599 1205 m 352 1248 l 469 1248 l 645 1072 l 494 1072 l 410 1169 l 326 1072 l 176 1072 "},"Ỗ":{"ha":814,"x_min":0,"x_max":0,"o":"m 407 -14 b 52 475 171 -14 52 148 b 407 977 52 810 171 977 b 762 475 643 977 762 810 b 407 -14 762 148 643 -14 m 407 111 b 620 475 549 111 620 232 b 407 852 620 727 549 852 b 194 475 265 852 194 727 b 407 111 194 232 265 111 m 153 1354 b 295 1523 153 1467 200 1523 b 422 1490 332 1523 370 1512 b 522 1455 475 1468 499 1455 b 558 1499 546 1455 558 1470 l 558 1539 l 675 1539 l 675 1506 b 547 1343 675 1397 632 1343 b 416 1380 517 1343 475 1356 b 321 1411 378 1396 344 1411 b 271 1360 288 1411 271 1394 l 271 1320 l 153 1320 m 352 1248 l 469 1248 l 645 1072 l 494 1072 l 410 1169 l 326 1072 l 176 1072 "},"Ö":{"ha":814,"x_min":0,"x_max":0,"o":"m 407 -14 b 52 475 171 -14 52 148 b 407 977 52 810 171 977 b 762 475 643 977 762 810 b 407 -14 762 148 643 -14 m 407 111 b 620 475 549 111 620 232 b 407 852 620 727 549 852 b 194 475 265 852 194 727 b 407 111 194 232 265 111 m 266 1072 b 175 1162 216 1072 175 1112 b 266 1253 175 1213 216 1253 b 357 1162 316 1253 357 1213 b 266 1072 357 1112 316 1072 m 548 1072 b 457 1162 498 1072 457 1112 b 548 1253 457 1213 498 1253 b 639 1162 598 1253 639 1213 b 548 1072 639 1112 598 1072 "},"Ọ":{"ha":814,"x_min":0,"x_max":0,"o":"m 407 -14 b 52 475 171 -14 52 148 b 407 977 52 810 171 977 b 762 475 643 977 762 810 b 407 -14 762 148 643 -14 m 407 111 b 620 475 549 111 620 232 b 407 852 620 727 549 852 b 194 475 265 852 194 727 b 407 111 194 232 265 111 m 407 -285 b 316 -194 357 -285 316 -244 b 407 -103 316 -143 357 -103 b 498 -194 457 -103 498 -143 b 407 -285 498 -244 457 -285 "},"Ò":{"ha":814,"x_min":0,"x_max":0,"o":"m 407 -14 b 52 475 171 -14 52 148 b 407 977 52 810 171 977 b 762 475 643 977 762 810 b 407 -14 762 148 643 -14 m 407 111 b 620 475 549 111 620 232 b 407 852 620 727 549 852 b 194 475 265 852 194 727 b 407 111 194 232 265 111 m 162 1241 l 353 1241 l 503 1072 l 345 1072 "},"Ỏ":{"ha":814,"x_min":0,"x_max":0,"o":"m 407 -14 b 52 475 171 -14 52 148 b 407 977 52 810 171 977 b 762 475 643 977 762 810 b 407 -14 762 148 643 -14 m 407 111 b 620 475 549 111 620 232 b 407 852 620 727 549 852 b 194 475 265 852 194 727 b 407 111 194 232 265 111 m 361 1051 b 406 1104 361 1067 373 1082 b 454 1154 441 1126 454 1140 b 398 1189 454 1175 435 1189 b 287 1160 355 1189 318 1179 l 241 1240 b 412 1291 278 1274 335 1291 b 566 1181 515 1291 566 1255 b 486 1061 566 1126 545 1095 b 466 1037 471 1053 466 1046 l 361 1037 "},"Ơ":{"ha":814,"x_min":0,"x_max":0,"o":"m 407 -14 b 52 475 171 -14 52 148 b 407 977 52 810 171 977 b 579 937 474 977 532 963 b 716 1121 671 953 716 1014 l 846 1121 b 680 842 846 976 791 883 b 762 475 734 758 762 636 b 407 -14 762 148 643 -14 m 407 111 b 620 475 549 111 620 232 b 407 852 620 727 549 852 b 194 475 265 852 194 727 b 407 111 194 232 265 111 "},"Ớ":{"ha":814,"x_min":0,"x_max":0,"o":"m 407 -14 b 52 475 171 -14 52 148 b 407 977 52 810 171 977 b 579 937 474 977 532 963 b 716 1121 671 953 716 1014 l 846 1121 b 680 842 846 976 791 883 b 762 475 734 758 762 636 b 407 -14 762 148 643 -14 m 407 111 b 620 475 549 111 620 232 b 407 852 620 727 549 852 b 194 475 265 852 194 727 b 407 111 194 232 265 111 m 467 1241 l 659 1241 l 475 1072 l 318 1072 "},"Ợ":{"ha":814,"x_min":0,"x_max":0,"o":"m 407 -14 b 52 475 171 -14 52 148 b 407 977 52 810 171 977 b 579 937 474 977 532 963 b 716 1121 671 953 716 1014 l 846 1121 b 680 842 846 976 791 883 b 762 475 734 758 762 636 b 407 -14 762 148 643 -14 m 407 111 b 620 475 549 111 620 232 b 407 852 620 727 549 852 b 194 475 265 852 194 727 b 407 111 194 232 265 111 m 407 -285 b 316 -194 357 -285 316 -244 b 407 -103 316 -143 357 -103 b 498 -194 457 -103 498 -143 b 407 -285 498 -244 457 -285 "},"Ờ":{"ha":814,"x_min":0,"x_max":0,"o":"m 407 -14 b 52 475 171 -14 52 148 b 407 977 52 810 171 977 b 579 937 474 977 532 963 b 716 1121 671 953 716 1014 l 846 1121 b 680 842 846 976 791 883 b 762 475 734 758 762 636 b 407 -14 762 148 643 -14 m 407 111 b 620 475 549 111 620 232 b 407 852 620 727 549 852 b 194 475 265 852 194 727 b 407 111 194 232 265 111 m 162 1241 l 353 1241 l 503 1072 l 345 1072 "},"Ở":{"ha":814,"x_min":0,"x_max":0,"o":"m 407 -14 b 52 475 171 -14 52 148 b 407 977 52 810 171 977 b 579 937 474 977 532 963 b 716 1121 671 953 716 1014 l 846 1121 b 680 842 846 976 791 883 b 762 475 734 758 762 636 b 407 -14 762 148 643 -14 m 407 111 b 620 475 549 111 620 232 b 407 852 620 727 549 852 b 194 475 265 852 194 727 b 407 111 194 232 265 111 m 361 1051 b 406 1104 361 1067 373 1082 b 454 1154 441 1126 454 1140 b 398 1189 454 1175 435 1189 b 287 1160 355 1189 318 1179 l 241 1240 b 412 1291 278 1274 335 1291 b 566 1181 515 1291 566 1255 b 486 1061 566 1126 545 1095 b 466 1037 471 1053 466 1046 l 361 1037 "},"Ỡ":{"ha":814,"x_min":0,"x_max":0,"o":"m 407 -14 b 52 475 171 -14 52 148 b 407 977 52 810 171 977 b 579 937 474 977 532 963 b 716 1121 671 953 716 1014 l 846 1121 b 680 842 846 976 791 883 b 762 475 734 758 762 636 b 407 -14 762 148 643 -14 m 407 111 b 620 475 549 111 620 232 b 407 852 620 727 549 852 b 194 475 265 852 194 727 b 407 111 194 232 265 111 m 153 1096 b 295 1265 153 1209 200 1265 b 422 1232 332 1265 370 1254 b 522 1198 475 1211 499 1198 b 558 1241 546 1198 558 1212 l 558 1282 l 675 1282 l 675 1248 b 547 1085 675 1139 632 1085 b 416 1122 517 1085 475 1098 b 321 1153 378 1139 344 1153 b 271 1103 288 1153 271 1137 l 271 1062 l 153 1062 "},"Ő":{"ha":814,"x_min":0,"x_max":0,"o":"m 407 -14 b 52 475 171 -14 52 148 b 407 977 52 810 171 977 b 762 475 643 977 762 810 b 407 -14 762 148 643 -14 m 407 111 b 620 475 549 111 620 232 b 407 852 620 727 549 852 b 194 475 265 852 194 727 b 407 111 194 232 265 111 m 277 1241 l 469 1241 l 333 1072 l 169 1072 m 555 1241 l 747 1241 l 611 1072 l 447 1072 "},"Ō":{"ha":814,"x_min":0,"x_max":0,"o":"m 407 -14 b 52 475 171 -14 52 148 b 407 977 52 810 171 977 b 762 475 643 977 762 810 b 407 -14 762 148 643 -14 m 407 111 b 620 475 549 111 620 232 b 407 852 620 727 549 852 b 194 475 265 852 194 727 b 407 111 194 232 265 111 m 144 1199 l 669 1199 l 669 1072 l 144 1072 "},"Ṓ":{"ha":814,"x_min":0,"x_max":0,"o":"m 407 -14 b 52 475 171 -14 52 148 b 407 977 52 810 171 977 b 762 475 643 977 762 810 b 407 -14 762 148 643 -14 m 407 111 b 620 475 549 111 620 232 b 407 852 620 727 549 852 b 194 475 265 852 194 727 b 407 111 194 232 265 111 m 144 1199 l 669 1199 l 669 1072 l 144 1072 m 467 1444 l 659 1444 l 475 1275 l 318 1275 "},"Ṑ":{"ha":814,"x_min":0,"x_max":0,"o":"m 407 -14 b 52 475 171 -14 52 148 b 407 977 52 810 171 977 b 762 475 643 977 762 810 b 407 -14 762 148 643 -14 m 407 111 b 620 475 549 111 620 232 b 407 852 620 727 549 852 b 194 475 265 852 194 727 b 407 111 194 232 265 111 m 144 1199 l 669 1199 l 669 1072 l 144 1072 m 162 1444 l 353 1444 l 503 1275 l 345 1275 "},"Ǫ":{"ha":814,"x_min":0,"x_max":0,"o":"m 446 -288 b 283 -157 342 -288 283 -240 b 361 -27 283 -91 312 -43 l 361 -12 b 52 475 155 9 52 170 b 407 977 52 810 171 977 b 762 475 643 977 762 810 b 530 4 762 210 684 54 b 385 -114 463 -19 385 -39 b 464 -174 385 -138 401 -174 b 519 -166 479 -174 497 -172 l 507 -281 b 446 -288 484 -286 464 -288 m 407 111 b 620 475 549 111 620 232 b 407 852 620 727 549 852 b 194 475 265 852 194 727 b 407 111 194 232 265 111 "},"Ɔ":{"ha":814,"x_min":0,"x_max":0,"o":"m 343 -14 b 32 102 221 -14 113 25 l 130 198 b 351 111 210 132 262 111 b 629 478 526 111 629 249 b 306 852 629 715 519 852 b 110 811 237 852 174 838 l 79 930 b 329 977 159 962 241 977 b 769 484 618 977 769 802 b 343 -14 769 174 627 -14 "},"Ø":{"ha":814,"x_min":0,"x_max":0,"o":"m 45 -40 l 135 117 b 52 475 79 198 52 317 b 407 977 52 810 171 977 b 598 925 483 977 547 960 l 664 1039 l 755 988 l 675 848 b 762 475 733 765 762 640 b 407 -14 762 148 643 -14 b 211 39 329 -14 264 4 l 136 -91 m 407 111 b 620 475 549 111 620 232 b 591 701 620 568 610 643 l 280 159 b 407 111 313 127 355 111 m 530 806 b 407 852 498 836 456 852 b 194 475 265 852 194 727 b 220 265 194 390 203 320 "},"Ǿ":{"ha":814,"x_min":0,"x_max":0,"o":"m 45 -40 l 135 117 b 52 475 79 198 52 317 b 407 977 52 810 171 977 b 598 925 483 977 547 960 l 664 1039 l 755 988 l 675 848 b 762 475 733 765 762 640 b 407 -14 762 148 643 -14 b 211 39 329 -14 264 4 l 136 -91 m 407 111 b 620 475 549 111 620 232 b 591 701 620 568 610 643 l 280 159 b 407 111 313 127 355 111 m 530 806 b 407 852 498 836 456 852 b 194 475 265 852 194 727 b 220 265 194 390 203 320 m 467 1241 l 659 1241 l 475 1072 l 318 1072 "},"Õ":{"ha":814,"x_min":0,"x_max":0,"o":"m 407 -14 b 52 475 171 -14 52 148 b 407 977 52 810 171 977 b 762 475 643 977 762 810 b 407 -14 762 148 643 -14 m 407 111 b 620 475 549 111 620 232 b 407 852 620 727 549 852 b 194 475 265 852 194 727 b 407 111 194 232 265 111 m 153 1096 b 295 1265 153 1209 200 1265 b 422 1232 332 1265 370 1254 b 522 1198 475 1211 499 1198 b 558 1241 546 1198 558 1212 l 558 1282 l 675 1282 l 675 1248 b 547 1085 675 1139 632 1085 b 416 1122 517 1085 475 1098 b 321 1153 378 1139 344 1153 b 271 1103 288 1153 271 1137 l 271 1062 l 153 1062 "},"Œ":{"ha":814,"x_min":0,"x_max":0,"o":"m 353 -14 b 52 475 161 -14 52 164 b 353 977 52 793 161 977 b 475 963 401 977 433 963 l 746 963 l 746 841 l 529 841 l 529 543 l 705 543 l 705 421 l 529 421 l 529 122 l 746 122 l 746 0 l 475 0 b 353 -14 443 0 404 -14 m 359 111 b 407 115 376 111 393 113 l 407 837 b 353 852 392 846 373 852 b 194 475 252 852 194 714 b 359 111 194 243 254 111 "},"P":{"ha":814,"x_min":0,"x_max":0,"o":"m 109 963 l 392 963 b 760 644 633 963 760 854 b 392 298 760 417 633 298 l 244 298 l 244 0 l 109 0 m 392 427 b 617 644 540 427 617 502 b 392 834 617 769 540 834 l 244 834 l 244 427 "},"Þ":{"ha":814,"x_min":0,"x_max":0,"o":"m 109 963 l 244 963 l 244 814 l 392 814 b 760 481 625 814 760 693 b 392 149 760 270 625 149 l 244 149 l 244 0 l 109 0 m 392 278 b 617 481 535 278 617 353 b 392 685 617 612 535 685 l 244 685 l 244 278 "},"Q":{"ha":814,"x_min":0,"x_max":0,"o":"m 631 -312 b 336 -14 435 -312 336 -213 l 336 -8 b 52 475 147 22 52 182 b 407 977 52 810 171 977 b 762 475 643 977 762 810 b 471 -9 762 179 665 18 l 471 -15 b 631 -190 471 -132 524 -190 l 700 -190 l 686 -312 l 631 -312 m 407 111 b 620 475 549 111 620 232 b 407 852 620 727 549 852 b 194 475 265 852 194 727 b 407 111 194 232 265 111 "},"R":{"ha":814,"x_min":0,"x_max":0,"o":"m 95 963 l 426 963 b 739 671 625 963 739 857 b 576 393 739 533 682 437 l 774 0 l 612 0 l 437 366 b 426 366 433 366 430 366 l 231 366 l 231 0 l 95 0 m 426 495 b 597 658 534 495 597 555 b 426 834 597 770 534 834 l 231 834 l 231 495 "},"Ŕ":{"ha":814,"x_min":0,"x_max":0,"o":"m 95 963 l 426 963 b 739 671 625 963 739 857 b 576 393 739 533 682 437 l 774 0 l 612 0 l 437 366 b 426 366 433 366 430 366 l 231 366 l 231 0 l 95 0 m 426 495 b 597 658 534 495 597 555 b 426 834 597 770 534 834 l 231 834 l 231 495 m 440 1241 l 631 1241 l 448 1072 l 291 1072 "},"Ř":{"ha":814,"x_min":0,"x_max":0,"o":"m 95 963 l 426 963 b 739 671 625 963 739 857 b 576 393 739 533 682 437 l 774 0 l 612 0 l 437 366 b 426 366 433 366 430 366 l 231 366 l 231 0 l 95 0 m 426 495 b 597 658 534 495 597 555 b 426 834 597 770 534 834 l 231 834 l 231 495 m 145 1248 l 296 1248 l 380 1150 l 464 1248 l 614 1248 l 438 1072 l 321 1072 "},"Ŗ":{"ha":814,"x_min":0,"x_max":0,"o":"m 95 963 l 426 963 b 739 671 625 963 739 857 b 576 393 739 533 682 437 l 774 0 l 612 0 l 437 366 b 426 366 433 366 430 366 l 231 366 l 231 0 l 95 0 m 426 495 b 597 658 534 495 597 555 b 426 834 597 770 534 834 l 231 834 l 231 495 m 340 -95 l 491 -95 l 412 -326 l 288 -326 "},"Ṛ":{"ha":814,"x_min":0,"x_max":0,"o":"m 95 963 l 426 963 b 739 671 625 963 739 857 b 576 393 739 533 682 437 l 774 0 l 612 0 l 437 366 b 426 366 433 366 430 366 l 231 366 l 231 0 l 95 0 m 426 495 b 597 658 534 495 597 555 b 426 834 597 770 534 834 l 231 834 l 231 495 m 414 -285 b 323 -194 363 -285 323 -244 b 414 -103 323 -143 363 -103 b 505 -194 464 -103 505 -143 b 414 -285 505 -244 464 -285 "},"S":{"ha":814,"x_min":0,"x_max":0,"o":"m 374 -14 b 87 39 264 -14 169 4 l 105 176 b 385 111 204 134 296 111 b 572 245 511 111 572 155 b 484 372 572 305 541 346 l 317 448 b 113 712 185 507 113 587 b 404 977 113 880 219 977 b 720 855 534 977 627 941 l 625 759 b 405 852 545 824 479 852 b 258 719 312 852 258 806 b 357 590 258 656 292 621 l 498 524 b 717 248 641 456 717 380 b 374 -14 717 74 604 -14 "},"Ś":{"ha":814,"x_min":0,"x_max":0,"o":"m 374 -14 b 87 39 264 -14 169 4 l 105 176 b 385 111 204 134 296 111 b 572 245 511 111 572 155 b 484 372 572 305 541 346 l 317 448 b 113 712 185 507 113 587 b 404 977 113 880 219 977 b 720 855 534 977 627 941 l 625 759 b 405 852 545 824 479 852 b 258 719 312 852 258 806 b 357 590 258 656 292 621 l 498 524 b 717 248 641 456 717 380 b 374 -14 717 74 604 -14 m 481 1241 l 672 1241 l 489 1072 l 332 1072 "},"Š":{"ha":814,"x_min":0,"x_max":0,"o":"m 374 -14 b 87 39 264 -14 169 4 l 105 176 b 385 111 204 134 296 111 b 572 245 511 111 572 155 b 484 372 572 305 541 346 l 317 448 b 113 712 185 507 113 587 b 404 977 113 880 219 977 b 720 855 534 977 627 941 l 625 759 b 405 852 545 824 479 852 b 258 719 312 852 258 806 b 357 590 258 656 292 621 l 498 524 b 717 248 641 456 717 380 b 374 -14 717 74 604 -14 m 186 1248 l 336 1248 l 420 1150 l 505 1248 l 655 1248 l 479 1072 l 362 1072 "},"Ş":{"ha":814,"x_min":0,"x_max":0,"o":"m 304 -224 b 432 -175 390 -224 432 -208 b 322 -129 432 -144 396 -129 l 363 -14 b 87 39 258 -12 166 5 l 105 176 b 385 111 204 134 296 111 b 572 245 511 111 572 155 b 484 372 572 305 541 346 l 317 448 b 113 712 185 507 113 587 b 404 977 113 880 219 977 b 720 855 534 977 627 941 l 625 759 b 405 852 545 824 479 852 b 258 719 312 852 258 806 b 357 590 258 656 292 621 l 498 524 b 717 248 641 456 717 380 b 460 -9 717 97 632 12 l 444 -68 b 561 -181 522 -84 561 -121 b 304 -326 561 -277 476 -326 "},"Ŝ":{"ha":814,"x_min":0,"x_max":0,"o":"m 374 -14 b 87 39 264 -14 169 4 l 105 176 b 385 111 204 134 296 111 b 572 245 511 111 572 155 b 484 372 572 305 541 346 l 317 448 b 113 712 185 507 113 587 b 404 977 113 880 219 977 b 720 855 534 977 627 941 l 625 759 b 405 852 545 824 479 852 b 258 719 312 852 258 806 b 357 590 258 656 292 621 l 498 524 b 717 248 641 456 717 380 b 374 -14 717 74 604 -14 m 366 1248 l 482 1248 l 659 1072 l 508 1072 l 424 1169 l 340 1072 l 189 1072 "},"Ș":{"ha":814,"x_min":0,"x_max":0,"o":"m 374 -14 b 87 39 264 -14 169 4 l 105 176 b 385 111 204 134 296 111 b 572 245 511 111 572 155 b 484 372 572 305 541 346 l 317 448 b 113 712 185 507 113 587 b 404 977 113 880 219 977 b 720 855 534 977 627 941 l 625 759 b 405 852 545 824 479 852 b 258 719 312 852 258 806 b 357 590 258 656 292 621 l 498 524 b 717 248 641 456 717 380 b 374 -14 717 74 604 -14 m 340 -95 l 491 -95 l 412 -326 l 288 -326 "},"Ṣ":{"ha":814,"x_min":0,"x_max":0,"o":"m 374 -14 b 87 39 264 -14 169 4 l 105 176 b 385 111 204 134 296 111 b 572 245 511 111 572 155 b 484 372 572 305 541 346 l 317 448 b 113 712 185 507 113 587 b 404 977 113 880 219 977 b 720 855 534 977 627 941 l 625 759 b 405 852 545 824 479 852 b 258 719 312 852 258 806 b 357 590 258 656 292 621 l 498 524 b 717 248 641 456 717 380 b 374 -14 717 74 604 -14 m 414 -285 b 323 -194 363 -285 323 -244 b 414 -103 323 -143 363 -103 b 505 -194 464 -103 505 -143 b 414 -285 505 -244 464 -285 "},"ẞ":{"ha":814,"x_min":0,"x_max":0,"o":"m 95 631 b 445 977 95 873 199 977 b 749 861 560 977 661 939 l 749 861 l 568 586 b 785 302 707 548 785 447 b 448 -14 785 102 662 -14 b 311 2 395 -14 345 -7 l 329 129 b 459 117 370 121 417 117 b 640 293 574 117 640 181 b 489 477 640 380 585 450 l 370 511 l 566 814 b 445 848 526 836 486 848 b 231 631 294 848 231 783 l 231 0 l 95 0 "},"Ə":{"ha":814,"x_min":0,"x_max":0,"o":"m 407 -14 b 52 461 171 -14 52 143 b 54 541 52 489 52 516 l 617 541 b 339 852 602 749 509 852 b 133 825 267 852 197 843 l 114 945 b 339 977 185 966 261 977 b 762 475 620 977 762 810 b 407 -14 762 148 643 -14 m 195 412 b 407 111 205 211 275 111 b 618 412 536 111 606 211 "},"T":{"ha":814,"x_min":0,"x_max":0,"o":"m 339 834 l 54 834 l 54 963 l 760 963 l 760 834 l 475 834 l 475 0 l 339 0 "},"Ŧ":{"ha":814,"x_min":0,"x_max":0,"o":"m 130 527 l 339 527 l 339 834 l 54 834 l 54 963 l 760 963 l 760 834 l 475 834 l 475 527 l 684 527 l 684 398 l 475 398 l 475 0 l 339 0 l 339 398 l 130 398 "},"Ť":{"ha":814,"x_min":0,"x_max":0,"o":"m 339 834 l 54 834 l 54 963 l 760 963 l 760 834 l 475 834 l 475 0 l 339 0 m 172 1248 l 323 1248 l 407 1150 l 491 1248 l 642 1248 l 465 1072 l 349 1072 "},"Ţ":{"ha":814,"x_min":0,"x_max":0,"o":"m 339 834 l 54 834 l 54 963 l 760 963 l 760 834 l 475 834 l 475 0 l 409 0 l 451 -3 l 434 -68 b 551 -181 512 -84 551 -121 b 294 -326 551 -277 466 -326 l 294 -224 b 422 -175 380 -224 422 -208 b 312 -129 422 -144 386 -129 l 357 0 l 339 0 "},"Ț":{"ha":814,"x_min":0,"x_max":0,"o":"m 339 834 l 54 834 l 54 963 l 760 963 l 760 834 l 475 834 l 475 0 l 339 0 m 330 -95 l 481 -95 l 401 -326 l 278 -326 "},"Ⱦ":{"ha":814,"x_min":0,"x_max":0,"o":"m 161 -208 l 339 269 l 339 834 l 54 834 l 54 963 l 598 963 l 673 1164 l 755 1134 l 692 963 l 760 963 l 760 834 l 644 834 l 475 383 l 475 0 l 339 0 l 339 20 l 243 -237 m 550 834 l 475 834 l 475 632 "},"Ṯ":{"ha":814,"x_min":0,"x_max":0,"o":"m 339 834 l 54 834 l 54 963 l 760 963 l 760 834 l 475 834 l 475 0 l 339 0 m 112 -141 l 695 -141 l 695 -269 l 112 -269 "},"U":{"ha":814,"x_min":0,"x_max":0,"o":"m 404 -14 b 95 309 198 -14 95 94 l 95 963 l 231 963 l 231 309 b 407 115 231 180 285 115 b 583 309 524 115 583 180 l 583 963 l 719 963 l 719 309 b 404 -14 719 94 610 -14 "},"Ú":{"ha":814,"x_min":0,"x_max":0,"o":"m 404 -14 b 95 309 198 -14 95 94 l 95 963 l 231 963 l 231 309 b 407 115 231 180 285 115 b 583 309 524 115 583 180 l 583 963 l 719 963 l 719 309 b 404 -14 719 94 610 -14 m 467 1241 l 659 1241 l 475 1072 l 318 1072 "},"Ŭ":{"ha":814,"x_min":0,"x_max":0,"o":"m 404 -14 b 95 309 198 -14 95 94 l 95 963 l 231 963 l 231 309 b 407 115 231 180 285 115 b 583 309 524 115 583 180 l 583 963 l 719 963 l 719 309 b 404 -14 719 94 610 -14 m 407 1065 b 153 1261 246 1065 153 1137 l 272 1261 b 407 1157 272 1195 321 1157 b 542 1261 492 1157 542 1195 l 661 1261 b 407 1065 661 1137 568 1065 "},"Û":{"ha":814,"x_min":0,"x_max":0,"o":"m 404 -14 b 95 309 198 -14 95 94 l 95 963 l 231 963 l 231 309 b 407 115 231 180 285 115 b 583 309 524 115 583 180 l 583 963 l 719 963 l 719 309 b 404 -14 719 94 610 -14 m 352 1248 l 469 1248 l 645 1072 l 494 1072 l 410 1169 l 326 1072 l 176 1072 "},"Ü":{"ha":814,"x_min":0,"x_max":0,"o":"m 404 -14 b 95 309 198 -14 95 94 l 95 963 l 231 963 l 231 309 b 407 115 231 180 285 115 b 583 309 524 115 583 180 l 583 963 l 719 963 l 719 309 b 404 -14 719 94 610 -14 m 266 1072 b 175 1162 216 1072 175 1112 b 266 1253 175 1213 216 1253 b 357 1162 316 1253 357 1213 b 266 1072 357 1112 316 1072 m 548 1072 b 457 1162 498 1072 457 1112 b 548 1253 457 1213 498 1253 b 639 1162 598 1253 639 1213 b 548 1072 639 1112 598 1072 "},"Ụ":{"ha":814,"x_min":0,"x_max":0,"o":"m 404 -14 b 95 309 198 -14 95 94 l 95 963 l 231 963 l 231 309 b 407 115 231 180 285 115 b 583 309 524 115 583 180 l 583 963 l 719 963 l 719 309 b 404 -14 719 94 610 -14 m 407 -285 b 316 -194 357 -285 316 -244 b 407 -103 316 -143 357 -103 b 498 -194 457 -103 498 -143 b 407 -285 498 -244 457 -285 "},"Ù":{"ha":814,"x_min":0,"x_max":0,"o":"m 404 -14 b 95 309 198 -14 95 94 l 95 963 l 231 963 l 231 309 b 407 115 231 180 285 115 b 583 309 524 115 583 180 l 583 963 l 719 963 l 719 309 b 404 -14 719 94 610 -14 m 162 1241 l 353 1241 l 503 1072 l 345 1072 "},"Ủ":{"ha":814,"x_min":0,"x_max":0,"o":"m 404 -14 b 95 309 198 -14 95 94 l 95 963 l 231 963 l 231 309 b 407 115 231 180 285 115 b 583 309 524 115 583 180 l 583 963 l 719 963 l 719 309 b 404 -14 719 94 610 -14 m 361 1051 b 406 1104 361 1067 373 1082 b 454 1154 441 1126 454 1140 b 398 1189 454 1175 435 1189 b 287 1160 355 1189 318 1179 l 241 1240 b 412 1291 278 1274 335 1291 b 566 1181 515 1291 566 1255 b 486 1061 566 1126 545 1095 b 466 1037 471 1053 466 1046 l 361 1037 "},"Ư":{"ha":814,"x_min":0,"x_max":0,"o":"m 404 -14 b 95 309 198 -14 95 94 l 95 963 l 231 963 l 231 309 b 407 115 231 180 285 115 b 583 309 524 115 583 180 l 583 963 l 625 970 b 750 1121 709 983 750 1033 l 880 1121 b 719 873 880 991 827 909 l 719 309 b 404 -14 719 94 610 -14 "},"Ứ":{"ha":814,"x_min":0,"x_max":0,"o":"m 404 -14 b 95 309 198 -14 95 94 l 95 963 l 231 963 l 231 309 b 407 115 231 180 285 115 b 583 309 524 115 583 180 l 583 963 l 625 970 b 750 1121 709 983 750 1033 l 880 1121 b 719 873 880 991 827 909 l 719 309 b 404 -14 719 94 610 -14 m 467 1241 l 659 1241 l 475 1072 l 318 1072 "},"Ự":{"ha":814,"x_min":0,"x_max":0,"o":"m 404 -14 b 95 309 198 -14 95 94 l 95 963 l 231 963 l 231 309 b 407 115 231 180 285 115 b 583 309 524 115 583 180 l 583 963 l 625 970 b 750 1121 709 983 750 1033 l 880 1121 b 719 873 880 991 827 909 l 719 309 b 404 -14 719 94 610 -14 m 407 -285 b 316 -194 357 -285 316 -244 b 407 -103 316 -143 357 -103 b 498 -194 457 -103 498 -143 b 407 -285 498 -244 457 -285 "},"Ừ":{"ha":814,"x_min":0,"x_max":0,"o":"m 404 -14 b 95 309 198 -14 95 94 l 95 963 l 231 963 l 231 309 b 407 115 231 180 285 115 b 583 309 524 115 583 180 l 583 963 l 625 970 b 750 1121 709 983 750 1033 l 880 1121 b 719 873 880 991 827 909 l 719 309 b 404 -14 719 94 610 -14 m 162 1241 l 353 1241 l 503 1072 l 345 1072 "},"Ử":{"ha":814,"x_min":0,"x_max":0,"o":"m 404 -14 b 95 309 198 -14 95 94 l 95 963 l 231 963 l 231 309 b 407 115 231 180 285 115 b 583 309 524 115 583 180 l 583 963 l 625 970 b 750 1121 709 983 750 1033 l 880 1121 b 719 873 880 991 827 909 l 719 309 b 404 -14 719 94 610 -14 m 361 1051 b 406 1104 361 1067 373 1082 b 454 1154 441 1126 454 1140 b 398 1189 454 1175 435 1189 b 287 1160 355 1189 318 1179 l 241 1240 b 412 1291 278 1274 335 1291 b 566 1181 515 1291 566 1255 b 486 1061 566 1126 545 1095 b 466 1037 471 1053 466 1046 l 361 1037 "},"Ữ":{"ha":814,"x_min":0,"x_max":0,"o":"m 404 -14 b 95 309 198 -14 95 94 l 95 963 l 231 963 l 231 309 b 407 115 231 180 285 115 b 583 309 524 115 583 180 l 583 963 l 625 970 b 750 1121 709 983 750 1033 l 880 1121 b 719 873 880 991 827 909 l 719 309 b 404 -14 719 94 610 -14 m 153 1096 b 295 1265 153 1209 200 1265 b 422 1232 332 1265 370 1254 b 522 1198 475 1211 499 1198 b 558 1241 546 1198 558 1212 l 558 1282 l 675 1282 l 675 1248 b 547 1085 675 1139 632 1085 b 416 1122 517 1085 475 1098 b 321 1153 378 1139 344 1153 b 271 1103 288 1153 271 1137 l 271 1062 l 153 1062 "},"Ű":{"ha":814,"x_min":0,"x_max":0,"o":"m 404 -14 b 95 309 198 -14 95 94 l 95 963 l 231 963 l 231 309 b 407 115 231 180 285 115 b 583 309 524 115 583 180 l 583 963 l 719 963 l 719 309 b 404 -14 719 94 610 -14 m 277 1241 l 469 1241 l 333 1072 l 169 1072 m 555 1241 l 747 1241 l 611 1072 l 447 1072 "},"Ū":{"ha":814,"x_min":0,"x_max":0,"o":"m 404 -14 b 95 309 198 -14 95 94 l 95 963 l 231 963 l 231 309 b 407 115 231 180 285 115 b 583 309 524 115 583 180 l 583 963 l 719 963 l 719 309 b 404 -14 719 94 610 -14 m 144 1199 l 669 1199 l 669 1072 l 144 1072 "},"Ų":{"ha":814,"x_min":0,"x_max":0,"o":"m 453 -288 b 290 -157 349 -288 290 -240 b 368 -27 290 -91 319 -43 l 368 -12 b 95 309 186 0 95 106 l 95 963 l 231 963 l 231 309 b 407 115 231 180 285 115 b 583 309 524 115 583 180 l 583 963 l 719 963 l 719 309 b 522 1 719 139 652 37 b 392 -114 458 -20 392 -44 b 471 -174 392 -138 408 -174 b 526 -166 486 -174 504 -172 l 514 -281 b 453 -288 491 -286 471 -288 "},"Ʊ":{"ha":814,"x_min":0,"x_max":0,"o":"m 359 963 l 359 837 b 194 434 249 795 194 661 b 407 111 194 229 271 111 b 620 434 543 111 620 229 b 471 837 620 665 570 800 l 471 963 l 743 963 l 743 837 l 593 837 l 593 823 b 762 434 706 787 762 658 b 407 -14 762 149 633 -14 b 52 434 181 -14 52 149 b 237 825 52 654 113 785 l 237 837 l 71 837 l 71 963 "},"Ů":{"ha":814,"x_min":0,"x_max":0,"o":"m 404 -14 b 95 309 198 -14 95 94 l 95 963 l 231 963 l 231 309 b 407 115 231 180 285 115 b 583 309 524 115 583 180 l 583 963 l 719 963 l 719 309 b 404 -14 719 94 610 -14 m 407 1009 b 245 1149 304 1009 245 1060 b 407 1289 245 1238 304 1289 b 568 1149 509 1289 568 1238 b 407 1009 568 1060 509 1009 m 407 1088 b 472 1149 449 1088 472 1109 b 407 1211 472 1188 449 1211 b 342 1149 365 1211 342 1188 b 407 1088 342 1109 365 1088 "},"Ũ":{"ha":814,"x_min":0,"x_max":0,"o":"m 404 -14 b 95 309 198 -14 95 94 l 95 963 l 231 963 l 231 309 b 407 115 231 180 285 115 b 583 309 524 115 583 180 l 583 963 l 719 963 l 719 309 b 404 -14 719 94 610 -14 m 153 1096 b 295 1265 153 1209 200 1265 b 422 1232 332 1265 370 1254 b 522 1198 475 1211 499 1198 b 558 1241 546 1198 558 1212 l 558 1282 l 675 1282 l 675 1248 b 547 1085 675 1139 632 1085 b 416 1122 517 1085 475 1098 b 321 1153 378 1139 344 1153 b 271 1103 288 1153 271 1137 l 271 1062 l 153 1062 "},"V":{"ha":814,"x_min":0,"x_max":0,"o":"m 31 963 l 176 963 l 401 115 l 413 115 l 638 963 l 783 963 l 512 0 l 302 0 "},"Ɣ":{"ha":814,"x_min":0,"x_max":0,"o":"m 407 -313 b 193 -140 271 -313 193 -251 b 290 41 193 -81 216 -24 l 31 963 l 176 963 l 401 115 l 413 115 l 638 963 l 783 963 l 524 41 b 621 -140 597 -24 621 -81 b 407 -313 621 -251 543 -313 m 328 -110 b 407 -191 328 -161 355 -191 b 486 -110 458 -191 486 -161 b 407 20 486 -78 467 -46 b 328 -110 347 -46 328 -78 "},"Ʋ":{"ha":814,"x_min":0,"x_max":0,"o":"m 513 963 b 719 760 665 963 719 909 l 719 309 b 404 -14 719 94 610 -14 b 95 309 198 -14 95 94 l 95 963 l 231 963 l 231 309 b 407 115 231 180 285 115 b 583 309 524 115 583 180 l 583 726 b 486 834 583 806 557 834 l 426 834 l 426 963 "},"Ʌ":{"ha":814,"x_min":0,"x_max":0,"o":"m 309 963 l 505 963 l 783 0 l 634 0 l 413 846 l 401 846 l 180 0 l 31 0 "},"W":{"ha":814,"x_min":0,"x_max":0,"o":"m 14 963 l 156 963 l 237 109 l 251 109 l 340 719 l 475 719 l 563 109 l 576 109 l 658 963 l 800 963 l 692 0 l 482 0 l 411 585 l 403 585 l 332 0 l 122 0 "},"Ẃ":{"ha":814,"x_min":0,"x_max":0,"o":"m 14 963 l 156 963 l 237 109 l 251 109 l 340 719 l 475 719 l 563 109 l 576 109 l 658 963 l 800 963 l 692 0 l 482 0 l 411 585 l 403 585 l 332 0 l 122 0 m 467 1241 l 659 1241 l 475 1072 l 318 1072 "},"Ŵ":{"ha":814,"x_min":0,"x_max":0,"o":"m 14 963 l 156 963 l 237 109 l 251 109 l 340 719 l 475 719 l 563 109 l 576 109 l 658 963 l 800 963 l 692 0 l 482 0 l 411 585 l 403 585 l 332 0 l 122 0 m 352 1248 l 469 1248 l 645 1072 l 494 1072 l 410 1169 l 326 1072 l 176 1072 "},"Ẅ":{"ha":814,"x_min":0,"x_max":0,"o":"m 14 963 l 156 963 l 237 109 l 251 109 l 340 719 l 475 719 l 563 109 l 576 109 l 658 963 l 800 963 l 692 0 l 482 0 l 411 585 l 403 585 l 332 0 l 122 0 m 266 1072 b 175 1162 216 1072 175 1112 b 266 1253 175 1213 216 1253 b 357 1162 316 1253 357 1213 b 266 1072 357 1112 316 1072 m 548 1072 b 457 1162 498 1072 457 1112 b 548 1253 457 1213 498 1253 b 639 1162 598 1253 639 1213 b 548 1072 639 1112 598 1072 "},"Ẁ":{"ha":814,"x_min":0,"x_max":0,"o":"m 14 963 l 156 963 l 237 109 l 251 109 l 340 719 l 475 719 l 563 109 l 576 109 l 658 963 l 800 963 l 692 0 l 482 0 l 411 585 l 403 585 l 332 0 l 122 0 m 162 1241 l 353 1241 l 503 1072 l 345 1072 "},"X":{"ha":814,"x_min":0,"x_max":0,"o":"m 407 361 l 200 0 l 44 0 l 339 477 l 44 963 l 200 963 l 407 594 l 614 963 l 770 963 l 475 477 l 770 0 l 614 0 "},"Y":{"ha":814,"x_min":0,"x_max":0,"o":"m 339 341 l 17 963 l 166 963 l 401 481 l 413 481 l 648 963 l 797 963 l 475 341 l 475 0 l 339 0 "},"Ý":{"ha":814,"x_min":0,"x_max":0,"o":"m 339 341 l 17 963 l 166 963 l 401 481 l 413 481 l 648 963 l 797 963 l 475 341 l 475 0 l 339 0 m 467 1241 l 659 1241 l 475 1072 l 318 1072 "},"Ŷ":{"ha":814,"x_min":0,"x_max":0,"o":"m 339 341 l 17 963 l 166 963 l 401 481 l 413 481 l 648 963 l 797 963 l 475 341 l 475 0 l 339 0 m 352 1248 l 469 1248 l 645 1072 l 494 1072 l 410 1169 l 326 1072 l 176 1072 "},"Ÿ":{"ha":814,"x_min":0,"x_max":0,"o":"m 339 341 l 17 963 l 166 963 l 401 481 l 413 481 l 648 963 l 797 963 l 475 341 l 475 0 l 339 0 m 266 1072 b 175 1162 216 1072 175 1112 b 266 1253 175 1213 216 1253 b 357 1162 316 1253 357 1213 b 266 1072 357 1112 316 1072 m 548 1072 b 457 1162 498 1072 457 1112 b 548 1253 457 1213 498 1253 b 639 1162 598 1253 639 1213 b 548 1072 639 1112 598 1072 "},"Ỵ":{"ha":814,"x_min":0,"x_max":0,"o":"m 339 341 l 17 963 l 166 963 l 401 481 l 413 481 l 648 963 l 797 963 l 475 341 l 475 0 l 339 0 m 407 -285 b 316 -194 357 -285 316 -244 b 407 -103 316 -143 357 -103 b 498 -194 457 -103 498 -143 b 407 -285 498 -244 457 -285 "},"Ỳ":{"ha":814,"x_min":0,"x_max":0,"o":"m 339 341 l 17 963 l 166 963 l 401 481 l 413 481 l 648 963 l 797 963 l 475 341 l 475 0 l 339 0 m 162 1241 l 353 1241 l 503 1072 l 345 1072 "},"Ỷ":{"ha":814,"x_min":0,"x_max":0,"o":"m 339 341 l 17 963 l 166 963 l 401 481 l 413 481 l 648 963 l 797 963 l 475 341 l 475 0 l 339 0 m 361 1051 b 406 1104 361 1067 373 1082 b 454 1154 441 1126 454 1140 b 398 1189 454 1175 435 1189 b 287 1160 355 1189 318 1179 l 241 1240 b 412 1291 278 1274 335 1291 b 566 1181 515 1291 566 1255 b 486 1061 566 1126 545 1095 b 466 1037 471 1053 466 1046 l 361 1037 "},"Ȳ":{"ha":814,"x_min":0,"x_max":0,"o":"m 339 341 l 17 963 l 166 963 l 401 481 l 413 481 l 648 963 l 797 963 l 475 341 l 475 0 l 339 0 m 144 1199 l 669 1199 l 669 1072 l 144 1072 "},"Ỹ":{"ha":814,"x_min":0,"x_max":0,"o":"m 339 341 l 17 963 l 166 963 l 401 481 l 413 481 l 648 963 l 797 963 l 475 341 l 475 0 l 339 0 m 153 1096 b 295 1265 153 1209 200 1265 b 422 1232 332 1265 370 1254 b 522 1198 475 1211 499 1198 b 558 1241 546 1198 558 1212 l 558 1282 l 675 1282 l 675 1248 b 547 1085 675 1139 632 1085 b 416 1122 517 1085 475 1098 b 321 1153 378 1139 344 1153 b 271 1103 288 1153 271 1137 l 271 1062 l 153 1062 "},"Z":{"ha":814,"x_min":0,"x_max":0,"o":"m 102 129 l 552 834 l 102 834 l 102 963 l 712 963 l 712 834 l 258 129 l 726 129 l 726 0 l 102 0 "},"Ź":{"ha":814,"x_min":0,"x_max":0,"o":"m 102 129 l 552 834 l 102 834 l 102 963 l 712 963 l 712 834 l 258 129 l 726 129 l 726 0 l 102 0 m 467 1241 l 659 1241 l 475 1072 l 318 1072 "},"Ž":{"ha":814,"x_min":0,"x_max":0,"o":"m 102 129 l 552 834 l 102 834 l 102 963 l 712 963 l 712 834 l 258 129 l 726 129 l 726 0 l 102 0 m 172 1248 l 323 1248 l 407 1150 l 491 1248 l 642 1248 l 465 1072 l 349 1072 "},"Ż":{"ha":814,"x_min":0,"x_max":0,"o":"m 102 129 l 552 834 l 102 834 l 102 963 l 712 963 l 712 834 l 258 129 l 726 129 l 726 0 l 102 0 m 407 1072 b 316 1162 357 1072 316 1112 b 407 1253 316 1213 357 1253 b 498 1162 457 1253 498 1213 b 407 1072 498 1112 457 1072 "},"ᴀ":{"ha":814,"x_min":0,"x_max":0,"o":"m 318 732 l 495 732 l 782 0 l 638 0 l 580 155 l 233 155 l 175 0 l 31 0 m 538 267 l 412 600 l 401 600 l 275 267 "},"ɢ":{"ha":814,"x_min":0,"x_max":0,"o":"m 463 -10 b 58 367 193 -10 58 115 b 484 742 58 605 214 742 b 761 675 610 742 713 718 l 692 559 b 492 613 640 593 574 613 b 207 372 312 613 207 526 b 479 119 207 203 299 119 b 610 128 529 119 573 123 l 610 258 l 441 258 l 441 387 l 754 387 l 754 20 b 463 -10 713 12 599 -10 "},"ɪ":{"ha":814,"x_min":0,"x_max":0,"o":"m 114 118 l 335 118 l 335 601 l 114 601 l 114 719 l 700 719 l 700 601 l 479 601 l 479 118 l 700 118 l 700 0 l 114 0 "},"ʟ":{"ha":814,"x_min":0,"x_max":0,"o":"m 108 732 l 252 732 l 252 118 l 747 118 l 747 0 l 108 0 "},"a":{"ha":814,"x_min":0,"x_max":0,"o":"m 548 152 l 534 152 b 301 -14 524 41 435 -14 b 65 194 151 -14 65 62 b 391 430 65 346 183 430 b 526 418 442 430 487 427 l 526 452 b 326 593 526 547 458 590 l 153 598 l 167 726 l 312 724 b 663 430 549 720 663 620 l 663 130 l 785 115 l 785 0 l 555 -7 m 526 308 b 388 315 480 315 435 315 b 201 201 265 315 201 276 b 324 102 201 138 245 102 b 526 258 458 102 526 182 l 526 308 "},"á":{"ha":814,"x_min":0,"x_max":0,"o":"m 548 152 l 534 152 b 301 -14 524 41 435 -14 b 65 194 151 -14 65 62 b 391 430 65 346 183 430 b 526 418 442 430 487 427 l 526 452 b 326 593 526 547 458 590 l 153 598 l 167 726 l 312 724 b 663 430 549 720 663 620 l 663 130 l 785 115 l 785 0 l 555 -7 m 526 308 b 388 315 480 315 435 315 b 201 201 265 315 201 276 b 324 102 201 138 245 102 b 526 258 458 102 526 182 l 526 308 m 440 1104 l 584 1104 l 455 846 l 325 846 "},"ă":{"ha":814,"x_min":0,"x_max":0,"o":"m 548 152 l 534 152 b 301 -14 524 41 435 -14 b 65 194 151 -14 65 62 b 391 430 65 346 183 430 b 526 418 442 430 487 427 l 526 452 b 326 593 526 547 458 590 l 153 598 l 167 726 l 312 724 b 663 430 549 720 663 620 l 663 130 l 785 115 l 785 0 l 555 -7 m 393 840 b 157 1058 243 840 157 919 l 157 1087 l 275 1087 l 275 1058 b 393 932 275 977 317 932 b 511 1058 469 932 511 977 l 511 1087 l 630 1087 l 630 1058 b 393 840 630 919 544 840 m 526 308 b 388 315 480 315 435 315 b 201 201 265 315 201 276 b 324 102 201 138 245 102 b 526 258 458 102 526 182 l 526 308 "},"ắ":{"ha":814,"x_min":0,"x_max":0,"o":"m 548 152 l 534 152 b 301 -14 524 41 435 -14 b 65 194 151 -14 65 62 b 391 430 65 346 183 430 b 526 418 442 430 487 427 l 526 452 b 326 593 526 547 458 590 l 153 598 l 167 726 l 312 724 b 663 430 549 720 663 620 l 663 130 l 785 115 l 785 0 l 555 -7 m 393 840 b 157 1058 243 840 157 919 l 157 1087 l 275 1087 l 275 1058 b 393 932 275 977 317 932 b 511 1058 469 932 511 977 l 511 1087 l 630 1087 l 630 1058 b 393 840 630 919 544 840 m 526 308 b 388 315 480 315 435 315 b 201 201 265 315 201 276 b 324 102 201 138 245 102 b 526 258 458 102 526 182 l 526 308 m 440 1430 l 584 1430 l 455 1172 l 325 1172 "},"ặ":{"ha":814,"x_min":0,"x_max":0,"o":"m 548 152 l 534 152 b 301 -14 524 41 435 -14 b 65 194 151 -14 65 62 b 391 430 65 346 183 430 b 526 418 442 430 487 427 l 526 452 b 326 593 526 547 458 590 l 153 598 l 167 726 l 312 724 b 663 430 549 720 663 620 l 663 130 l 785 115 l 785 0 l 555 -7 m 393 840 b 157 1058 243 840 157 919 l 157 1087 l 275 1087 l 275 1058 b 393 932 275 977 317 932 b 511 1058 469 932 511 977 l 511 1087 l 630 1087 l 630 1058 b 393 840 630 919 544 840 m 526 308 b 388 315 480 315 435 315 b 201 201 265 315 201 276 b 324 102 201 138 245 102 b 526 258 458 102 526 182 l 526 308 m 407 -285 b 316 -194 357 -285 316 -244 b 407 -103 316 -143 357 -103 b 498 -194 457 -103 498 -143 b 407 -285 498 -244 457 -285 "},"ằ":{"ha":814,"x_min":0,"x_max":0,"o":"m 548 152 l 534 152 b 301 -14 524 41 435 -14 b 65 194 151 -14 65 62 b 391 430 65 346 183 430 b 526 418 442 430 487 427 l 526 452 b 326 593 526 547 458 590 l 153 598 l 167 726 l 312 724 b 663 430 549 720 663 620 l 663 130 l 785 115 l 785 0 l 555 -7 m 393 840 b 157 1058 243 840 157 919 l 157 1087 l 275 1087 l 275 1058 b 393 932 275 977 317 932 b 511 1058 469 932 511 977 l 511 1087 l 630 1087 l 630 1058 b 393 840 630 919 544 840 m 526 308 b 388 315 480 315 435 315 b 201 201 265 315 201 276 b 324 102 201 138 245 102 b 526 258 458 102 526 182 l 526 308 m 213 1430 l 357 1430 l 472 1172 l 342 1172 "},"ẳ":{"ha":814,"x_min":0,"x_max":0,"o":"m 548 152 l 534 152 b 301 -14 524 41 435 -14 b 65 194 151 -14 65 62 b 391 430 65 346 183 430 b 526 418 442 430 487 427 l 526 452 b 326 593 526 547 458 590 l 153 598 l 167 726 l 312 724 b 663 430 549 720 663 620 l 663 130 l 785 115 l 785 0 l 555 -7 m 393 840 b 157 1058 243 840 157 919 l 157 1087 l 275 1087 l 275 1058 b 393 932 275 977 317 932 b 511 1058 469 932 511 977 l 511 1087 l 630 1087 l 630 1058 b 393 840 630 919 544 840 m 526 308 b 388 315 480 315 435 315 b 201 201 265 315 201 276 b 324 102 201 138 245 102 b 526 258 458 102 526 182 l 526 308 m 340 1196 b 413 1333 340 1267 413 1287 b 371 1371 413 1356 396 1371 b 287 1341 341 1371 308 1359 l 241 1422 b 385 1473 269 1453 326 1473 b 526 1342 470 1473 526 1421 b 446 1178 526 1256 446 1249 l 446 1172 l 340 1172 "},"ẵ":{"ha":814,"x_min":0,"x_max":0,"o":"m 548 152 l 534 152 b 301 -14 524 41 435 -14 b 65 194 151 -14 65 62 b 391 430 65 346 183 430 b 526 418 442 430 487 427 l 526 452 b 326 593 526 547 458 590 l 153 598 l 167 726 l 312 724 b 663 430 549 720 663 620 l 663 130 l 785 115 l 785 0 l 555 -7 m 156 1204 b 298 1374 156 1318 203 1374 b 399 1344 334 1374 364 1361 b 498 1306 444 1322 475 1306 b 534 1350 522 1306 534 1320 l 534 1411 l 651 1411 l 651 1356 b 524 1194 651 1248 608 1194 b 413 1227 498 1194 460 1204 b 324 1261 383 1242 353 1261 b 274 1211 291 1261 274 1245 l 274 1177 l 156 1177 m 393 840 b 157 1058 243 840 157 919 l 157 1087 l 275 1087 l 275 1058 b 393 932 275 977 317 932 b 511 1058 469 932 511 977 l 511 1087 l 630 1087 l 630 1058 b 393 840 630 919 544 840 m 526 308 b 388 315 480 315 435 315 b 201 201 265 315 201 276 b 324 102 201 138 245 102 b 526 258 458 102 526 182 l 526 308 "},"ǎ":{"ha":814,"x_min":0,"x_max":0,"o":"m 548 152 l 534 152 b 301 -14 524 41 435 -14 b 65 194 151 -14 65 62 b 391 430 65 346 183 430 b 526 418 442 430 487 427 l 526 452 b 326 593 526 547 458 590 l 153 598 l 167 726 l 312 724 b 663 430 549 720 663 620 l 663 130 l 785 115 l 785 0 l 555 -7 m 172 1078 l 316 1078 l 393 925 l 471 1078 l 614 1078 l 452 821 l 335 821 m 526 308 b 388 315 480 315 435 315 b 201 201 265 315 201 276 b 324 102 201 138 245 102 b 526 258 458 102 526 182 l 526 308 "},"â":{"ha":814,"x_min":0,"x_max":0,"o":"m 548 152 l 534 152 b 301 -14 524 41 435 -14 b 65 194 151 -14 65 62 b 391 430 65 346 183 430 b 526 418 442 430 487 427 l 526 452 b 326 593 526 547 458 590 l 153 598 l 167 726 l 312 724 b 663 430 549 720 663 620 l 663 130 l 785 115 l 785 0 l 555 -7 m 335 1104 l 452 1104 l 614 846 l 471 846 l 393 1000 l 316 846 l 172 846 m 526 308 b 388 315 480 315 435 315 b 201 201 265 315 201 276 b 324 102 201 138 245 102 b 526 258 458 102 526 182 l 526 308 "},"ấ":{"ha":814,"x_min":0,"x_max":0,"o":"m 548 152 l 534 152 b 301 -14 524 41 435 -14 b 65 194 151 -14 65 62 b 391 430 65 346 183 430 b 526 418 442 430 487 427 l 526 452 b 326 593 526 547 458 590 l 153 598 l 167 726 l 312 724 b 663 430 549 720 663 620 l 663 130 l 785 115 l 785 0 l 555 -7 m 335 1104 l 452 1104 l 614 846 l 471 846 l 393 1000 l 316 846 l 172 846 m 526 308 b 388 315 480 315 435 315 b 201 201 265 315 201 276 b 324 102 201 138 245 102 b 526 258 458 102 526 182 l 526 308 m 682 1335 l 826 1335 l 697 1077 l 567 1077 "},"ậ":{"ha":814,"x_min":0,"x_max":0,"o":"m 548 152 l 534 152 b 301 -14 524 41 435 -14 b 65 194 151 -14 65 62 b 391 430 65 346 183 430 b 526 418 442 430 487 427 l 526 452 b 326 593 526 547 458 590 l 153 598 l 167 726 l 312 724 b 663 430 549 720 663 620 l 663 130 l 785 115 l 785 0 l 555 -7 m 335 1104 l 452 1104 l 614 846 l 471 846 l 393 1000 l 316 846 l 172 846 m 526 308 b 388 315 480 315 435 315 b 201 201 265 315 201 276 b 324 102 201 138 245 102 b 526 258 458 102 526 182 l 526 308 m 407 -285 b 316 -194 357 -285 316 -244 b 407 -103 316 -143 357 -103 b 498 -194 457 -103 498 -143 b 407 -285 498 -244 457 -285 "},"ầ":{"ha":814,"x_min":0,"x_max":0,"o":"m 548 152 l 534 152 b 301 -14 524 41 435 -14 b 65 194 151 -14 65 62 b 391 430 65 346 183 430 b 526 418 442 430 487 427 l 526 452 b 326 593 526 547 458 590 l 153 598 l 167 726 l 312 724 b 663 430 549 720 663 620 l 663 130 l 785 115 l 785 0 l 555 -7 m 335 1104 l 452 1104 l 614 846 l 471 846 l 393 1000 l 316 846 l 172 846 m 526 308 b 388 315 480 315 435 315 b 201 201 265 315 201 276 b 324 102 201 138 245 102 b 526 258 458 102 526 182 l 526 308 m 455 1335 l 599 1335 l 714 1077 l 584 1077 "},"ẩ":{"ha":814,"x_min":0,"x_max":0,"o":"m 548 152 l 534 152 b 301 -14 524 41 435 -14 b 65 194 151 -14 65 62 b 391 430 65 346 183 430 b 526 418 442 430 487 427 l 526 452 b 326 593 526 547 458 590 l 153 598 l 167 726 l 312 724 b 663 430 549 720 663 620 l 663 130 l 785 115 l 785 0 l 555 -7 m 335 1104 l 452 1104 l 614 846 l 471 846 l 393 1000 l 316 846 l 172 846 m 526 308 b 388 315 480 315 435 315 b 201 201 265 315 201 276 b 324 102 201 138 245 102 b 526 258 458 102 526 182 l 526 308 m 583 1101 b 655 1238 583 1173 655 1192 b 613 1276 655 1261 638 1276 b 529 1246 583 1276 550 1264 l 484 1327 b 627 1378 511 1358 568 1378 b 768 1247 712 1378 768 1326 b 688 1083 768 1161 688 1154 l 688 1077 l 583 1077 "},"ẫ":{"ha":814,"x_min":0,"x_max":0,"o":"m 548 152 l 534 152 b 301 -14 524 41 435 -14 b 65 194 151 -14 65 62 b 391 430 65 346 183 430 b 526 418 442 430 487 427 l 526 452 b 326 593 526 547 458 590 l 153 598 l 167 726 l 312 724 b 663 430 549 720 663 620 l 663 130 l 785 115 l 785 0 l 555 -7 m 156 1232 b 298 1401 156 1345 203 1401 b 399 1371 334 1401 364 1388 b 498 1333 444 1349 475 1333 b 534 1377 522 1333 534 1348 l 534 1438 l 651 1438 l 651 1383 b 524 1221 651 1275 608 1221 b 413 1255 498 1221 460 1231 b 324 1289 383 1270 353 1289 b 274 1238 291 1289 274 1272 l 274 1204 l 156 1204 m 335 1104 l 452 1104 l 614 846 l 471 846 l 393 1000 l 316 846 l 172 846 m 526 308 b 388 315 480 315 435 315 b 201 201 265 315 201 276 b 324 102 201 138 245 102 b 526 258 458 102 526 182 l 526 308 "},"ä":{"ha":814,"x_min":0,"x_max":0,"o":"m 548 152 l 534 152 b 301 -14 524 41 435 -14 b 65 194 151 -14 65 62 b 391 430 65 346 183 430 b 526 418 442 430 487 427 l 526 452 b 326 593 526 547 458 590 l 153 598 l 167 726 l 312 724 b 663 430 549 720 663 620 l 663 130 l 785 115 l 785 0 l 555 -7 m 526 308 b 388 315 480 315 435 315 b 201 201 265 315 201 276 b 324 102 201 138 245 102 b 526 258 458 102 526 182 l 526 308 m 252 840 b 161 930 202 840 161 880 b 252 1021 161 981 202 1021 b 343 930 302 1021 343 981 b 252 840 343 880 302 840 m 537 840 b 446 930 487 840 446 880 b 537 1021 446 981 487 1021 b 628 930 587 1021 628 981 b 537 840 628 880 587 840 "},"ạ":{"ha":814,"x_min":0,"x_max":0,"o":"m 548 152 l 534 152 b 301 -14 524 41 435 -14 b 65 194 151 -14 65 62 b 391 430 65 346 183 430 b 526 418 442 430 487 427 l 526 452 b 326 593 526 547 458 590 l 153 598 l 167 726 l 312 724 b 663 430 549 720 663 620 l 663 130 l 785 115 l 785 0 l 555 -7 m 526 308 b 388 315 480 315 435 315 b 201 201 265 315 201 276 b 324 102 201 138 245 102 b 526 258 458 102 526 182 l 526 308 m 407 -285 b 316 -194 357 -285 316 -244 b 407 -103 316 -143 357 -103 b 498 -194 457 -103 498 -143 b 407 -285 498 -244 457 -285 "},"à":{"ha":814,"x_min":0,"x_max":0,"o":"m 548 152 l 534 152 b 301 -14 524 41 435 -14 b 65 194 151 -14 65 62 b 391 430 65 346 183 430 b 526 418 442 430 487 427 l 526 452 b 326 593 526 547 458 590 l 153 598 l 167 726 l 312 724 b 663 430 549 720 663 620 l 663 130 l 785 115 l 785 0 l 555 -7 m 526 308 b 388 315 480 315 435 315 b 201 201 265 315 201 276 b 324 102 201 138 245 102 b 526 258 458 102 526 182 l 526 308 m 213 1104 l 357 1104 l 472 846 l 342 846 "},"ả":{"ha":814,"x_min":0,"x_max":0,"o":"m 548 152 l 534 152 b 301 -14 524 41 435 -14 b 65 194 151 -14 65 62 b 391 430 65 346 183 430 b 526 418 442 430 487 427 l 526 452 b 326 593 526 547 458 590 l 153 598 l 167 726 l 312 724 b 663 430 549 720 663 620 l 663 130 l 785 115 l 785 0 l 555 -7 m 526 308 b 388 315 480 315 435 315 b 201 201 265 315 201 276 b 324 102 201 138 245 102 b 526 258 458 102 526 182 l 526 308 m 340 871 b 413 1007 340 942 413 962 b 371 1045 413 1030 396 1045 b 287 1016 341 1045 308 1034 l 241 1097 b 385 1147 269 1127 326 1147 b 526 1017 470 1147 526 1095 b 446 852 526 930 446 923 l 446 846 l 340 846 "},"ɑ":{"ha":814,"x_min":0,"x_max":0,"o":"m 338 -14 b 52 353 156 -14 52 117 b 346 732 52 594 159 732 b 529 589 457 732 517 685 l 543 589 l 543 719 l 686 719 l 686 130 l 785 115 l 785 0 l 555 -7 l 545 130 l 529 130 b 338 -14 519 35 446 -14 m 543 407 b 380 610 543 535 482 610 b 194 353 261 610 194 517 b 373 109 194 191 255 109 b 543 312 479 109 543 184 "},"ā":{"ha":814,"x_min":0,"x_max":0,"o":"m 548 152 l 534 152 b 301 -14 524 41 435 -14 b 65 194 151 -14 65 62 b 391 430 65 346 183 430 b 526 418 442 430 487 427 l 526 452 b 326 593 526 547 458 590 l 153 598 l 167 726 l 312 724 b 663 430 549 720 663 620 l 663 130 l 785 115 l 785 0 l 555 -7 m 102 974 l 685 974 l 685 846 l 102 846 m 526 308 b 388 315 480 315 435 315 b 201 201 265 315 201 276 b 324 102 201 138 245 102 b 526 258 458 102 526 182 l 526 308 "},"ą":{"ha":814,"x_min":0,"x_max":0,"o":"m 692 -288 b 529 -144 588 -288 529 -235 b 606 -24 529 -83 557 -39 l 606 -5 l 555 -7 l 548 152 l 534 152 b 301 -14 524 41 435 -14 b 65 194 151 -14 65 62 b 391 430 65 346 183 430 b 526 418 442 430 487 427 l 526 452 b 326 593 526 547 458 590 l 153 598 l 167 726 l 312 724 b 663 430 549 720 663 620 l 663 130 l 785 115 l 785 0 l 762 -1 b 631 -114 678 -6 631 -47 b 709 -174 631 -152 659 -174 b 765 -166 725 -174 745 -171 l 753 -281 b 692 -288 732 -286 709 -288 m 526 308 b 388 315 480 315 435 315 b 201 201 265 315 201 276 b 324 102 201 138 245 102 b 526 258 458 102 526 182 l 526 308 "},"å":{"ha":814,"x_min":0,"x_max":0,"o":"m 548 152 l 534 152 b 301 -14 524 41 435 -14 b 65 194 151 -14 65 62 b 391 430 65 346 183 430 b 526 418 442 430 487 427 l 526 452 b 326 593 526 547 458 590 l 153 598 l 167 726 l 312 724 b 663 430 549 720 663 620 l 663 130 l 785 115 l 785 0 l 555 -7 m 393 812 b 232 959 291 812 232 866 b 393 1105 232 1052 291 1105 b 555 959 496 1105 555 1052 b 393 812 555 866 496 812 m 526 308 b 388 315 480 315 435 315 b 201 201 265 315 201 276 b 324 102 201 138 245 102 b 526 258 458 102 526 182 l 526 308 m 393 891 b 458 959 435 891 458 916 b 393 1027 458 1002 435 1027 b 328 959 351 1027 328 1002 b 393 891 328 916 351 891 "},"ǻ":{"ha":814,"x_min":0,"x_max":0,"o":"m 548 152 l 534 152 b 301 -14 524 41 435 -14 b 65 194 151 -14 65 62 b 391 430 65 346 183 430 b 526 418 442 430 487 427 l 526 452 b 326 593 526 547 458 590 l 153 598 l 167 726 l 312 724 b 663 430 549 720 663 620 l 663 130 l 785 115 l 785 0 l 555 -7 m 393 812 b 232 959 291 812 232 866 b 332 1098 232 1031 268 1080 l 420 1294 l 564 1294 l 464 1095 b 555 959 522 1075 555 1027 b 393 812 555 866 496 812 m 526 308 b 388 315 480 315 435 315 b 201 201 265 315 201 276 b 324 102 201 138 245 102 b 526 258 458 102 526 182 l 526 308 m 393 891 b 458 959 435 891 458 916 b 393 1027 458 1002 435 1027 b 328 959 351 1027 328 1002 b 393 891 328 916 351 891 "},"ã":{"ha":814,"x_min":0,"x_max":0,"o":"m 548 152 l 534 152 b 301 -14 524 41 435 -14 b 65 194 151 -14 65 62 b 391 430 65 346 183 430 b 526 418 442 430 487 427 l 526 452 b 326 593 526 547 458 590 l 153 598 l 167 726 l 312 724 b 663 430 549 720 663 620 l 663 130 l 785 115 l 785 0 l 555 -7 m 156 879 b 298 1048 156 992 203 1048 b 399 1019 334 1048 364 1036 b 498 981 444 996 475 981 b 534 1024 522 981 534 995 l 534 1085 l 651 1085 l 651 1031 b 524 868 651 922 608 868 b 413 902 498 868 460 878 b 324 936 383 917 353 936 b 274 886 291 936 274 920 l 274 852 l 156 852 m 526 308 b 388 315 480 315 435 315 b 201 201 265 315 201 276 b 324 102 201 138 245 102 b 526 258 458 102 526 182 l 526 308 "},"æ":{"ha":814,"x_min":0,"x_max":0,"o":"m 203 -14 b 14 194 90 -14 14 69 b 265 430 14 336 115 430 b 353 422 297 430 327 427 l 353 452 b 153 600 353 541 279 596 l 89 602 l 102 726 l 166 724 b 416 597 283 720 369 675 b 590 732 451 685 511 732 b 797 388 722 732 797 607 b 793 296 797 357 795 323 l 482 296 b 669 115 500 180 567 115 b 751 124 694 115 724 119 l 768 -1 b 653 -14 732 -9 690 -14 b 412 152 538 -14 454 43 l 400 152 b 203 -14 382 47 324 -14 m 353 315 b 262 321 330 321 298 321 b 143 201 191 321 143 273 b 239 102 143 141 182 102 b 353 258 311 102 353 159 m 667 399 b 578 606 667 545 640 606 b 477 399 513 606 481 544 "},"ǽ":{"ha":814,"x_min":0,"x_max":0,"o":"m 203 -14 b 14 194 90 -14 14 69 b 265 430 14 336 115 430 b 353 422 297 430 327 427 l 353 452 b 153 600 353 541 279 596 l 89 602 l 102 726 l 166 724 b 416 597 283 720 369 675 b 590 732 451 685 511 732 b 797 388 722 732 797 607 b 793 296 797 357 795 323 l 482 296 b 669 115 500 180 567 115 b 751 124 694 115 724 119 l 768 -1 b 653 -14 732 -9 690 -14 b 412 152 538 -14 454 43 l 400 152 b 203 -14 382 47 324 -14 m 353 315 b 262 321 330 321 298 321 b 143 201 191 321 143 273 b 239 102 143 141 182 102 b 353 258 311 102 353 159 m 454 1104 l 597 1104 l 469 846 l 338 846 m 667 399 b 578 606 667 545 640 606 b 477 399 513 606 481 544 "},"b":{"ha":814,"x_min":0,"x_max":0,"o":"m 303 -14 b 111 0 238 -14 176 -8 l 111 1017 l 254 1017 l 254 589 l 268 589 b 444 732 275 685 333 732 b 745 407 635 732 745 614 b 303 -14 745 140 585 -14 m 254 111 b 332 109 280 109 306 109 b 603 407 505 109 603 217 b 437 610 603 537 543 610 b 254 404 315 610 254 543 "},"c":{"ha":814,"x_min":0,"x_max":0,"o":"m 476 -14 b 92 361 231 -14 92 119 b 457 732 92 595 223 732 b 744 583 597 732 701 678 l 633 500 b 452 604 593 566 527 604 b 237 368 316 604 237 518 b 492 115 237 203 329 115 b 690 133 559 115 627 122 l 707 7 b 476 -14 632 -9 551 -14 "},"ć":{"ha":814,"x_min":0,"x_max":0,"o":"m 476 -14 b 92 361 231 -14 92 119 b 457 732 92 595 223 732 b 744 583 597 732 701 678 l 633 500 b 452 604 593 566 527 604 b 237 368 316 604 237 518 b 492 115 237 203 329 115 b 690 133 559 115 627 122 l 707 7 b 476 -14 632 -9 551 -14 m 488 1104 l 631 1104 l 503 846 l 372 846 "},"č":{"ha":814,"x_min":0,"x_max":0,"o":"m 476 -14 b 92 361 231 -14 92 119 b 457 732 92 595 223 732 b 744 583 597 732 701 678 l 633 500 b 452 604 593 566 527 604 b 237 368 316 604 237 518 b 492 115 237 203 329 115 b 690 133 559 115 627 122 l 707 7 b 476 -14 632 -9 551 -14 m 220 1078 l 363 1078 l 441 925 l 518 1078 l 662 1078 l 499 821 l 382 821 "},"ç":{"ha":814,"x_min":0,"x_max":0,"o":"m 332 -224 b 459 -175 417 -224 459 -208 b 349 -129 459 -144 423 -129 l 392 -7 b 92 361 199 20 92 149 b 457 732 92 595 223 732 b 744 583 597 732 701 678 l 633 500 b 452 604 593 566 527 604 b 237 368 316 604 237 518 b 492 115 237 203 329 115 b 690 133 559 115 627 122 l 707 7 b 486 -14 635 -9 558 -13 l 471 -68 b 588 -181 549 -84 588 -121 b 332 -326 588 -277 503 -326 "},"ĉ":{"ha":814,"x_min":0,"x_max":0,"o":"m 476 -14 b 92 361 231 -14 92 119 b 457 732 92 595 223 732 b 744 583 597 732 701 678 l 633 500 b 452 604 593 566 527 604 b 237 368 316 604 237 518 b 492 115 237 203 329 115 b 690 133 559 115 627 122 l 707 7 b 476 -14 632 -9 551 -14 m 382 1104 l 499 1104 l 662 846 l 518 846 l 441 1000 l 363 846 l 220 846 "},"ċ":{"ha":814,"x_min":0,"x_max":0,"o":"m 476 -14 b 92 361 231 -14 92 119 b 457 732 92 595 223 732 b 744 583 597 732 701 678 l 633 500 b 452 604 593 566 527 604 b 237 368 316 604 237 518 b 492 115 237 203 329 115 b 690 133 559 115 627 122 l 707 7 b 476 -14 632 -9 551 -14 m 439 840 b 349 930 389 840 349 880 b 439 1021 349 981 389 1021 b 530 930 490 1021 530 981 b 439 840 530 880 490 840 "},"d":{"ha":814,"x_min":0,"x_max":0,"o":"m 352 -14 b 65 353 163 -14 65 112 b 352 732 65 602 163 732 b 543 589 460 732 531 679 l 556 589 l 556 1017 l 700 1017 l 700 0 l 571 -7 l 557 130 l 543 130 b 352 -14 534 40 463 -14 m 556 384 b 384 610 556 532 497 610 b 208 353 268 610 208 522 b 384 109 208 192 268 109 b 556 335 497 109 556 186 "},"ð":{"ha":814,"x_min":0,"x_max":0,"o":"m 393 -14 b 77 305 191 -14 77 103 b 360 624 77 508 179 624 b 569 480 467 624 545 572 l 581 480 b 500 768 577 597 551 692 l 185 676 l 158 795 l 405 867 b 226 960 356 903 297 935 l 260 1028 b 522 901 366 996 454 954 l 718 958 l 745 839 l 619 802 b 732 389 696 699 732 564 l 732 357 b 393 -14 732 121 610 -14 m 401 111 b 581 305 514 111 581 183 b 401 499 581 427 514 499 b 222 305 288 499 222 427 b 401 111 222 183 288 111 "},"ď":{"ha":814,"x_min":0,"x_max":0,"o":"m 352 -14 b 65 353 163 -14 65 112 b 352 732 65 602 163 732 b 543 589 460 732 531 679 l 556 589 l 556 1017 l 700 1017 l 700 0 l 571 -7 l 557 130 l 543 130 b 352 -14 534 40 463 -14 m 556 384 b 384 610 556 532 497 610 b 208 353 268 610 208 522 b 384 109 208 192 268 109 b 556 335 497 109 556 186 m 795 1063 l 939 1063 l 878 806 l 761 806 "},"đ":{"ha":814,"x_min":0,"x_max":0,"o":"m 313 944 l 556 944 l 556 1017 l 700 1017 l 700 944 l 772 944 l 772 826 l 700 826 l 700 0 l 571 -7 l 557 130 l 543 130 b 352 -14 534 40 463 -14 b 65 353 163 -14 65 112 b 352 732 65 602 163 732 b 543 589 460 732 531 679 l 556 589 l 556 826 l 313 826 m 556 384 b 384 610 556 532 497 610 b 208 353 268 610 208 522 b 384 109 208 192 268 109 b 556 335 497 109 556 186 "},"e":{"ha":814,"x_min":0,"x_max":0,"o":"m 476 -14 b 92 361 231 -14 92 119 b 416 732 92 595 210 732 b 722 388 610 732 722 612 b 718 296 722 354 720 324 l 232 296 b 492 113 257 176 348 113 b 669 132 552 113 609 119 l 686 5 b 476 -14 601 -11 530 -14 m 591 406 b 418 606 591 534 526 606 b 227 406 307 606 238 534 "},"é":{"ha":814,"x_min":0,"x_max":0,"o":"m 476 -14 b 92 361 231 -14 92 119 b 416 732 92 595 210 732 b 722 388 610 732 722 612 b 718 296 722 354 720 324 l 232 296 b 492 113 257 176 348 113 b 669 132 552 113 609 119 l 686 5 b 476 -14 601 -11 530 -14 m 591 406 b 418 606 591 534 526 606 b 227 406 307 606 238 534 m 460 1104 l 604 1104 l 475 846 l 345 846 "},"ĕ":{"ha":814,"x_min":0,"x_max":0,"o":"m 476 -14 b 92 361 231 -14 92 119 b 416 732 92 595 210 732 b 722 388 610 732 722 612 b 718 296 722 354 720 324 l 232 296 b 492 113 257 176 348 113 b 669 132 552 113 609 119 l 686 5 b 476 -14 601 -11 530 -14 m 414 840 b 177 1058 263 840 177 919 l 177 1087 l 296 1087 l 296 1058 b 414 932 296 977 338 932 b 532 1058 490 932 532 977 l 532 1087 l 650 1087 l 650 1058 b 414 840 650 919 564 840 m 591 406 b 418 606 591 534 526 606 b 227 406 307 606 238 534 "},"ě":{"ha":814,"x_min":0,"x_max":0,"o":"m 476 -14 b 92 361 231 -14 92 119 b 416 732 92 595 210 732 b 722 388 610 732 722 612 b 718 296 722 354 720 324 l 232 296 b 492 113 257 176 348 113 b 669 132 552 113 609 119 l 686 5 b 476 -14 601 -11 530 -14 m 193 1078 l 336 1078 l 414 925 l 491 1078 l 635 1078 l 472 821 l 355 821 m 591 406 b 418 606 591 534 526 606 b 227 406 307 606 238 534 "},"ê":{"ha":814,"x_min":0,"x_max":0,"o":"m 476 -14 b 92 361 231 -14 92 119 b 416 732 92 595 210 732 b 722 388 610 732 722 612 b 718 296 722 354 720 324 l 232 296 b 492 113 257 176 348 113 b 669 132 552 113 609 119 l 686 5 b 476 -14 601 -11 530 -14 m 355 1104 l 472 1104 l 635 846 l 491 846 l 414 1000 l 336 846 l 193 846 m 591 406 b 418 606 591 534 526 606 b 227 406 307 606 238 534 "},"ế":{"ha":814,"x_min":0,"x_max":0,"o":"m 476 -14 b 92 361 231 -14 92 119 b 416 732 92 595 210 732 b 722 388 610 732 722 612 b 718 296 722 354 720 324 l 232 296 b 492 113 257 176 348 113 b 669 132 552 113 609 119 l 686 5 b 476 -14 601 -11 530 -14 m 355 1104 l 472 1104 l 635 846 l 491 846 l 414 1000 l 336 846 l 193 846 m 591 406 b 418 606 591 534 526 606 b 227 406 307 606 238 534 m 703 1335 l 846 1335 l 718 1077 l 587 1077 "},"ệ":{"ha":814,"x_min":0,"x_max":0,"o":"m 476 -14 b 92 361 231 -14 92 119 b 416 732 92 595 210 732 b 722 388 610 732 722 612 b 718 296 722 354 720 324 l 232 296 b 492 113 257 176 348 113 b 669 132 552 113 609 119 l 686 5 b 476 -14 601 -11 530 -14 m 355 1104 l 472 1104 l 635 846 l 491 846 l 414 1000 l 336 846 l 193 846 m 591 406 b 418 606 591 534 526 606 b 227 406 307 606 238 534 m 427 -285 b 336 -194 377 -285 336 -244 b 427 -103 336 -143 377 -103 b 518 -194 477 -103 518 -143 b 427 -285 518 -244 477 -285 "},"ề":{"ha":814,"x_min":0,"x_max":0,"o":"m 476 -14 b 92 361 231 -14 92 119 b 416 732 92 595 210 732 b 722 388 610 732 722 612 b 718 296 722 354 720 324 l 232 296 b 492 113 257 176 348 113 b 669 132 552 113 609 119 l 686 5 b 476 -14 601 -11 530 -14 m 355 1104 l 472 1104 l 635 846 l 491 846 l 414 1000 l 336 846 l 193 846 m 591 406 b 418 606 591 534 526 606 b 227 406 307 606 238 534 m 475 1335 l 619 1335 l 734 1077 l 604 1077 "},"ể":{"ha":814,"x_min":0,"x_max":0,"o":"m 476 -14 b 92 361 231 -14 92 119 b 416 732 92 595 210 732 b 722 388 610 732 722 612 b 718 296 722 354 720 324 l 232 296 b 492 113 257 176 348 113 b 669 132 552 113 609 119 l 686 5 b 476 -14 601 -11 530 -14 m 355 1104 l 472 1104 l 635 846 l 491 846 l 414 1000 l 336 846 l 193 846 m 591 406 b 418 606 591 534 526 606 b 227 406 307 606 238 534 m 603 1101 b 675 1238 603 1173 675 1192 b 633 1276 675 1261 659 1276 b 549 1246 604 1276 570 1264 l 504 1327 b 648 1378 532 1358 589 1378 b 788 1247 732 1378 788 1326 b 708 1083 788 1161 708 1154 l 708 1077 l 603 1077 "},"ễ":{"ha":814,"x_min":0,"x_max":0,"o":"m 476 -14 b 92 361 231 -14 92 119 b 416 732 92 595 210 732 b 722 388 610 732 722 612 b 718 296 722 354 720 324 l 232 296 b 492 113 257 176 348 113 b 669 132 552 113 609 119 l 686 5 b 476 -14 601 -11 530 -14 m 176 1232 b 319 1401 176 1345 224 1401 b 419 1371 355 1401 385 1388 b 518 1333 464 1349 496 1333 b 555 1377 543 1333 555 1348 l 555 1438 l 671 1438 l 671 1383 b 544 1221 671 1275 629 1221 b 433 1255 518 1221 481 1231 b 345 1289 404 1270 373 1289 b 294 1238 311 1289 294 1272 l 294 1204 l 176 1204 m 355 1104 l 472 1104 l 635 846 l 491 846 l 414 1000 l 336 846 l 193 846 m 591 406 b 418 606 591 534 526 606 b 227 406 307 606 238 534 "},"ë":{"ha":814,"x_min":0,"x_max":0,"o":"m 476 -14 b 92 361 231 -14 92 119 b 416 732 92 595 210 732 b 722 388 610 732 722 612 b 718 296 722 354 720 324 l 232 296 b 492 113 257 176 348 113 b 669 132 552 113 609 119 l 686 5 b 476 -14 601 -11 530 -14 m 591 406 b 418 606 591 534 526 606 b 227 406 307 606 238 534 m 273 840 b 182 930 222 840 182 880 b 273 1021 182 981 222 1021 b 363 930 323 1021 363 981 b 273 840 363 880 323 840 m 557 840 b 467 930 507 840 467 880 b 557 1021 467 981 507 1021 b 648 930 608 1021 648 981 b 557 840 648 880 608 840 "},"ė":{"ha":814,"x_min":0,"x_max":0,"o":"m 476 -14 b 92 361 231 -14 92 119 b 416 732 92 595 210 732 b 722 388 610 732 722 612 b 718 296 722 354 720 324 l 232 296 b 492 113 257 176 348 113 b 669 132 552 113 609 119 l 686 5 b 476 -14 601 -11 530 -14 m 591 406 b 418 606 591 534 526 606 b 227 406 307 606 238 534 m 412 840 b 321 930 362 840 321 880 b 412 1021 321 981 362 1021 b 503 930 463 1021 503 981 b 412 840 503 880 463 840 "},"ẹ":{"ha":814,"x_min":0,"x_max":0,"o":"m 476 -14 b 92 361 231 -14 92 119 b 416 732 92 595 210 732 b 722 388 610 732 722 612 b 718 296 722 354 720 324 l 232 296 b 492 113 257 176 348 113 b 669 132 552 113 609 119 l 686 5 b 476 -14 601 -11 530 -14 m 591 406 b 418 606 591 534 526 606 b 227 406 307 606 238 534 m 427 -285 b 336 -194 377 -285 336 -244 b 427 -103 336 -143 377 -103 b 518 -194 477 -103 518 -143 b 427 -285 518 -244 477 -285 "},"è":{"ha":814,"x_min":0,"x_max":0,"o":"m 476 -14 b 92 361 231 -14 92 119 b 416 732 92 595 210 732 b 722 388 610 732 722 612 b 718 296 722 354 720 324 l 232 296 b 492 113 257 176 348 113 b 669 132 552 113 609 119 l 686 5 b 476 -14 601 -11 530 -14 m 591 406 b 418 606 591 534 526 606 b 227 406 307 606 238 534 m 233 1104 l 377 1104 l 492 846 l 362 846 "},"ẻ":{"ha":814,"x_min":0,"x_max":0,"o":"m 476 -14 b 92 361 231 -14 92 119 b 416 732 92 595 210 732 b 722 388 610 732 722 612 b 718 296 722 354 720 324 l 232 296 b 492 113 257 176 348 113 b 669 132 552 113 609 119 l 686 5 b 476 -14 601 -11 530 -14 m 591 406 b 418 606 591 534 526 606 b 227 406 307 606 238 534 m 361 871 b 433 1007 361 942 433 962 b 391 1045 433 1030 416 1045 b 307 1016 361 1045 328 1034 l 262 1097 b 406 1147 290 1127 347 1147 b 546 1017 490 1147 546 1095 b 466 852 546 930 466 923 l 466 846 l 361 846 "},"ē":{"ha":814,"x_min":0,"x_max":0,"o":"m 476 -14 b 92 361 231 -14 92 119 b 416 732 92 595 210 732 b 722 388 610 732 722 612 b 718 296 722 354 720 324 l 232 296 b 492 113 257 176 348 113 b 669 132 552 113 609 119 l 686 5 b 476 -14 601 -11 530 -14 m 122 974 l 705 974 l 705 846 l 122 846 m 591 406 b 418 606 591 534 526 606 b 227 406 307 606 238 534 "},"ę":{"ha":814,"x_min":0,"x_max":0,"o":"m 595 -288 b 433 -157 492 -288 433 -240 b 510 -27 433 -91 461 -43 l 510 -13 b 476 -14 498 -14 487 -14 b 92 361 231 -14 92 119 b 416 732 92 595 210 732 b 722 388 610 732 722 612 b 718 296 722 354 720 324 l 232 296 b 492 113 257 176 348 113 b 669 132 552 113 609 119 l 686 5 b 534 -114 617 -11 534 -37 b 613 -174 534 -138 550 -174 b 669 -166 628 -174 646 -172 l 656 -281 b 595 -288 633 -286 613 -288 m 591 406 b 418 606 591 534 526 606 b 227 406 307 606 238 534 "},"ɛ":{"ha":814,"x_min":0,"x_max":0,"o":"m 425 -14 b 113 190 216 -14 113 54 b 320 359 113 284 181 340 l 320 373 b 133 557 195 405 133 466 b 435 732 133 674 233 732 b 712 693 564 732 655 720 l 668 570 b 450 608 605 595 533 608 b 283 524 338 608 283 580 b 566 418 283 460 376 425 l 549 295 l 528 295 b 262 197 351 295 262 262 b 430 111 262 140 318 111 b 668 149 542 111 610 133 l 705 19 b 425 -14 633 -1 538 -14 "},"ʃ":{"ha":814,"x_min":0,"x_max":0,"o":"m 73 -196 l 146 -186 b 300 42 253 -171 300 -106 l 300 658 b 640 1031 300 907 412 1031 b 789 1017 694 1031 739 1027 l 774 892 b 636 902 718 899 677 902 b 444 665 507 902 444 823 l 444 64 b 174 -314 444 -191 362 -295 l 80 -323 "},"ẽ":{"ha":814,"x_min":0,"x_max":0,"o":"m 476 -14 b 92 361 231 -14 92 119 b 416 732 92 595 210 732 b 722 388 610 732 722 612 b 718 296 722 354 720 324 l 232 296 b 492 113 257 176 348 113 b 669 132 552 113 609 119 l 686 5 b 476 -14 601 -11 530 -14 m 176 879 b 319 1048 176 992 224 1048 b 419 1019 355 1048 385 1036 b 518 981 464 996 496 981 b 555 1024 543 981 555 995 l 555 1085 l 671 1085 l 671 1031 b 544 868 671 922 629 868 b 433 902 518 868 481 878 b 345 936 404 917 373 936 b 294 886 311 936 294 920 l 294 852 l 176 852 m 591 406 b 418 606 591 534 526 606 b 227 406 307 606 238 534 "},"ǝ":{"ha":814,"x_min":0,"x_max":0,"o":"m 397 -14 b 92 331 203 -14 92 107 b 96 423 92 365 94 395 l 582 423 b 321 606 557 543 466 606 b 145 581 262 606 205 597 l 127 700 b 338 732 213 728 283 732 b 722 358 583 732 722 600 b 397 -14 722 123 604 -14 m 222 313 b 396 113 222 184 288 113 b 587 313 507 113 576 185 "},"ə":{"ha":814,"x_min":0,"x_max":0,"o":"m 397 -14 b 92 331 203 -14 92 107 b 96 423 92 365 94 395 l 582 423 b 321 606 557 543 466 606 b 145 581 262 606 205 597 l 127 700 b 338 732 213 728 283 732 b 722 358 583 732 722 600 b 397 -14 722 123 604 -14 m 222 313 b 396 113 222 184 288 113 b 587 313 507 113 576 185 "},"ʒ":{"ha":814,"x_min":0,"x_max":0,"o":"m 367 -312 b 54 -191 237 -312 132 -271 l 149 -90 b 374 -183 221 -155 279 -183 b 572 -6 499 -183 572 -115 b 347 185 572 116 490 185 l 230 185 l 216 269 l 522 595 l 117 595 l 117 713 l 675 713 l 675 576 l 406 288 b 720 -2 606 279 720 174 b 367 -312 720 -184 592 -312 "},"f":{"ha":814,"x_min":0,"x_max":0,"o":"m 273 438 l 46 438 l 46 556 l 273 556 l 273 658 b 613 1031 273 907 385 1031 b 762 1017 667 1031 712 1027 l 747 892 b 609 902 690 899 650 902 b 416 665 480 902 416 823 l 416 556 l 711 556 l 711 438 l 416 438 l 416 0 l 273 0 "},"g":{"ha":814,"x_min":0,"x_max":0,"o":"m 117 -193 l 347 -186 b 556 42 492 -182 555 -106 l 556 130 l 543 130 b 352 -14 534 40 463 -14 b 65 353 163 -14 65 112 b 352 732 65 602 163 732 b 549 589 464 732 537 679 l 558 589 l 570 719 l 700 719 l 700 64 b 334 -317 700 -193 589 -309 l 123 -324 m 556 384 b 384 610 556 532 497 610 b 208 353 268 610 208 522 b 384 109 208 192 268 109 b 556 335 497 109 556 186 l 556 384 "},"ɣ":{"ha":814,"x_min":0,"x_max":0,"o":"m 407 -313 b 186 -140 267 -313 186 -251 b 294 47 186 -79 212 -21 l 54 719 l 208 719 l 401 122 l 413 122 l 606 719 l 760 719 l 519 47 b 628 -140 602 -21 628 -79 b 407 -313 628 -251 547 -313 m 328 -110 b 407 -184 328 -157 355 -184 b 486 -110 458 -184 486 -157 b 407 20 486 -78 467 -46 b 328 -110 347 -46 328 -78 "},"ğ":{"ha":814,"x_min":0,"x_max":0,"o":"m 117 -193 l 347 -186 b 556 42 492 -182 555 -106 l 556 130 l 543 130 b 352 -14 534 40 463 -14 b 65 353 163 -14 65 112 b 352 732 65 602 163 732 b 549 589 464 732 537 679 l 558 589 l 570 719 l 700 719 l 700 64 b 334 -317 700 -193 589 -309 l 123 -324 m 556 384 b 384 610 556 532 497 610 b 208 353 268 610 208 522 b 384 109 208 192 268 109 b 556 335 497 109 556 186 l 556 384 m 393 840 b 157 1058 243 840 157 919 l 157 1087 l 275 1087 l 275 1058 b 393 932 275 977 317 932 b 511 1058 469 932 511 977 l 511 1087 l 630 1087 l 630 1058 b 393 840 630 919 544 840 "},"ǧ":{"ha":814,"x_min":0,"x_max":0,"o":"m 117 -193 l 347 -186 b 556 42 492 -182 555 -106 l 556 130 l 543 130 b 352 -14 534 40 463 -14 b 65 353 163 -14 65 112 b 352 732 65 602 163 732 b 549 589 464 732 537 679 l 558 589 l 570 719 l 700 719 l 700 64 b 334 -317 700 -193 589 -309 l 123 -324 m 556 384 b 384 610 556 532 497 610 b 208 353 268 610 208 522 b 384 109 208 192 268 109 b 556 335 497 109 556 186 l 556 384 m 172 1078 l 316 1078 l 393 925 l 471 1078 l 614 1078 l 452 821 l 335 821 "},"ĝ":{"ha":814,"x_min":0,"x_max":0,"o":"m 117 -193 l 347 -186 b 556 42 492 -182 555 -106 l 556 130 l 543 130 b 352 -14 534 40 463 -14 b 65 353 163 -14 65 112 b 352 732 65 602 163 732 b 549 589 464 732 537 679 l 558 589 l 570 719 l 700 719 l 700 64 b 334 -317 700 -193 589 -309 l 123 -324 m 556 384 b 384 610 556 532 497 610 b 208 353 268 610 208 522 b 384 109 208 192 268 109 b 556 335 497 109 556 186 l 556 384 m 335 1104 l 452 1104 l 614 846 l 471 846 l 393 1000 l 316 846 l 172 846 "},"ģ":{"ha":814,"x_min":0,"x_max":0,"o":"m 117 -193 l 347 -186 b 556 42 492 -182 555 -106 l 556 130 l 543 130 b 352 -14 534 40 463 -14 b 65 353 163 -14 65 112 b 352 732 65 602 163 732 b 549 589 464 732 537 679 l 558 589 l 570 719 l 700 719 l 700 64 b 334 -317 700 -193 589 -309 l 123 -324 m 556 384 b 384 610 556 532 497 610 b 208 353 268 610 208 522 b 384 109 208 192 268 109 b 556 335 497 109 556 186 l 556 384 m 388 1077 l 505 1077 l 471 819 l 327 819 "},"ġ":{"ha":814,"x_min":0,"x_max":0,"o":"m 117 -193 l 347 -186 b 556 42 492 -182 555 -106 l 556 130 l 543 130 b 352 -14 534 40 463 -14 b 65 353 163 -14 65 112 b 352 732 65 602 163 732 b 549 589 464 732 537 679 l 558 589 l 570 719 l 700 719 l 700 64 b 334 -317 700 -193 589 -309 l 123 -324 m 556 384 b 384 610 556 532 497 610 b 208 353 268 610 208 522 b 384 109 208 192 268 109 b 556 335 497 109 556 186 l 556 384 m 392 840 b 301 930 342 840 301 880 b 392 1021 301 981 342 1021 b 483 930 442 1021 483 981 b 392 840 483 880 442 840 "},"ʔ":{"ha":814,"x_min":0,"x_max":0,"o":"m 313 259 b 457 579 313 382 363 472 b 540 754 515 644 540 686 b 382 902 540 848 482 902 b 179 785 308 902 230 856 l 85 882 b 384 1031 143 972 259 1031 b 689 761 577 1031 689 932 b 566 500 689 655 646 591 b 457 250 484 408 457 328 l 457 0 l 313 0 "},"ʕ":{"ha":814,"x_min":0,"x_max":0,"o":"m 357 250 b 248 500 357 328 330 408 b 125 761 168 591 125 655 b 430 1031 125 932 237 1031 b 728 882 555 1031 671 972 l 635 785 b 431 902 584 856 506 902 b 274 754 332 902 274 848 b 357 579 274 686 299 644 b 500 259 451 472 500 382 l 500 0 l 357 0 "},"ǥ":{"ha":814,"x_min":0,"x_max":0,"o":"m 30 -58 l 543 -58 b 556 42 551 -29 555 4 l 556 130 l 543 130 b 352 -14 534 40 463 -14 b 65 353 163 -14 65 112 b 352 732 65 602 163 732 b 549 589 464 732 537 679 l 558 589 l 570 719 l 700 719 l 700 64 b 690 -58 700 19 696 -21 l 784 -58 l 784 -131 l 669 -131 b 334 -317 620 -253 512 -312 l 123 -324 l 117 -193 l 347 -186 b 500 -131 416 -184 467 -165 l 30 -131 m 556 384 b 384 610 556 532 497 610 b 208 353 268 610 208 522 b 384 109 208 192 268 109 b 556 335 497 109 556 186 l 556 384 "},"h":{"ha":814,"x_min":0,"x_max":0,"o":"m 556 468 b 427 610 556 559 509 610 b 258 404 315 610 258 543 l 258 0 l 114 0 l 114 1017 l 258 1017 l 258 589 l 271 589 b 461 732 279 685 340 732 b 700 468 613 732 700 636 l 700 0 l 556 0 "},"ħ":{"ha":814,"x_min":0,"x_max":0,"o":"m 15 944 l 114 944 l 114 1017 l 258 1017 l 258 944 l 500 944 l 500 826 l 258 826 l 258 589 l 271 589 b 461 732 279 685 340 732 b 700 468 613 732 700 636 l 700 0 l 556 0 l 556 468 b 427 610 556 559 509 610 b 258 404 315 610 258 543 l 258 0 l 114 0 l 114 826 l 15 826 "},"ȟ":{"ha":814,"x_min":0,"x_max":0,"o":"m 556 468 b 427 610 556 559 509 610 b 258 404 315 610 258 543 l 258 0 l 114 0 l 114 1017 l 258 1017 l 258 589 l 271 589 b 461 732 279 685 340 732 b 700 468 613 732 700 636 l 700 0 l 556 0 m -49 1302 l 102 1302 l 186 1204 l 270 1302 l 420 1302 l 244 1126 l 127 1126 "},"ĥ":{"ha":814,"x_min":0,"x_max":0,"o":"m 556 468 b 427 610 556 559 509 610 b 258 404 315 610 258 543 l 258 0 l 114 0 l 114 1017 l 258 1017 l 258 589 l 271 589 b 461 732 279 685 340 732 b 700 468 613 732 700 636 l 700 0 l 556 0 m 131 1302 l 248 1302 l 424 1126 l 273 1126 l 189 1223 l 105 1126 l -45 1126 "},"ḥ":{"ha":814,"x_min":0,"x_max":0,"o":"m 556 468 b 427 610 556 559 509 610 b 258 404 315 610 258 543 l 258 0 l 114 0 l 114 1017 l 258 1017 l 258 589 l 271 589 b 461 732 279 685 340 732 b 700 468 613 732 700 636 l 700 0 l 556 0 m 407 -285 b 316 -194 357 -285 316 -244 b 407 -103 316 -143 357 -103 b 498 -194 457 -103 498 -143 b 407 -285 498 -244 457 -285 "},"i":{"ha":814,"x_min":0,"x_max":0,"o":"m 109 118 l 382 118 l 382 601 l 149 601 l 149 719 l 526 719 l 526 118 l 747 118 l 747 0 l 109 0 m 450 833 b 349 933 394 833 349 878 b 450 1034 349 989 394 1034 b 550 933 505 1034 550 989 b 450 833 550 878 505 833 "},"ı":{"ha":814,"x_min":0,"x_max":0,"o":"m 109 118 l 382 118 l 382 601 l 149 601 l 149 719 l 526 719 l 526 118 l 747 118 l 747 0 l 109 0 "},"í":{"ha":814,"x_min":0,"x_max":0,"o":"m 109 118 l 382 118 l 382 601 l 149 601 l 149 719 l 526 719 l 526 118 l 747 118 l 747 0 l 109 0 m 488 1104 l 631 1104 l 503 846 l 372 846 "},"ĭ":{"ha":814,"x_min":0,"x_max":0,"o":"m 109 118 l 382 118 l 382 601 l 149 601 l 149 719 l 526 719 l 526 118 l 747 118 l 747 0 l 109 0 m 441 840 b 204 1058 290 840 204 919 l 204 1087 l 323 1087 l 323 1058 b 441 932 323 977 365 932 b 559 1058 517 932 559 977 l 559 1087 l 677 1087 l 677 1058 b 441 840 677 919 591 840 "},"î":{"ha":814,"x_min":0,"x_max":0,"o":"m 109 118 l 382 118 l 382 601 l 149 601 l 149 719 l 526 719 l 526 118 l 747 118 l 747 0 l 109 0 m 382 1104 l 499 1104 l 662 846 l 518 846 l 441 1000 l 363 846 l 220 846 "},"ï":{"ha":814,"x_min":0,"x_max":0,"o":"m 109 118 l 382 118 l 382 601 l 149 601 l 149 719 l 526 719 l 526 118 l 747 118 l 747 0 l 109 0 m 300 840 b 209 930 250 840 209 880 b 300 1021 209 981 250 1021 b 391 930 350 1021 391 981 b 300 840 391 880 350 840 m 585 840 b 494 930 534 840 494 880 b 585 1021 494 981 534 1021 b 675 930 635 1021 675 981 b 585 840 675 880 635 840 "},"ị":{"ha":814,"x_min":0,"x_max":0,"o":"m 109 118 l 382 118 l 382 601 l 149 601 l 149 719 l 526 719 l 526 118 l 747 118 l 747 0 l 109 0 m 450 833 b 349 933 394 833 349 878 b 450 1034 349 989 394 1034 b 550 933 505 1034 550 989 b 450 833 550 878 505 833 m 454 -285 b 363 -194 404 -285 363 -244 b 454 -103 363 -143 404 -103 b 545 -194 505 -103 545 -143 b 454 -285 545 -244 505 -285 "},"ì":{"ha":814,"x_min":0,"x_max":0,"o":"m 109 118 l 382 118 l 382 601 l 149 601 l 149 719 l 526 719 l 526 118 l 747 118 l 747 0 l 109 0 m 260 1104 l 404 1104 l 519 846 l 389 846 "},"ỉ":{"ha":814,"x_min":0,"x_max":0,"o":"m 109 118 l 382 118 l 382 601 l 149 601 l 149 719 l 526 719 l 526 118 l 747 118 l 747 0 l 109 0 m 388 871 b 460 1007 388 942 460 962 b 418 1045 460 1030 444 1045 b 334 1016 389 1045 355 1034 l 289 1097 b 433 1147 317 1127 374 1147 b 573 1017 517 1147 573 1095 b 493 852 573 930 493 923 l 493 846 l 388 846 "},"ĳ":{"ha":814,"x_min":0,"x_max":0,"o":"m 164 -198 l 300 -186 b 507 42 445 -173 507 -106 l 507 719 l 651 719 l 651 64 b 286 -317 651 -193 541 -299 l 171 -326 m 165 719 l 309 719 l 309 0 l 165 0 m 236 833 b 136 933 180 833 136 878 b 236 1034 136 989 180 1034 b 336 933 292 1034 336 989 b 236 833 336 878 292 833 m 578 833 b 477 933 522 833 477 878 b 578 1034 477 989 522 1034 b 678 933 633 1034 678 989 b 578 833 678 878 633 833 "},"ī":{"ha":814,"x_min":0,"x_max":0,"o":"m 109 118 l 382 118 l 382 601 l 149 601 l 149 719 l 526 719 l 526 118 l 747 118 l 747 0 l 109 0 m 149 974 l 732 974 l 732 846 l 149 846 "},"į":{"ha":814,"x_min":0,"x_max":0,"o":"m 454 -288 b 292 -144 351 -288 292 -235 b 369 -14 292 -77 319 -30 l 369 0 l 109 0 l 109 118 l 382 118 l 382 601 l 149 601 l 149 719 l 526 719 l 526 118 l 747 118 l 747 0 l 545 0 b 393 -114 449 0 393 -41 b 472 -174 393 -152 422 -174 b 528 -166 488 -174 507 -171 l 515 -281 b 454 -288 494 -286 472 -288 m 450 833 b 349 933 394 833 349 878 b 450 1034 349 989 394 1034 b 550 933 505 1034 550 989 b 450 833 550 878 505 833 "},"ɩ":{"ha":814,"x_min":0,"x_max":0,"o":"m 518 -14 b 292 271 358 -14 292 72 l 292 600 l 88 600 l 88 719 l 435 719 l 435 278 b 572 115 435 164 457 115 b 705 141 610 115 650 123 l 722 15 b 518 -14 652 -5 591 -14 "},"ĩ":{"ha":814,"x_min":0,"x_max":0,"o":"m 109 118 l 382 118 l 382 601 l 149 601 l 149 719 l 526 719 l 526 118 l 747 118 l 747 0 l 109 0 m 203 879 b 346 1048 203 992 251 1048 b 446 1019 382 1048 412 1036 b 545 981 491 996 523 981 b 582 1024 570 981 582 995 l 582 1085 l 699 1085 l 699 1031 b 571 868 699 922 656 868 b 460 902 545 868 508 878 b 372 936 431 917 400 936 b 321 886 338 936 321 920 l 321 852 l 203 852 "},"j":{"ha":814,"x_min":0,"x_max":0,"o":"m 115 -198 l 251 -186 b 458 42 396 -172 458 -106 l 458 601 l 179 601 l 179 719 l 602 719 l 602 64 b 237 -317 602 -193 492 -297 l 122 -326 m 515 833 b 415 933 460 833 415 878 b 515 1034 415 989 460 1034 b 616 933 571 1034 616 989 b 515 833 616 878 571 833 "},"ȷ":{"ha":814,"x_min":0,"x_max":0,"o":"m 115 -198 l 251 -186 b 458 42 396 -173 458 -106 l 458 601 l 179 601 l 179 719 l 602 719 l 602 64 b 237 -317 602 -193 492 -299 l 122 -326 "},"ǰ":{"ha":814,"x_min":0,"x_max":0,"o":"m 115 -198 l 251 -186 b 458 42 396 -173 458 -106 l 458 601 l 179 601 l 179 719 l 602 719 l 602 64 b 237 -317 602 -193 492 -299 l 122 -326 m 309 1078 l 453 1078 l 530 925 l 608 1078 l 751 1078 l 589 821 l 472 821 "},"ĵ":{"ha":814,"x_min":0,"x_max":0,"o":"m 115 -198 l 251 -186 b 458 42 396 -173 458 -106 l 458 601 l 179 601 l 179 719 l 602 719 l 602 64 b 237 -317 602 -193 492 -299 l 122 -326 m 472 1104 l 589 1104 l 751 846 l 608 846 l 530 1000 l 453 846 l 309 846 "},"k":{"ha":814,"x_min":0,"x_max":0,"o":"m 109 1017 l 252 1017 l 252 401 l 292 401 b 578 719 471 401 547 486 l 727 719 b 562 348 705 543 650 419 l 773 0 l 595 0 l 429 284 b 326 273 397 277 363 273 l 252 273 l 252 0 l 109 0 "},"ķ":{"ha":814,"x_min":0,"x_max":0,"o":"m 109 1017 l 252 1017 l 252 401 l 292 401 b 578 719 471 401 547 486 l 727 719 b 562 348 705 543 650 419 l 773 0 l 595 0 l 429 284 b 326 273 397 277 363 273 l 252 273 l 252 0 l 109 0 m 347 -95 l 498 -95 l 418 -326 l 295 -326 "},"ḳ":{"ha":814,"x_min":0,"x_max":0,"o":"m 109 1017 l 252 1017 l 252 401 l 292 401 b 578 719 471 401 547 486 l 727 719 b 562 348 705 543 650 419 l 773 0 l 595 0 l 429 284 b 326 273 397 277 363 273 l 252 273 l 252 0 l 109 0 m 420 -285 b 330 -194 370 -285 330 -244 b 420 -103 330 -143 370 -103 b 511 -194 471 -103 511 -143 b 420 -285 511 -244 471 -285 "},"ĸ":{"ha":814,"x_min":0,"x_max":0,"o":"m 109 719 l 252 719 l 252 401 l 292 401 b 578 719 471 401 547 486 l 727 719 b 562 348 705 543 650 419 l 773 0 l 595 0 l 429 284 b 326 273 397 277 363 273 l 252 273 l 252 0 l 109 0 "},"ḵ":{"ha":814,"x_min":0,"x_max":0,"o":"m 109 1017 l 252 1017 l 252 401 l 292 401 b 578 719 471 401 547 486 l 727 719 b 562 348 705 543 650 419 l 773 0 l 595 0 l 429 284 b 326 273 397 277 363 273 l 252 273 l 252 0 l 109 0 m 129 -141 l 712 -141 l 712 -269 l 129 -269 "},"l":{"ha":814,"x_min":0,"x_max":0,"o":"m 514 -14 b 278 271 347 -14 278 72 l 278 899 l 66 899 l 66 1017 l 422 1017 l 422 278 b 568 115 422 164 445 115 b 712 141 609 115 652 123 l 728 15 b 514 -14 655 -5 591 -14 "},"ĺ":{"ha":814,"x_min":0,"x_max":0,"o":"m 514 -14 b 278 271 347 -14 278 72 l 278 899 l 66 899 l 66 1017 l 422 1017 l 422 278 b 568 115 422 164 445 115 b 712 141 609 115 652 123 l 728 15 b 514 -14 655 -5 591 -14 m 410 1295 l 602 1295 l 418 1126 l 261 1126 "},"ƛ":{"ha":814,"x_min":0,"x_max":0,"o":"m 66 727 l 313 807 b 212 888 290 867 257 888 b 170 883 199 888 188 887 l 154 1009 b 226 1017 180 1015 199 1017 b 444 849 338 1017 406 977 l 654 917 l 681 798 l 478 732 l 622 231 b 738 115 646 144 683 115 b 780 121 751 115 762 117 l 796 -5 b 724 -14 770 -12 751 -14 b 498 170 606 -14 538 31 l 382 574 l 357 567 b 351 401 372 507 371 452 l 199 0 l 45 0 l 329 684 l 94 608 "},"ƚ":{"ha":814,"x_min":0,"x_max":0,"o":"m 66 568 l 278 568 l 278 899 l 66 899 l 66 1017 l 422 1017 l 422 568 l 633 568 l 633 439 l 422 439 l 422 278 b 568 115 422 164 445 115 b 712 141 609 115 652 123 l 728 15 b 514 -14 655 -5 591 -14 b 278 271 347 -14 278 72 l 278 439 l 66 439 "},"ɬ":{"ha":814,"x_min":0,"x_max":0,"o":"m 210 371 b -3 578 75 371 -3 446 b 156 776 -3 704 55 776 b 267 685 223 776 257 746 l 278 685 l 278 899 l 66 899 l 66 1017 l 422 1017 l 422 500 l 633 500 l 633 371 l 422 371 l 422 278 b 568 115 422 164 445 115 b 712 141 609 115 652 123 l 728 15 b 514 -14 655 -5 591 -14 b 278 271 347 -14 278 72 l 278 371 l 210 371 m 278 557 b 203 647 278 620 245 647 b 146 575 167 647 146 621 b 210 500 146 527 170 500 l 278 500 "},"ľ":{"ha":814,"x_min":0,"x_max":0,"o":"m 514 -14 b 278 271 347 -14 278 72 l 278 899 l 66 899 l 66 1017 l 422 1017 l 422 278 b 568 115 422 164 445 115 b 712 141 609 115 652 123 l 728 15 b 514 -14 655 -5 591 -14 m 557 1063 l 701 1063 l 640 806 l 524 806 "},"ļ":{"ha":814,"x_min":0,"x_max":0,"o":"m 514 -14 b 278 271 347 -14 278 72 l 278 899 l 66 899 l 66 1017 l 422 1017 l 422 278 b 568 115 422 164 445 115 b 712 141 609 115 652 123 l 728 15 b 514 -14 655 -5 591 -14 m 388 -95 l 538 -95 l 459 -326 l 336 -326 "},"ŀ":{"ha":814,"x_min":0,"x_max":0,"o":"m 514 -14 b 278 271 347 -14 278 72 l 278 899 l 66 899 l 66 1017 l 422 1017 l 422 278 b 568 115 422 164 445 115 b 712 141 609 115 652 123 l 728 15 b 514 -14 655 -5 591 -14 m 621 585 b 521 685 566 585 521 629 b 621 785 521 741 566 785 b 722 685 677 785 722 741 b 621 585 722 629 677 585 "},"ḷ":{"ha":814,"x_min":0,"x_max":0,"o":"m 514 -14 b 278 271 347 -14 278 72 l 278 899 l 66 899 l 66 1017 l 422 1017 l 422 278 b 568 115 422 164 445 115 b 712 141 609 115 652 123 l 728 15 b 514 -14 655 -5 591 -14 m 461 -285 b 370 -194 411 -285 370 -244 b 461 -103 370 -143 411 -103 b 552 -194 511 -103 552 -143 b 461 -285 552 -244 511 -285 "},"ḻ":{"ha":814,"x_min":0,"x_max":0,"o":"m 514 -14 b 278 271 347 -14 278 72 l 278 899 l 66 899 l 66 1017 l 422 1017 l 422 278 b 568 115 422 164 445 115 b 712 141 609 115 652 123 l 728 15 b 514 -14 655 -5 591 -14 m 170 -141 l 753 -141 l 753 -269 l 170 -269 "},"ɫ":{"ha":814,"x_min":0,"x_max":0,"o":"m 51 456 b 204 622 51 572 97 622 b 278 610 230 622 254 617 l 278 899 l 66 899 l 66 1017 l 422 1017 l 422 544 b 485 527 443 534 463 527 b 524 578 513 527 524 543 l 524 640 l 648 640 l 648 583 b 511 418 648 467 606 418 b 422 434 479 418 450 425 l 422 278 b 568 115 422 164 445 115 b 712 141 609 115 652 123 l 728 15 b 514 -14 655 -5 591 -14 b 278 271 347 -14 278 72 l 278 503 b 225 513 261 509 244 513 b 174 462 189 513 174 497 l 174 399 l 51 399 "},"ł":{"ha":814,"x_min":0,"x_max":0,"o":"m 87 434 l 278 534 l 278 899 l 66 899 l 66 1017 l 422 1017 l 422 608 l 633 719 l 633 593 l 422 483 l 422 278 b 568 115 422 164 445 115 b 712 141 609 115 652 123 l 728 15 b 514 -14 655 -5 591 -14 b 278 271 347 -14 278 72 l 278 408 l 87 309 "},"m":{"ha":814,"x_min":0,"x_max":0,"o":"m 594 549 b 538 624 594 600 576 624 b 468 526 491 624 468 591 l 468 0 l 346 0 l 346 563 b 289 624 346 604 327 624 b 220 526 243 624 220 591 l 220 0 l 76 0 l 76 719 l 203 719 l 213 629 l 224 629 b 347 732 229 699 269 732 b 463 629 408 732 450 699 l 475 629 b 595 732 479 685 519 732 b 738 563 694 732 738 682 l 738 0 l 594 0 "},"n":{"ha":814,"x_min":0,"x_max":0,"o":"m 556 468 b 427 604 556 555 509 604 b 258 404 315 604 258 538 l 258 0 l 114 0 l 114 719 l 244 719 l 256 589 l 271 589 b 461 732 279 685 340 732 b 700 468 613 732 700 636 l 700 0 l 556 0 "},"ń":{"ha":814,"x_min":0,"x_max":0,"o":"m 556 468 b 427 604 556 555 509 604 b 258 404 315 604 258 538 l 258 0 l 114 0 l 114 719 l 244 719 l 256 589 l 271 589 b 461 732 279 685 340 732 b 700 468 613 732 700 636 l 700 0 l 556 0 m 447 1104 l 591 1104 l 462 846 l 332 846 "},"ŉ":{"ha":814,"x_min":0,"x_max":0,"o":"m 556 468 b 427 604 556 555 509 604 b 258 404 315 604 258 538 l 258 0 l 114 0 l 114 719 l 244 719 l 256 589 l 271 589 b 461 732 279 685 340 732 b 700 468 613 732 700 636 l 700 0 l 556 0 m 47 1104 l 205 1104 l 110 846 l 0 846 "},"ň":{"ha":814,"x_min":0,"x_max":0,"o":"m 556 468 b 427 604 556 555 509 604 b 258 404 315 604 258 538 l 258 0 l 114 0 l 114 719 l 244 719 l 256 589 l 271 589 b 461 732 279 685 340 732 b 700 468 613 732 700 636 l 700 0 l 556 0 m 179 1078 l 323 1078 l 400 925 l 477 1078 l 621 1078 l 458 821 l 342 821 "},"ņ":{"ha":814,"x_min":0,"x_max":0,"o":"m 556 468 b 427 604 556 555 509 604 b 258 404 315 604 258 538 l 258 0 l 114 0 l 114 719 l 244 719 l 256 589 l 271 589 b 461 732 279 685 340 732 b 700 468 613 732 700 636 l 700 0 l 556 0 m 334 -95 l 484 -95 l 405 -326 l 281 -326 "},"ŋ":{"ha":814,"x_min":0,"x_max":0,"o":"m 308 -198 l 396 -186 b 556 42 508 -172 556 -106 l 556 468 b 427 610 556 559 509 610 b 258 404 315 610 258 543 l 258 0 l 114 0 l 114 719 l 244 719 l 256 589 l 271 589 b 461 732 279 685 340 732 b 700 468 613 732 700 636 l 700 64 b 382 -317 700 -193 604 -297 l 315 -326 "},"ɲ":{"ha":814,"x_min":0,"x_max":0,"o":"m 556 468 b 427 610 556 559 509 610 b 258 404 315 610 258 543 l 258 64 b -60 -317 258 -193 163 -304 l -71 -318 l -78 -191 l -46 -186 b 114 42 66 -169 114 -106 l 114 719 l 244 719 l 256 589 l 271 589 b 461 732 279 685 340 732 b 700 468 613 732 700 636 l 700 0 l 556 0 "},"ṉ":{"ha":814,"x_min":0,"x_max":0,"o":"m 556 468 b 427 604 556 555 509 604 b 258 404 315 604 258 538 l 258 0 l 114 0 l 114 719 l 244 719 l 256 589 l 271 589 b 461 732 279 685 340 732 b 700 468 613 732 700 636 l 700 0 l 556 0 m 115 -141 l 699 -141 l 699 -269 l 115 -269 "},"ñ":{"ha":814,"x_min":0,"x_max":0,"o":"m 556 468 b 427 604 556 555 509 604 b 258 404 315 604 258 538 l 258 0 l 114 0 l 114 719 l 244 719 l 256 589 l 271 589 b 461 732 279 685 340 732 b 700 468 613 732 700 636 l 700 0 l 556 0 m 163 879 b 305 1048 163 992 210 1048 b 406 1019 341 1048 371 1036 b 505 981 450 996 482 981 b 541 1024 529 981 541 995 l 541 1085 l 658 1085 l 658 1031 b 530 868 658 922 615 868 b 420 902 505 868 467 878 b 331 936 390 917 359 936 b 281 886 298 936 281 920 l 281 852 l 163 852 "},"o":{"ha":814,"x_min":0,"x_max":0,"o":"m 407 -14 b 92 359 208 -14 92 122 b 407 732 92 597 208 732 b 722 359 606 732 722 597 b 407 -14 722 122 606 -14 m 407 115 b 572 359 513 115 572 203 b 407 604 572 515 513 604 b 241 359 301 604 241 515 b 407 115 241 203 301 115 "},"ó":{"ha":814,"x_min":0,"x_max":0,"o":"m 407 -14 b 92 359 208 -14 92 122 b 407 732 92 597 208 732 b 722 359 606 732 722 597 b 407 -14 722 122 606 -14 m 407 115 b 572 359 513 115 572 203 b 407 604 572 515 513 604 b 241 359 301 604 241 515 b 407 115 241 203 301 115 m 454 1104 l 597 1104 l 469 846 l 338 846 "},"ŏ":{"ha":814,"x_min":0,"x_max":0,"o":"m 407 -14 b 92 359 208 -14 92 122 b 407 732 92 597 208 732 b 722 359 606 732 722 597 b 407 -14 722 122 606 -14 m 407 115 b 572 359 513 115 572 203 b 407 604 572 515 513 604 b 241 359 301 604 241 515 b 407 115 241 203 301 115 m 407 840 b 170 1058 256 840 170 919 l 170 1087 l 289 1087 l 289 1058 b 407 932 289 977 331 932 b 525 1058 483 932 525 977 l 525 1087 l 644 1087 l 644 1058 b 407 840 644 919 557 840 "},"ô":{"ha":814,"x_min":0,"x_max":0,"o":"m 407 -14 b 92 359 208 -14 92 122 b 407 732 92 597 208 732 b 722 359 606 732 722 597 b 407 -14 722 122 606 -14 m 407 115 b 572 359 513 115 572 203 b 407 604 572 515 513 604 b 241 359 301 604 241 515 b 407 115 241 203 301 115 m 349 1104 l 465 1104 l 628 846 l 484 846 l 407 1000 l 330 846 l 186 846 "},"ố":{"ha":814,"x_min":0,"x_max":0,"o":"m 407 -14 b 92 359 208 -14 92 122 b 407 732 92 597 208 732 b 722 359 606 732 722 597 b 407 -14 722 122 606 -14 m 407 115 b 572 359 513 115 572 203 b 407 604 572 515 513 604 b 241 359 301 604 241 515 b 407 115 241 203 301 115 m 349 1104 l 465 1104 l 628 846 l 484 846 l 407 1000 l 330 846 l 186 846 m 696 1335 l 840 1335 l 711 1077 l 581 1077 "},"ộ":{"ha":814,"x_min":0,"x_max":0,"o":"m 407 -14 b 92 359 208 -14 92 122 b 407 732 92 597 208 732 b 722 359 606 732 722 597 b 407 -14 722 122 606 -14 m 407 115 b 572 359 513 115 572 203 b 407 604 572 515 513 604 b 241 359 301 604 241 515 b 407 115 241 203 301 115 m 349 1104 l 465 1104 l 628 846 l 484 846 l 407 1000 l 330 846 l 186 846 m 407 -285 b 316 -194 357 -285 316 -244 b 407 -103 316 -143 357 -103 b 498 -194 457 -103 498 -143 b 407 -285 498 -244 457 -285 "},"ồ":{"ha":814,"x_min":0,"x_max":0,"o":"m 407 -14 b 92 359 208 -14 92 122 b 407 732 92 597 208 732 b 722 359 606 732 722 597 b 407 -14 722 122 606 -14 m 407 115 b 572 359 513 115 572 203 b 407 604 572 515 513 604 b 241 359 301 604 241 515 b 407 115 241 203 301 115 m 349 1104 l 465 1104 l 628 846 l 484 846 l 407 1000 l 330 846 l 186 846 m 469 1335 l 612 1335 l 728 1077 l 597 1077 "},"ổ":{"ha":814,"x_min":0,"x_max":0,"o":"m 407 -14 b 92 359 208 -14 92 122 b 407 732 92 597 208 732 b 722 359 606 732 722 597 b 407 -14 722 122 606 -14 m 407 115 b 572 359 513 115 572 203 b 407 604 572 515 513 604 b 241 359 301 604 241 515 b 407 115 241 203 301 115 m 349 1104 l 465 1104 l 628 846 l 484 846 l 407 1000 l 330 846 l 186 846 m 596 1101 b 669 1238 596 1173 669 1192 b 627 1276 669 1261 652 1276 b 543 1246 597 1276 564 1264 l 497 1327 b 641 1378 525 1358 582 1378 b 781 1247 726 1378 781 1326 b 701 1083 781 1161 701 1154 l 701 1077 l 596 1077 "},"ỗ":{"ha":814,"x_min":0,"x_max":0,"o":"m 407 -14 b 92 359 208 -14 92 122 b 407 732 92 597 208 732 b 722 359 606 732 722 597 b 407 -14 722 122 606 -14 m 407 115 b 572 359 513 115 572 203 b 407 604 572 515 513 604 b 241 359 301 604 241 515 b 407 115 241 203 301 115 m 170 1232 b 312 1401 170 1345 217 1401 b 412 1371 348 1401 378 1388 b 511 1333 457 1349 489 1333 b 548 1377 536 1333 548 1348 l 548 1438 l 665 1438 l 665 1383 b 537 1221 665 1275 622 1221 b 427 1255 511 1221 474 1231 b 338 1289 397 1270 366 1289 b 288 1238 304 1289 288 1272 l 288 1204 l 170 1204 m 349 1104 l 465 1104 l 628 846 l 484 846 l 407 1000 l 330 846 l 186 846 "},"ö":{"ha":814,"x_min":0,"x_max":0,"o":"m 407 -14 b 92 359 208 -14 92 122 b 407 732 92 597 208 732 b 722 359 606 732 722 597 b 407 -14 722 122 606 -14 m 407 115 b 572 359 513 115 572 203 b 407 604 572 515 513 604 b 241 359 301 604 241 515 b 407 115 241 203 301 115 m 266 840 b 175 930 216 840 175 880 b 266 1021 175 981 216 1021 b 357 930 316 1021 357 981 b 266 840 357 880 316 840 m 551 840 b 460 930 500 840 460 880 b 551 1021 460 981 500 1021 b 642 930 601 1021 642 981 b 551 840 642 880 601 840 "},"ọ":{"ha":814,"x_min":0,"x_max":0,"o":"m 407 -14 b 92 359 208 -14 92 122 b 407 732 92 597 208 732 b 722 359 606 732 722 597 b 407 -14 722 122 606 -14 m 407 115 b 572 359 513 115 572 203 b 407 604 572 515 513 604 b 241 359 301 604 241 515 b 407 115 241 203 301 115 m 407 -285 b 316 -194 357 -285 316 -244 b 407 -103 316 -143 357 -103 b 498 -194 457 -103 498 -143 b 407 -285 498 -244 457 -285 "},"ò":{"ha":814,"x_min":0,"x_max":0,"o":"m 407 -14 b 92 359 208 -14 92 122 b 407 732 92 597 208 732 b 722 359 606 732 722 597 b 407 -14 722 122 606 -14 m 407 115 b 572 359 513 115 572 203 b 407 604 572 515 513 604 b 241 359 301 604 241 515 b 407 115 241 203 301 115 m 227 1104 l 370 1104 l 486 846 l 355 846 "},"ỏ":{"ha":814,"x_min":0,"x_max":0,"o":"m 407 -14 b 92 359 208 -14 92 122 b 407 732 92 597 208 732 b 722 359 606 732 722 597 b 407 -14 722 122 606 -14 m 407 115 b 572 359 513 115 572 203 b 407 604 572 515 513 604 b 241 359 301 604 241 515 b 407 115 241 203 301 115 m 354 871 b 427 1007 354 942 427 962 b 385 1045 427 1030 410 1045 b 300 1016 355 1045 321 1034 l 255 1097 b 399 1147 283 1127 340 1147 b 539 1017 484 1147 539 1095 b 459 852 539 930 459 923 l 459 846 l 354 846 "},"ơ":{"ha":814,"x_min":0,"x_max":0,"o":"m 407 -14 b 92 359 208 -14 92 122 b 407 732 92 597 208 732 b 503 720 441 732 473 728 l 534 726 b 661 911 619 740 661 803 l 804 911 b 641 633 804 767 749 675 b 722 359 693 570 722 477 b 407 -14 722 122 606 -14 m 407 115 b 572 359 513 115 572 203 b 407 604 572 515 513 604 b 241 359 301 604 241 515 b 407 115 241 203 301 115 "},"ớ":{"ha":814,"x_min":0,"x_max":0,"o":"m 407 -14 b 92 359 208 -14 92 122 b 407 732 92 597 208 732 b 503 720 441 732 473 728 l 534 726 b 661 911 619 740 661 803 l 804 911 b 641 633 804 767 749 675 b 722 359 693 570 722 477 b 407 -14 722 122 606 -14 m 407 115 b 572 359 513 115 572 203 b 407 604 572 515 513 604 b 241 359 301 604 241 515 b 407 115 241 203 301 115 m 454 1104 l 597 1104 l 469 846 l 338 846 "},"ợ":{"ha":814,"x_min":0,"x_max":0,"o":"m 407 -14 b 92 359 208 -14 92 122 b 407 732 92 597 208 732 b 503 720 441 732 473 728 l 534 726 b 661 911 619 740 661 803 l 804 911 b 641 633 804 767 749 675 b 722 359 693 570 722 477 b 407 -14 722 122 606 -14 m 407 115 b 572 359 513 115 572 203 b 407 604 572 515 513 604 b 241 359 301 604 241 515 b 407 115 241 203 301 115 m 407 -285 b 316 -194 357 -285 316 -244 b 407 -103 316 -143 357 -103 b 498 -194 457 -103 498 -143 b 407 -285 498 -244 457 -285 "},"ờ":{"ha":814,"x_min":0,"x_max":0,"o":"m 407 -14 b 92 359 208 -14 92 122 b 407 732 92 597 208 732 b 503 720 441 732 473 728 l 534 726 b 661 911 619 740 661 803 l 804 911 b 641 633 804 767 749 675 b 722 359 693 570 722 477 b 407 -14 722 122 606 -14 m 407 115 b 572 359 513 115 572 203 b 407 604 572 515 513 604 b 241 359 301 604 241 515 b 407 115 241 203 301 115 m 227 1104 l 370 1104 l 486 846 l 355 846 "},"ở":{"ha":814,"x_min":0,"x_max":0,"o":"m 407 -14 b 92 359 208 -14 92 122 b 407 732 92 597 208 732 b 503 720 441 732 473 728 l 534 726 b 661 911 619 740 661 803 l 804 911 b 641 633 804 767 749 675 b 722 359 693 570 722 477 b 407 -14 722 122 606 -14 m 407 115 b 572 359 513 115 572 203 b 407 604 572 515 513 604 b 241 359 301 604 241 515 b 407 115 241 203 301 115 m 354 871 b 427 1007 354 942 427 962 b 385 1045 427 1030 410 1045 b 300 1016 355 1045 321 1034 l 255 1097 b 399 1147 283 1127 340 1147 b 539 1017 484 1147 539 1095 b 459 852 539 930 459 923 l 459 846 l 354 846 "},"ỡ":{"ha":814,"x_min":0,"x_max":0,"o":"m 407 -14 b 92 359 208 -14 92 122 b 407 732 92 597 208 732 b 503 720 441 732 473 728 l 534 726 b 661 911 619 740 661 803 l 804 911 b 641 633 804 767 749 675 b 722 359 693 570 722 477 b 407 -14 722 122 606 -14 m 407 115 b 572 359 513 115 572 203 b 407 604 572 515 513 604 b 241 359 301 604 241 515 b 407 115 241 203 301 115 m 170 879 b 312 1048 170 992 217 1048 b 412 1019 348 1048 378 1036 b 511 981 457 996 489 981 b 548 1024 536 981 548 995 l 548 1085 l 665 1085 l 665 1031 b 537 868 665 922 622 868 b 427 902 511 868 474 878 b 338 936 397 917 366 936 b 288 886 304 936 288 920 l 288 852 l 170 852 "},"ő":{"ha":814,"x_min":0,"x_max":0,"o":"m 407 -14 b 92 359 208 -14 92 122 b 407 732 92 597 208 732 b 722 359 606 732 722 597 b 407 -14 722 122 606 -14 m 407 115 b 572 359 513 115 572 203 b 407 604 572 515 513 604 b 241 359 301 604 241 515 b 407 115 241 203 301 115 m 298 1104 l 448 1104 l 333 846 l 196 846 m 555 1104 l 706 1104 l 591 846 l 454 846 "},"ō":{"ha":814,"x_min":0,"x_max":0,"o":"m 407 -14 b 92 359 208 -14 92 122 b 407 732 92 597 208 732 b 722 359 606 732 722 597 b 407 -14 722 122 606 -14 m 407 115 b 572 359 513 115 572 203 b 407 604 572 515 513 604 b 241 359 301 604 241 515 b 407 115 241 203 301 115 m 115 974 l 699 974 l 699 846 l 115 846 "},"ṓ":{"ha":814,"x_min":0,"x_max":0,"o":"m 407 -14 b 92 359 208 -14 92 122 b 407 732 92 597 208 732 b 722 359 606 732 722 597 b 407 -14 722 122 606 -14 m 407 115 b 572 359 513 115 572 203 b 407 604 572 515 513 604 b 241 359 301 604 241 515 b 407 115 241 203 301 115 m 115 974 l 699 974 l 699 846 l 115 846 m 454 1335 l 597 1335 l 469 1077 l 338 1077 "},"ṑ":{"ha":814,"x_min":0,"x_max":0,"o":"m 407 -14 b 92 359 208 -14 92 122 b 407 732 92 597 208 732 b 722 359 606 732 722 597 b 407 -14 722 122 606 -14 m 407 115 b 572 359 513 115 572 203 b 407 604 572 515 513 604 b 241 359 301 604 241 515 b 407 115 241 203 301 115 m 115 974 l 699 974 l 699 846 l 115 846 m 227 1335 l 370 1335 l 486 1077 l 355 1077 "},"ǫ":{"ha":814,"x_min":0,"x_max":0,"o":"m 454 -288 b 291 -157 350 -288 291 -240 b 368 -27 291 -91 319 -43 l 368 -12 b 92 359 193 5 92 138 b 407 732 92 597 208 732 b 722 359 606 732 722 597 b 525 5 722 174 651 50 b 393 -114 469 -16 393 -39 b 471 -174 393 -138 408 -174 b 527 -166 486 -174 505 -172 l 515 -281 b 454 -288 492 -286 471 -288 m 407 115 b 572 359 513 115 572 203 b 407 604 572 515 513 604 b 241 359 301 604 241 515 b 407 115 241 203 301 115 "},"ɔ":{"ha":814,"x_min":0,"x_max":0,"o":"m 357 -14 b 90 70 240 -14 143 23 l 160 178 b 362 115 205 144 279 115 b 579 351 499 115 579 201 b 321 604 579 515 486 604 b 144 576 260 604 213 596 l 122 701 b 338 732 192 724 249 732 b 722 358 583 732 722 600 b 357 -14 722 123 591 -14 "},"ø":{"ha":814,"x_min":0,"x_max":0,"o":"m 133 -40 l 192 66 b 92 359 127 129 92 229 b 407 732 92 597 208 732 b 547 705 460 732 507 723 l 608 812 l 686 768 l 621 654 b 722 359 686 591 722 490 b 407 -14 722 122 606 -14 b 264 16 353 -14 305 -3 l 204 -91 m 407 115 b 572 359 513 115 572 203 b 544 515 572 423 562 475 l 330 135 b 407 115 353 122 378 115 m 481 585 b 407 604 460 597 435 604 b 241 359 301 604 241 515 b 269 205 241 296 251 245 "},"ǿ":{"ha":814,"x_min":0,"x_max":0,"o":"m 133 -40 l 192 66 b 92 359 127 129 92 229 b 407 732 92 597 208 732 b 547 705 460 732 507 723 l 608 812 l 686 768 l 621 654 b 722 359 686 591 722 490 b 407 -14 722 122 606 -14 b 264 16 353 -14 305 -3 l 204 -91 m 407 115 b 572 359 513 115 572 203 b 544 515 572 423 562 475 l 330 135 b 407 115 353 122 378 115 m 481 585 b 407 604 460 597 435 604 b 241 359 301 604 241 515 b 269 205 241 296 251 245 m 454 1104 l 597 1104 l 469 846 l 338 846 "},"õ":{"ha":814,"x_min":0,"x_max":0,"o":"m 407 -14 b 92 359 208 -14 92 122 b 407 732 92 597 208 732 b 722 359 606 732 722 597 b 407 -14 722 122 606 -14 m 407 115 b 572 359 513 115 572 203 b 407 604 572 515 513 604 b 241 359 301 604 241 515 b 407 115 241 203 301 115 m 170 879 b 312 1048 170 992 217 1048 b 412 1019 348 1048 378 1036 b 511 981 457 996 489 981 b 548 1024 536 981 548 995 l 548 1085 l 665 1085 l 665 1031 b 537 868 665 922 622 868 b 427 902 511 868 474 878 b 338 936 397 917 366 936 b 288 886 304 936 288 920 l 288 852 l 170 852 "},"œ":{"ha":814,"x_min":0,"x_max":0,"o":"m 247 -14 b 14 359 91 -14 14 110 b 247 732 14 609 91 732 b 418 605 328 732 385 690 b 589 732 454 688 512 732 b 796 388 721 732 796 607 b 792 296 796 357 795 323 l 481 296 b 669 106 499 174 566 106 b 750 115 694 106 724 109 l 768 -1 b 652 -14 732 -9 690 -14 b 423 127 547 -14 469 36 b 247 -14 391 33 332 -14 m 247 115 b 345 359 313 115 345 196 b 247 604 345 523 313 604 b 137 359 173 604 137 523 b 247 115 137 196 173 115 m 673 399 b 574 606 673 545 644 606 b 477 399 510 606 480 544 "},"p":{"ha":814,"x_min":0,"x_max":0,"o":"m 114 719 l 244 719 l 256 589 l 264 589 b 462 732 277 679 350 732 b 749 353 650 732 749 602 b 462 -14 749 112 650 -14 b 271 130 351 -14 280 40 l 258 130 l 258 -312 l 114 -312 m 258 335 b 430 109 258 186 317 109 b 606 353 546 109 606 192 b 430 610 606 522 546 610 b 258 384 317 610 258 532 l 258 335 "},"þ":{"ha":814,"x_min":0,"x_max":0,"o":"m 114 1017 l 258 1017 l 258 589 l 271 589 b 462 732 283 679 354 732 b 749 353 650 732 749 602 b 462 -14 749 112 650 -14 b 271 130 351 -14 280 40 l 258 130 l 258 -312 l 114 -312 m 258 335 b 430 109 258 186 317 109 b 606 353 546 109 606 192 b 430 610 606 522 546 610 b 258 384 317 610 258 532 l 258 335 "},"q":{"ha":814,"x_min":0,"x_max":0,"o":"m 351 -14 b 65 353 170 -14 65 117 b 353 732 65 594 170 732 b 543 589 468 732 530 685 l 558 589 l 570 719 l 700 719 l 700 -312 l 556 -312 l 556 111 l 543 111 b 351 -14 533 28 460 -14 m 556 431 b 393 610 556 551 502 610 b 208 353 275 610 208 517 b 395 109 208 191 271 109 b 556 231 503 109 556 149 l 556 431 "},"r":{"ha":814,"x_min":0,"x_max":0,"o":"m 358 118 l 534 118 l 534 0 l 54 0 l 54 118 l 214 118 l 214 601 l 81 601 l 81 719 l 331 719 l 355 534 l 372 534 b 570 732 380 667 445 732 b 781 463 718 732 781 652 l 639 463 b 540 610 639 567 609 610 b 358 309 418 610 358 502 "},"ŕ":{"ha":814,"x_min":0,"x_max":0,"o":"m 358 118 l 534 118 l 534 0 l 54 0 l 54 118 l 214 118 l 214 601 l 81 601 l 81 719 l 331 719 l 355 534 l 372 534 b 570 732 380 667 445 732 b 781 463 718 732 781 652 l 639 463 b 540 610 639 567 609 610 b 358 309 418 610 358 502 m 454 1104 l 597 1104 l 469 846 l 338 846 "},"ř":{"ha":814,"x_min":0,"x_max":0,"o":"m 358 118 l 534 118 l 534 0 l 54 0 l 54 118 l 214 118 l 214 601 l 81 601 l 81 719 l 331 719 l 355 534 l 372 534 b 570 732 380 667 445 732 b 781 463 718 732 781 652 l 639 463 b 540 610 639 567 609 610 b 358 309 418 610 358 502 m 186 1078 l 330 1078 l 407 925 l 484 1078 l 628 1078 l 465 821 l 349 821 "},"ŗ":{"ha":814,"x_min":0,"x_max":0,"o":"m 358 118 l 534 118 l 534 0 l 54 0 l 54 118 l 214 118 l 214 601 l 81 601 l 81 719 l 331 719 l 355 534 l 372 534 b 570 732 380 667 445 732 b 781 463 718 732 781 652 l 639 463 b 540 610 639 567 609 610 b 358 309 418 610 358 502 m 218 -95 l 369 -95 l 290 -326 l 166 -326 "},"ṛ":{"ha":814,"x_min":0,"x_max":0,"o":"m 358 118 l 534 118 l 534 0 l 54 0 l 54 118 l 214 118 l 214 601 l 81 601 l 81 719 l 331 719 l 355 534 l 372 534 b 570 732 380 667 445 732 b 781 463 718 732 781 652 l 639 463 b 540 610 639 567 609 610 b 358 309 418 610 358 502 m 292 -285 b 201 -194 241 -285 201 -244 b 292 -103 201 -143 241 -103 b 382 -194 342 -103 382 -143 b 292 -285 382 -244 342 -285 "},"s":{"ha":814,"x_min":0,"x_max":0,"o":"m 351 -14 b 106 7 243 -14 170 -8 l 122 137 b 351 115 217 122 286 115 b 559 205 496 115 559 142 b 488 278 559 248 536 266 l 323 320 b 117 509 181 356 117 400 b 499 732 117 666 231 732 b 689 719 568 732 625 728 l 674 594 b 495 604 601 601 548 604 b 266 515 334 604 266 578 b 357 445 266 473 295 460 l 490 412 b 708 208 640 376 708 323 b 351 -14 708 53 601 -14 "},"ś":{"ha":814,"x_min":0,"x_max":0,"o":"m 351 -14 b 106 7 243 -14 170 -8 l 122 137 b 351 115 217 122 286 115 b 559 205 496 115 559 142 b 488 278 559 248 536 266 l 323 320 b 117 509 181 356 117 400 b 499 732 117 666 231 732 b 689 719 568 732 625 728 l 674 594 b 495 604 601 601 548 604 b 266 515 334 604 266 578 b 357 445 266 473 295 460 l 490 412 b 708 208 640 376 708 323 b 351 -14 708 53 601 -14 m 474 1104 l 618 1104 l 489 846 l 359 846 "},"š":{"ha":814,"x_min":0,"x_max":0,"o":"m 351 -14 b 106 7 243 -14 170 -8 l 122 137 b 351 115 217 122 286 115 b 559 205 496 115 559 142 b 488 278 559 248 536 266 l 323 320 b 117 509 181 356 117 400 b 499 732 117 666 231 732 b 689 719 568 732 625 728 l 674 594 b 495 604 601 601 548 604 b 266 515 334 604 266 578 b 357 445 266 473 295 460 l 490 412 b 708 208 640 376 708 323 b 351 -14 708 53 601 -14 m 206 1078 l 350 1078 l 427 925 l 505 1078 l 648 1078 l 486 821 l 369 821 "},"ş":{"ha":814,"x_min":0,"x_max":0,"o":"m 291 -224 b 418 -175 376 -224 418 -208 b 309 -129 418 -144 382 -129 l 349 -14 b 106 7 242 -14 169 -8 l 122 137 b 351 115 217 122 286 115 b 559 205 496 115 559 142 b 488 278 559 248 536 266 l 323 320 b 117 509 181 356 117 400 b 499 732 117 666 231 732 b 689 719 568 732 625 728 l 674 594 b 495 604 601 601 548 604 b 266 515 334 604 266 578 b 357 445 266 473 295 460 l 490 412 b 708 208 640 376 708 323 b 446 -9 708 74 628 6 l 431 -68 b 547 -181 509 -84 547 -121 b 291 -326 547 -277 463 -326 "},"ŝ":{"ha":814,"x_min":0,"x_max":0,"o":"m 351 -14 b 106 7 243 -14 170 -8 l 122 137 b 351 115 217 122 286 115 b 559 205 496 115 559 142 b 488 278 559 248 536 266 l 323 320 b 117 509 181 356 117 400 b 499 732 117 666 231 732 b 689 719 568 732 625 728 l 674 594 b 495 604 601 601 548 604 b 266 515 334 604 266 578 b 357 445 266 473 295 460 l 490 412 b 708 208 640 376 708 323 b 351 -14 708 53 601 -14 m 369 1104 l 486 1104 l 648 846 l 505 846 l 427 1000 l 350 846 l 206 846 "},"ș":{"ha":814,"x_min":0,"x_max":0,"o":"m 351 -14 b 106 7 243 -14 170 -8 l 122 137 b 351 115 217 122 286 115 b 559 205 496 115 559 142 b 488 278 559 248 536 266 l 323 320 b 117 509 181 356 117 400 b 499 732 117 666 231 732 b 689 719 568 732 625 728 l 674 594 b 495 604 601 601 548 604 b 266 515 334 604 266 578 b 357 445 266 473 295 460 l 490 412 b 708 208 640 376 708 323 b 351 -14 708 53 601 -14 m 327 -95 l 477 -95 l 398 -326 l 275 -326 "},"ṣ":{"ha":814,"x_min":0,"x_max":0,"o":"m 351 -14 b 106 7 243 -14 170 -8 l 122 137 b 351 115 217 122 286 115 b 559 205 496 115 559 142 b 488 278 559 248 536 266 l 323 320 b 117 509 181 356 117 400 b 499 732 117 666 231 732 b 689 719 568 732 625 728 l 674 594 b 495 604 601 601 548 604 b 266 515 334 604 266 578 b 357 445 266 473 295 460 l 490 412 b 708 208 640 376 708 323 b 351 -14 708 53 601 -14 m 400 -285 b 309 -194 350 -285 309 -244 b 400 -103 309 -143 350 -103 b 491 -194 450 -103 491 -143 b 400 -285 491 -244 450 -285 "},"ß":{"ha":814,"x_min":0,"x_max":0,"o":"m 555 -14 b 384 7 483 -14 428 -6 l 400 137 b 555 115 466 123 515 115 b 640 191 609 115 640 143 b 557 332 640 257 602 296 b 442 522 503 379 442 425 b 493 672 442 585 471 630 b 549 821 519 712 549 755 b 453 902 549 871 514 901 b 294 732 352 902 294 840 l 294 0 l 151 0 l 151 437 l 46 437 l 46 556 l 151 556 l 151 726 b 457 1031 151 920 262 1031 b 698 821 610 1031 698 954 b 629 642 698 725 661 688 b 591 529 612 609 591 581 b 665 406 591 485 626 448 b 789 194 723 352 789 290 b 555 -14 789 62 704 -14 "},"ſ":{"ha":814,"x_min":0,"x_max":0,"o":"m 313 437 l 46 437 l 46 556 l 313 556 l 313 658 b 633 1031 313 907 419 1031 b 789 1010 690 1031 737 1025 l 761 886 b 629 902 707 897 668 902 b 457 665 514 902 457 823 l 457 0 l 313 0 "},"t":{"ha":814,"x_min":0,"x_max":0,"o":"m 537 -14 b 228 271 319 -14 228 72 l 228 601 l 47 601 l 47 719 l 228 719 l 228 936 l 372 936 l 372 719 l 699 719 l 699 601 l 372 601 l 372 278 b 551 115 372 164 423 115 b 709 129 595 115 644 121 l 726 3 b 537 -14 662 -8 605 -14 "},"ŧ":{"ha":814,"x_min":0,"x_max":0,"o":"m 47 454 l 228 454 l 228 601 l 47 601 l 47 719 l 228 719 l 228 936 l 372 936 l 372 719 l 699 719 l 699 601 l 372 601 l 372 454 l 699 454 l 699 336 l 372 336 l 372 278 b 551 115 372 164 423 115 b 709 129 595 115 644 121 l 726 3 b 537 -14 662 -8 605 -14 b 228 271 319 -14 228 72 l 228 336 l 47 336 "},"ť":{"ha":814,"x_min":0,"x_max":0,"o":"m 537 -14 b 228 271 319 -14 228 72 l 228 601 l 47 601 l 47 719 l 228 719 l 228 936 l 372 936 l 372 719 l 699 719 l 699 601 l 372 601 l 372 278 b 551 115 372 164 423 115 b 709 129 595 115 644 121 l 726 3 b 537 -14 662 -8 605 -14 m 517 1090 l 661 1090 l 600 833 l 483 833 "},"ţ":{"ha":814,"x_min":0,"x_max":0,"o":"m 537 -14 b 496 -12 523 -14 509 -13 l 481 -68 b 598 -181 559 -84 598 -121 b 342 -326 598 -277 513 -326 l 342 -224 b 469 -175 427 -224 469 -208 b 359 -129 469 -144 433 -129 l 405 1 b 228 271 281 33 228 118 l 228 601 l 47 601 l 47 719 l 228 719 l 228 936 l 372 936 l 372 719 l 699 719 l 699 601 l 372 601 l 372 278 b 551 115 372 164 423 115 b 709 129 595 115 644 121 l 726 3 b 537 -14 662 -8 605 -14 "},"ț":{"ha":814,"x_min":0,"x_max":0,"o":"m 537 -14 b 228 271 319 -14 228 72 l 228 601 l 47 601 l 47 719 l 228 719 l 228 936 l 372 936 l 372 719 l 699 719 l 699 601 l 372 601 l 372 278 b 551 115 372 164 423 115 b 709 129 595 115 644 121 l 726 3 b 537 -14 662 -8 605 -14 m 378 -95 l 528 -95 l 449 -326 l 326 -326 "},"ʧ":{"ha":814,"x_min":0,"x_max":0,"o":"m 347 -14 b 133 190 197 -14 133 47 l 133 601 l 7 601 l 7 719 l 133 719 l 133 936 l 277 936 l 277 719 l 517 719 b 742 977 517 891 591 977 b 837 966 774 977 809 973 l 822 842 b 765 848 804 846 783 848 b 661 726 699 848 661 803 l 661 9 b 323 -319 661 -205 559 -303 l 263 -323 l 256 -196 l 336 -188 b 517 -12 463 -175 517 -123 l 517 601 l 277 601 l 277 197 b 361 115 277 140 302 115 b 418 122 377 115 395 118 l 434 -4 b 347 -14 405 -10 378 -14 "},"u":{"ha":814,"x_min":0,"x_max":0,"o":"m 336 -14 b 99 244 185 -14 99 80 l 99 719 l 243 719 l 243 244 b 377 115 243 161 292 115 b 536 332 481 115 536 176 l 536 719 l 680 719 l 680 130 l 779 115 l 779 0 l 548 -7 l 538 138 l 525 138 b 336 -14 502 41 433 -14 "},"ú":{"ha":814,"x_min":0,"x_max":0,"o":"m 336 -14 b 99 244 185 -14 99 80 l 99 719 l 243 719 l 243 244 b 377 115 243 161 292 115 b 536 332 481 115 536 176 l 536 719 l 680 719 l 680 130 l 779 115 l 779 0 l 548 -7 l 538 138 l 525 138 b 336 -14 502 41 433 -14 m 440 1104 l 584 1104 l 455 846 l 325 846 "},"ŭ":{"ha":814,"x_min":0,"x_max":0,"o":"m 336 -14 b 99 244 185 -14 99 80 l 99 719 l 243 719 l 243 244 b 377 115 243 161 292 115 b 536 332 481 115 536 176 l 536 719 l 680 719 l 680 130 l 779 115 l 779 0 l 548 -7 l 538 138 l 525 138 b 336 -14 502 41 433 -14 m 393 840 b 157 1058 243 840 157 919 l 157 1087 l 275 1087 l 275 1058 b 393 932 275 977 317 932 b 511 1058 469 932 511 977 l 511 1087 l 630 1087 l 630 1058 b 393 840 630 919 544 840 "},"û":{"ha":814,"x_min":0,"x_max":0,"o":"m 336 -14 b 99 244 185 -14 99 80 l 99 719 l 243 719 l 243 244 b 377 115 243 161 292 115 b 536 332 481 115 536 176 l 536 719 l 680 719 l 680 130 l 779 115 l 779 0 l 548 -7 l 538 138 l 525 138 b 336 -14 502 41 433 -14 m 335 1104 l 452 1104 l 614 846 l 471 846 l 393 1000 l 316 846 l 172 846 "},"ü":{"ha":814,"x_min":0,"x_max":0,"o":"m 336 -14 b 99 244 185 -14 99 80 l 99 719 l 243 719 l 243 244 b 377 115 243 161 292 115 b 536 332 481 115 536 176 l 536 719 l 680 719 l 680 130 l 779 115 l 779 0 l 548 -7 l 538 138 l 525 138 b 336 -14 502 41 433 -14 m 252 840 b 161 930 202 840 161 880 b 252 1021 161 981 202 1021 b 343 930 302 1021 343 981 b 252 840 343 880 302 840 m 537 840 b 446 930 487 840 446 880 b 537 1021 446 981 487 1021 b 628 930 587 1021 628 981 b 537 840 628 880 587 840 "},"ụ":{"ha":814,"x_min":0,"x_max":0,"o":"m 336 -14 b 99 244 185 -14 99 80 l 99 719 l 243 719 l 243 244 b 377 115 243 161 292 115 b 536 332 481 115 536 176 l 536 719 l 680 719 l 680 130 l 779 115 l 779 0 l 548 -7 l 538 138 l 525 138 b 336 -14 502 41 433 -14 m 380 -285 b 289 -194 330 -285 289 -244 b 380 -103 289 -143 330 -103 b 471 -194 430 -103 471 -143 b 380 -285 471 -244 430 -285 "},"ù":{"ha":814,"x_min":0,"x_max":0,"o":"m 336 -14 b 99 244 185 -14 99 80 l 99 719 l 243 719 l 243 244 b 377 115 243 161 292 115 b 536 332 481 115 536 176 l 536 719 l 680 719 l 680 130 l 779 115 l 779 0 l 548 -7 l 538 138 l 525 138 b 336 -14 502 41 433 -14 m 213 1104 l 357 1104 l 472 846 l 342 846 "},"ủ":{"ha":814,"x_min":0,"x_max":0,"o":"m 336 -14 b 99 244 185 -14 99 80 l 99 719 l 243 719 l 243 244 b 377 115 243 161 292 115 b 536 332 481 115 536 176 l 536 719 l 680 719 l 680 130 l 779 115 l 779 0 l 548 -7 l 538 138 l 525 138 b 336 -14 502 41 433 -14 m 340 871 b 413 1007 340 942 413 962 b 371 1045 413 1030 396 1045 b 287 1016 341 1045 308 1034 l 241 1097 b 385 1147 269 1127 326 1147 b 526 1017 470 1147 526 1095 b 446 852 526 930 446 923 l 446 846 l 340 846 "},"ư":{"ha":814,"x_min":0,"x_max":0,"o":"m 336 -14 b 99 244 185 -14 99 80 l 99 719 l 243 719 l 243 244 b 377 115 243 161 292 115 b 536 332 481 115 536 176 l 536 719 l 536 719 l 564 726 b 684 911 648 747 684 802 l 833 911 b 680 642 833 775 786 691 l 680 130 l 779 115 l 779 0 l 548 -7 l 538 138 l 525 138 b 336 -14 502 41 433 -14 "},"ứ":{"ha":814,"x_min":0,"x_max":0,"o":"m 336 -14 b 99 244 185 -14 99 80 l 99 719 l 243 719 l 243 244 b 377 115 243 161 292 115 b 536 332 481 115 536 176 l 536 719 l 536 719 l 564 726 b 684 911 648 747 684 802 l 833 911 b 680 642 833 775 786 691 l 680 130 l 779 115 l 779 0 l 548 -7 l 538 138 l 525 138 b 336 -14 502 41 433 -14 m 440 1104 l 584 1104 l 455 846 l 325 846 "},"ự":{"ha":814,"x_min":0,"x_max":0,"o":"m 336 -14 b 99 244 185 -14 99 80 l 99 719 l 243 719 l 243 244 b 377 115 243 161 292 115 b 536 332 481 115 536 176 l 536 719 l 536 719 l 564 726 b 684 911 648 747 684 802 l 833 911 b 680 642 833 775 786 691 l 680 130 l 779 115 l 779 0 l 548 -7 l 538 138 l 525 138 b 336 -14 502 41 433 -14 m 380 -285 b 289 -194 330 -285 289 -244 b 380 -103 289 -143 330 -103 b 471 -194 430 -103 471 -143 b 380 -285 471 -244 430 -285 "},"ừ":{"ha":814,"x_min":0,"x_max":0,"o":"m 336 -14 b 99 244 185 -14 99 80 l 99 719 l 243 719 l 243 244 b 377 115 243 161 292 115 b 536 332 481 115 536 176 l 536 719 l 536 719 l 564 726 b 684 911 648 747 684 802 l 833 911 b 680 642 833 775 786 691 l 680 130 l 779 115 l 779 0 l 548 -7 l 538 138 l 525 138 b 336 -14 502 41 433 -14 m 213 1104 l 357 1104 l 472 846 l 342 846 "},"ử":{"ha":814,"x_min":0,"x_max":0,"o":"m 336 -14 b 99 244 185 -14 99 80 l 99 719 l 243 719 l 243 244 b 377 115 243 161 292 115 b 536 332 481 115 536 176 l 536 719 l 536 719 l 564 726 b 684 911 648 747 684 802 l 833 911 b 680 642 833 775 786 691 l 680 130 l 779 115 l 779 0 l 548 -7 l 538 138 l 525 138 b 336 -14 502 41 433 -14 m 340 871 b 413 1007 340 942 413 962 b 371 1045 413 1030 396 1045 b 287 1016 341 1045 308 1034 l 241 1097 b 385 1147 269 1127 326 1147 b 526 1017 470 1147 526 1095 b 446 852 526 930 446 923 l 446 846 l 340 846 "},"ữ":{"ha":814,"x_min":0,"x_max":0,"o":"m 336 -14 b 99 244 185 -14 99 80 l 99 719 l 243 719 l 243 244 b 377 115 243 161 292 115 b 536 332 481 115 536 176 l 536 719 l 536 719 l 564 726 b 684 911 648 747 684 802 l 833 911 b 680 642 833 775 786 691 l 680 130 l 779 115 l 779 0 l 548 -7 l 538 138 l 525 138 b 336 -14 502 41 433 -14 m 156 879 b 298 1048 156 992 203 1048 b 399 1019 334 1048 364 1036 b 498 981 444 996 475 981 b 534 1024 522 981 534 995 l 534 1085 l 651 1085 l 651 1031 b 524 868 651 922 608 868 b 413 902 498 868 460 878 b 324 936 383 917 353 936 b 274 886 291 936 274 920 l 274 852 l 156 852 "},"ű":{"ha":814,"x_min":0,"x_max":0,"o":"m 336 -14 b 99 244 185 -14 99 80 l 99 719 l 243 719 l 243 244 b 377 115 243 161 292 115 b 536 332 481 115 536 176 l 536 719 l 680 719 l 680 130 l 779 115 l 779 0 l 548 -7 l 538 138 l 525 138 b 336 -14 502 41 433 -14 m 284 1104 l 435 1104 l 319 846 l 182 846 m 542 1104 l 692 1104 l 577 846 l 440 846 "},"ū":{"ha":814,"x_min":0,"x_max":0,"o":"m 336 -14 b 99 244 185 -14 99 80 l 99 719 l 243 719 l 243 244 b 377 115 243 161 292 115 b 536 332 481 115 536 176 l 536 719 l 680 719 l 680 130 l 779 115 l 779 0 l 548 -7 l 538 138 l 525 138 b 336 -14 502 41 433 -14 m 102 974 l 685 974 l 685 846 l 102 846 "},"ų":{"ha":814,"x_min":0,"x_max":0,"o":"m 685 -288 b 522 -144 581 -288 522 -235 b 600 -24 522 -83 550 -39 l 600 -5 l 548 -7 l 538 138 l 525 138 b 336 -14 502 41 433 -14 b 99 244 185 -14 99 80 l 99 719 l 243 719 l 243 244 b 377 115 243 161 292 115 b 536 332 481 115 536 176 l 536 719 l 680 719 l 680 130 l 779 115 l 779 0 l 755 -1 b 624 -114 671 -6 624 -47 b 703 -174 624 -152 652 -174 b 758 -166 718 -174 738 -171 l 746 -281 b 685 -288 725 -286 703 -288 "},"ʊ":{"ha":814,"x_min":0,"x_max":0,"o":"m 359 718 l 359 599 b 214 355 268 576 214 486 b 407 119 214 206 286 119 b 600 355 528 119 600 206 b 471 599 600 487 551 578 l 471 718 l 743 718 l 743 599 l 593 599 l 593 583 b 749 304 691 545 749 441 b 407 -10 749 106 622 -10 b 65 304 192 -10 65 106 b 237 585 65 440 129 544 l 237 599 l 71 599 l 71 718 "},"ů":{"ha":814,"x_min":0,"x_max":0,"o":"m 336 -14 b 99 244 185 -14 99 80 l 99 719 l 243 719 l 243 244 b 377 115 243 161 292 115 b 536 332 481 115 536 176 l 536 719 l 680 719 l 680 130 l 779 115 l 779 0 l 548 -7 l 538 138 l 525 138 b 336 -14 502 41 433 -14 m 393 812 b 232 959 291 812 232 866 b 393 1105 232 1052 291 1105 b 555 959 496 1105 555 1052 b 393 812 555 866 496 812 m 393 891 b 458 959 435 891 458 916 b 393 1027 458 1002 435 1027 b 328 959 351 1027 328 1002 b 393 891 328 916 351 891 "},"ũ":{"ha":814,"x_min":0,"x_max":0,"o":"m 336 -14 b 99 244 185 -14 99 80 l 99 719 l 243 719 l 243 244 b 377 115 243 161 292 115 b 536 332 481 115 536 176 l 536 719 l 680 719 l 680 130 l 779 115 l 779 0 l 548 -7 l 538 138 l 525 138 b 336 -14 502 41 433 -14 m 156 879 b 298 1048 156 992 203 1048 b 399 1019 334 1048 364 1036 b 498 981 444 996 475 981 b 534 1024 522 981 534 995 l 534 1085 l 651 1085 l 651 1031 b 524 868 651 922 608 868 b 413 902 498 868 460 878 b 324 936 383 917 353 936 b 274 886 291 936 274 920 l 274 852 l 156 852 "},"v":{"ha":814,"x_min":0,"x_max":0,"o":"m 54 719 l 208 719 l 401 122 l 413 122 l 606 719 l 760 719 l 503 0 l 311 0 "},"ʋ":{"ha":814,"x_min":0,"x_max":0,"o":"m 407 -14 b 106 278 211 -14 108 86 l 106 719 l 250 719 l 250 278 b 407 115 250 171 304 115 b 564 278 510 115 564 171 l 564 495 b 488 590 564 565 544 590 l 442 590 l 442 719 l 515 719 b 708 529 657 719 707 669 l 708 278 b 407 -14 708 86 605 -14 "},"ʌ":{"ha":814,"x_min":0,"x_max":0,"o":"m 309 719 l 505 719 l 749 0 l 600 0 l 413 602 l 401 602 l 214 0 l 64 0 "},"w":{"ha":814,"x_min":0,"x_max":0,"o":"m 404 571 l 396 571 l 312 0 l 129 0 l 47 719 l 183 719 l 237 109 l 250 109 l 334 719 l 466 719 l 551 109 l 563 109 l 624 719 l 766 719 l 665 0 l 488 0 "},"ẃ":{"ha":814,"x_min":0,"x_max":0,"o":"m 404 571 l 396 571 l 312 0 l 129 0 l 47 719 l 183 719 l 237 109 l 250 109 l 334 719 l 466 719 l 551 109 l 563 109 l 624 719 l 766 719 l 665 0 l 488 0 m 447 1104 l 591 1104 l 462 846 l 332 846 "},"ŵ":{"ha":814,"x_min":0,"x_max":0,"o":"m 404 571 l 396 571 l 312 0 l 129 0 l 47 719 l 183 719 l 237 109 l 250 109 l 334 719 l 466 719 l 551 109 l 563 109 l 624 719 l 766 719 l 665 0 l 488 0 m 342 1104 l 458 1104 l 621 846 l 477 846 l 400 1000 l 323 846 l 179 846 "},"ẅ":{"ha":814,"x_min":0,"x_max":0,"o":"m 404 571 l 396 571 l 312 0 l 129 0 l 47 719 l 183 719 l 237 109 l 250 109 l 334 719 l 466 719 l 551 109 l 563 109 l 624 719 l 766 719 l 665 0 l 488 0 m 259 840 b 168 930 209 840 168 880 b 259 1021 168 981 209 1021 b 350 930 309 1021 350 981 b 259 840 350 880 309 840 m 544 840 b 453 930 494 840 453 880 b 544 1021 453 981 494 1021 b 635 930 594 1021 635 981 b 544 840 635 880 594 840 "},"ẁ":{"ha":814,"x_min":0,"x_max":0,"o":"m 404 571 l 396 571 l 312 0 l 129 0 l 47 719 l 183 719 l 237 109 l 250 109 l 334 719 l 466 719 l 551 109 l 563 109 l 624 719 l 766 719 l 665 0 l 488 0 m 220 1104 l 363 1104 l 479 846 l 349 846 "},"x":{"ha":814,"x_min":0,"x_max":0,"o":"m 329 355 l 72 719 l 235 719 l 407 467 l 579 719 l 742 719 l 481 361 l 742 0 l 579 0 l 404 250 l 235 0 l 72 0 "},"y":{"ha":814,"x_min":0,"x_max":0,"o":"m 44 -197 l 157 -183 b 393 0 271 -170 342 -119 l 323 0 l 37 719 l 186 719 l 421 109 l 431 109 l 607 719 l 756 719 l 549 64 b 173 -312 467 -194 366 -290 l 51 -326 "},"ý":{"ha":814,"x_min":0,"x_max":0,"o":"m 44 -197 l 157 -183 b 393 0 271 -170 342 -119 l 323 0 l 37 719 l 186 719 l 421 109 l 431 109 l 607 719 l 756 719 l 549 64 b 173 -312 467 -194 366 -290 l 51 -326 m 464 1104 l 608 1104 l 479 846 l 349 846 "},"ŷ":{"ha":814,"x_min":0,"x_max":0,"o":"m 44 -197 l 157 -183 b 393 0 271 -170 342 -119 l 323 0 l 37 719 l 186 719 l 421 109 l 431 109 l 607 719 l 756 719 l 549 64 b 173 -312 467 -194 366 -290 l 51 -326 m 359 1104 l 475 1104 l 638 846 l 494 846 l 417 1000 l 340 846 l 196 846 "},"ÿ":{"ha":814,"x_min":0,"x_max":0,"o":"m 44 -197 l 157 -183 b 393 0 271 -170 342 -119 l 323 0 l 37 719 l 186 719 l 421 109 l 431 109 l 607 719 l 756 719 l 549 64 b 173 -312 467 -194 366 -290 l 51 -326 m 276 840 b 185 930 226 840 185 880 b 276 1021 185 981 226 1021 b 367 930 326 1021 367 981 b 276 840 367 880 326 840 m 561 840 b 470 930 511 840 470 880 b 561 1021 470 981 511 1021 b 652 930 611 1021 652 981 b 561 840 652 880 611 840 "},"ỵ":{"ha":814,"x_min":0,"x_max":0,"o":"m 44 -197 l 157 -183 b 393 0 271 -170 342 -119 l 323 0 l 37 719 l 186 719 l 421 109 l 431 109 l 607 719 l 756 719 l 549 64 b 173 -312 467 -194 366 -290 l 51 -326 m 641 -285 b 550 -194 591 -285 550 -244 b 641 -103 550 -143 591 -103 b 732 -194 691 -103 732 -143 b 641 -285 732 -244 691 -285 "},"ỳ":{"ha":814,"x_min":0,"x_max":0,"o":"m 44 -197 l 157 -183 b 393 0 271 -170 342 -119 l 323 0 l 37 719 l 186 719 l 421 109 l 431 109 l 607 719 l 756 719 l 549 64 b 173 -312 467 -194 366 -290 l 51 -326 m 237 1104 l 380 1104 l 496 846 l 366 846 "},"ỷ":{"ha":814,"x_min":0,"x_max":0,"o":"m 44 -197 l 157 -183 b 393 0 271 -170 342 -119 l 323 0 l 37 719 l 186 719 l 421 109 l 431 109 l 607 719 l 756 719 l 549 64 b 173 -312 467 -194 366 -290 l 51 -326 m 364 871 b 437 1007 364 942 437 962 b 395 1045 437 1030 420 1045 b 311 1016 365 1045 332 1034 l 265 1097 b 409 1147 293 1127 350 1147 b 549 1017 494 1147 549 1095 b 469 852 549 930 469 923 l 469 846 l 364 846 "},"ȳ":{"ha":814,"x_min":0,"x_max":0,"o":"m 44 -197 l 157 -183 b 393 0 271 -170 342 -119 l 323 0 l 37 719 l 186 719 l 421 109 l 431 109 l 607 719 l 756 719 l 549 64 b 173 -312 467 -194 366 -290 l 51 -326 m 125 974 l 709 974 l 709 846 l 125 846 "},"ỹ":{"ha":814,"x_min":0,"x_max":0,"o":"m 44 -197 l 157 -183 b 393 0 271 -170 342 -119 l 323 0 l 37 719 l 186 719 l 421 109 l 431 109 l 607 719 l 756 719 l 549 64 b 173 -312 467 -194 366 -290 l 51 -326 m 180 879 b 322 1048 180 992 227 1048 b 422 1019 358 1048 388 1036 b 522 981 467 996 499 981 b 558 1024 546 981 558 995 l 558 1085 l 675 1085 l 675 1031 b 547 868 675 922 632 868 b 437 902 522 868 484 878 b 348 936 407 917 376 936 b 298 886 315 936 298 920 l 298 852 l 180 852 "},"z":{"ha":814,"x_min":0,"x_max":0,"o":"m 109 119 l 522 600 l 109 600 l 109 719 l 689 719 l 689 600 l 278 119 l 703 119 l 703 0 l 109 0 "},"ź":{"ha":814,"x_min":0,"x_max":0,"o":"m 109 119 l 522 600 l 109 600 l 109 719 l 689 719 l 689 600 l 278 119 l 703 119 l 703 0 l 109 0 m 454 1104 l 597 1104 l 469 846 l 338 846 "},"ž":{"ha":814,"x_min":0,"x_max":0,"o":"m 109 119 l 522 600 l 109 600 l 109 719 l 689 719 l 689 600 l 278 119 l 703 119 l 703 0 l 109 0 m 186 1078 l 330 1078 l 407 925 l 484 1078 l 628 1078 l 465 821 l 349 821 "},"ż":{"ha":814,"x_min":0,"x_max":0,"o":"m 109 119 l 522 600 l 109 600 l 109 719 l 689 719 l 689 600 l 278 119 l 703 119 l 703 0 l 109 0 m 406 840 b 315 930 355 840 315 880 b 406 1021 315 981 355 1021 b 496 930 456 1021 496 981 b 406 840 496 880 456 840 "},"ﬁ":{"ha":814,"x_min":0,"x_max":0,"o":"m 191 438 l 46 438 l 46 556 l 191 556 l 191 658 b 538 1031 191 907 306 1031 b 681 1017 590 1031 633 1027 l 666 892 b 534 902 612 899 573 902 b 335 665 401 902 335 823 l 335 556 l 700 556 l 700 0 l 556 0 l 556 438 l 335 438 l 335 0 l 191 0 "},"ﬂ":{"ha":814,"x_min":0,"x_max":0,"o":"m 191 438 l 46 438 l 46 556 l 191 556 l 191 658 b 552 1031 191 907 311 1031 b 722 1017 614 1031 665 1027 l 722 0 l 578 0 l 578 901 b 548 902 568 902 558 902 b 335 665 406 902 335 823 l 335 556 l 487 556 l 487 438 l 335 438 l 335 0 l 191 0 "},"ª":{"ha":814,"x_min":0,"x_max":0,"o":"m 464 620 l 447 620 b 302 524 424 557 389 524 b 155 655 210 524 155 572 b 349 802 155 749 225 802 b 452 795 389 802 422 800 l 452 799 b 333 878 452 849 412 878 l 208 878 l 215 977 l 325 976 b 564 786 488 975 564 909 l 564 617 l 637 608 l 637 532 l 468 528 m 452 715 b 351 718 418 718 385 718 b 274 667 300 718 274 701 b 332 616 274 634 294 616 b 452 705 412 616 452 663 l 452 715 "},"º":{"ha":814,"x_min":0,"x_max":0,"o":"m 407 522 b 175 749 267 522 175 612 b 407 977 175 886 267 977 b 639 749 547 977 639 886 b 407 522 639 612 547 522 m 407 624 b 513 749 471 624 513 674 b 407 875 513 825 471 875 b 300 749 342 875 300 825 b 407 624 300 674 342 624 "},"ⁿ":{"ha":814,"x_min":0,"x_max":0,"o":"m 488 801 b 410 886 488 858 462 886 b 328 789 355 886 328 854 l 328 536 l 201 536 l 201 968 l 320 968 l 327 890 l 336 890 b 444 977 340 945 380 977 b 614 818 551 977 614 918 l 614 536 l 488 536 "},"ʷ":{"ha":814,"x_min":0,"x_max":0,"o":"m 412 840 l 393 840 l 350 536 l 197 536 l 156 964 l 284 964 l 296 663 l 318 663 l 370 964 l 435 964 l 488 663 l 509 663 l 536 964 l 659 964 l 604 536 l 456 536 "},"ʸ":{"ha":814,"x_min":0,"x_max":0,"o":"m 189 454 l 231 454 b 385 536 294 454 349 477 l 322 536 l 171 964 l 303 964 l 412 641 l 425 641 l 524 964 l 656 964 l 526 574 b 241 342 479 435 406 342 l 189 342 "},"А":{"ha":814,"x_min":0,"x_max":0,"o":"m 309 963 l 505 963 l 783 0 l 641 0 l 578 235 l 236 235 l 173 0 l 31 0 m 543 363 l 413 846 l 401 846 l 271 363 "},"Б":{"ha":814,"x_min":0,"x_max":0,"o":"m 109 963 l 689 963 l 689 834 l 244 834 l 244 587 l 468 587 b 760 300 653 587 760 483 b 468 0 760 109 653 0 l 109 0 m 449 129 b 617 300 556 129 617 191 b 449 458 617 401 556 458 l 244 458 l 244 129 "},"В":{"ha":814,"x_min":0,"x_max":0,"o":"m 109 963 l 395 963 b 701 719 590 963 701 875 b 471 514 701 602 618 530 l 471 506 b 769 264 661 503 769 416 b 477 0 769 96 663 0 l 109 0 m 438 129 b 627 285 557 129 627 186 b 429 444 627 386 555 444 l 244 444 l 244 129 m 397 573 b 559 705 500 573 559 621 b 388 834 559 788 497 834 l 244 834 l 244 573 "},"Г":{"ha":814,"x_min":0,"x_max":0,"o":"m 122 963 l 739 963 l 739 834 l 258 834 l 258 0 l 122 0 "},"Ѓ":{"ha":814,"x_min":0,"x_max":0,"o":"m 122 963 l 739 963 l 739 834 l 258 834 l 258 0 l 122 0 m 481 1241 l 672 1241 l 489 1072 l 332 1072 "},"Ґ":{"ha":814,"x_min":0,"x_max":0,"o":"m 122 963 l 617 963 l 617 1173 l 753 1173 l 753 834 l 258 834 l 258 0 l 122 0 "},"Д":{"ha":814,"x_min":0,"x_max":0,"o":"m 20 129 l 83 129 b 161 589 134 213 161 441 l 161 963 l 708 963 l 708 129 l 793 129 l 793 -197 l 658 -197 l 658 0 l 156 0 l 156 -197 l 20 -197 m 572 834 l 286 834 l 286 593 b 214 129 286 449 264 231 l 572 129 "},"Е":{"ha":814,"x_min":0,"x_max":0,"o":"m 109 963 l 746 963 l 746 834 l 244 834 l 244 547 l 624 547 l 624 418 l 244 418 l 244 129 l 746 129 l 746 0 l 109 0 "},"Ѐ":{"ha":814,"x_min":0,"x_max":0,"o":"m 109 963 l 746 963 l 746 834 l 244 834 l 244 547 l 624 547 l 624 418 l 244 418 l 244 129 l 746 129 l 746 0 l 109 0 m 182 1241 l 374 1241 l 523 1072 l 366 1072 "},"Ё":{"ha":814,"x_min":0,"x_max":0,"o":"m 109 963 l 746 963 l 746 834 l 244 834 l 244 547 l 624 547 l 624 418 l 244 418 l 244 129 l 746 129 l 746 0 l 109 0 m 286 1072 b 195 1162 236 1072 195 1112 b 286 1253 195 1213 236 1253 b 377 1162 336 1253 377 1213 b 286 1072 377 1112 336 1072 m 568 1072 b 477 1162 518 1072 477 1112 b 568 1253 477 1213 518 1253 b 659 1162 618 1253 659 1213 b 568 1072 659 1112 618 1072 "},"Ж":{"ha":814,"x_min":0,"x_max":0,"o":"m 18 125 l 34 125 b 67 169 51 125 67 138 l 67 370 b 172 465 67 428 109 461 l 189 467 l 189 496 l 172 498 b 67 593 109 502 67 535 l 67 794 b 34 838 67 825 51 838 l 18 838 l 18 966 l 79 966 b 197 833 157 966 197 926 l 197 608 b 250 546 197 558 197 546 l 349 546 l 349 963 l 465 963 l 465 546 l 564 546 b 616 608 616 546 616 558 l 616 833 b 734 966 616 926 657 966 l 795 966 l 795 838 l 780 838 b 747 794 763 838 747 825 l 747 593 b 642 498 747 535 705 502 l 618 496 l 618 467 l 642 465 b 747 370 705 461 747 428 l 747 169 b 780 125 747 138 763 125 l 795 125 l 795 -3 l 734 -3 b 616 130 657 -3 616 37 l 616 355 b 564 417 616 405 616 417 l 465 417 l 465 0 l 349 0 l 349 417 l 250 417 b 197 355 197 417 197 405 l 197 130 b 79 -3 197 37 157 -3 l 18 -3 "},"З":{"ha":814,"x_min":0,"x_max":0,"o":"m 384 -14 b 43 102 242 -14 131 25 l 141 198 b 387 111 226 136 285 111 b 586 281 511 111 586 175 b 362 442 586 385 496 442 l 260 442 l 245 570 b 551 718 465 576 551 621 b 319 851 551 793 484 851 b 144 824 264 851 203 838 l 127 949 b 321 977 170 962 243 977 b 689 741 581 977 689 882 b 455 520 689 629 622 559 l 455 512 b 727 267 598 505 727 422 b 384 -14 727 97 595 -14 "},"И":{"ha":814,"x_min":0,"x_max":0,"o":"m 100 963 l 231 963 l 231 237 l 244 237 l 570 963 l 713 963 l 713 0 l 583 0 l 583 726 l 570 726 l 244 0 l 100 0 "},"Й":{"ha":814,"x_min":0,"x_max":0,"o":"m 100 963 l 231 963 l 231 237 l 244 237 l 570 963 l 713 963 l 713 0 l 583 0 l 583 726 l 570 726 l 244 0 l 100 0 m 407 1065 b 174 1261 259 1065 174 1137 l 306 1261 b 407 1157 306 1181 342 1157 b 508 1261 471 1157 508 1181 l 640 1261 b 407 1065 640 1137 555 1065 "},"Ѝ":{"ha":814,"x_min":0,"x_max":0,"o":"m 100 963 l 231 963 l 231 237 l 244 237 l 570 963 l 713 963 l 713 0 l 583 0 l 583 726 l 570 726 l 244 0 l 100 0 m 162 1241 l 353 1241 l 503 1072 l 345 1072 "},"К":{"ha":814,"x_min":0,"x_max":0,"o":"m 95 963 l 231 963 l 231 546 l 367 546 b 496 661 455 546 479 579 l 522 785 b 704 966 550 922 586 966 l 753 966 l 753 838 l 721 838 b 656 767 680 838 669 818 l 620 623 b 460 491 600 543 569 491 l 422 491 l 422 472 l 460 472 b 633 340 575 472 613 420 l 669 196 b 734 125 682 145 692 125 l 766 125 l 766 -3 l 711 -3 b 529 178 593 -3 557 41 l 503 302 b 367 417 487 382 462 417 l 231 417 l 231 0 l 95 0 "},"Ќ":{"ha":814,"x_min":0,"x_max":0,"o":"m 95 963 l 231 963 l 231 546 l 367 546 b 496 661 455 546 479 579 l 522 785 b 704 966 550 922 586 966 l 753 966 l 753 838 l 721 838 b 656 767 680 838 669 818 l 620 623 b 460 491 600 543 569 491 l 422 491 l 422 472 l 460 472 b 633 340 575 472 613 420 l 669 196 b 734 125 682 145 692 125 l 766 125 l 766 -3 l 711 -3 b 529 178 593 -3 557 41 l 503 302 b 367 417 487 382 462 417 l 231 417 l 231 0 l 95 0 m 467 1241 l 659 1241 l 475 1072 l 318 1072 "},"Л":{"ha":814,"x_min":0,"x_max":0,"o":"m 25 130 b 172 416 166 130 172 239 l 172 963 l 719 963 l 719 0 l 583 0 l 583 834 l 298 834 l 298 421 b 25 1 298 161 277 1 "},"М":{"ha":814,"x_min":0,"x_max":0,"o":"m 87 963 l 292 963 l 401 549 l 412 549 l 522 963 l 727 963 l 727 0 l 597 0 l 597 792 l 579 792 l 469 393 l 345 393 l 235 792 l 217 792 l 217 0 l 87 0 "},"Н":{"ha":814,"x_min":0,"x_max":0,"o":"m 583 415 l 231 415 l 231 0 l 95 0 l 95 963 l 231 963 l 231 544 l 583 544 l 583 963 l 719 963 l 719 0 l 583 0 "},"О":{"ha":814,"x_min":0,"x_max":0,"o":"m 407 -14 b 52 475 171 -14 52 148 b 407 977 52 810 171 977 b 762 475 643 977 762 810 b 407 -14 762 148 643 -14 m 407 111 b 620 475 549 111 620 232 b 407 852 620 727 549 852 b 194 475 265 852 194 727 b 407 111 194 232 265 111 "},"П":{"ha":814,"x_min":0,"x_max":0,"o":"m 583 834 l 231 834 l 231 0 l 95 0 l 95 963 l 719 963 l 719 0 l 583 0 "},"Р":{"ha":814,"x_min":0,"x_max":0,"o":"m 109 963 l 392 963 b 760 644 633 963 760 854 b 392 298 760 417 633 298 l 244 298 l 244 0 l 109 0 m 392 427 b 617 644 540 427 617 502 b 392 834 617 769 540 834 l 244 834 l 244 427 "},"С":{"ha":814,"x_min":0,"x_max":0,"o":"m 507 -14 b 58 483 209 -14 58 152 b 491 977 58 796 216 977 b 772 855 624 977 727 932 l 672 755 b 492 852 631 817 566 852 b 203 490 317 852 203 721 b 530 111 203 237 313 111 b 724 152 597 111 661 125 l 755 33 b 507 -14 675 1 593 -14 "},"Т":{"ha":814,"x_min":0,"x_max":0,"o":"m 339 834 l 54 834 l 54 963 l 760 963 l 760 834 l 475 834 l 475 0 l 339 0 "},"У":{"ha":814,"x_min":0,"x_max":0,"o":"m 131 129 b 366 186 242 129 315 144 l 58 963 l 208 963 l 446 346 l 456 346 l 642 963 l 791 963 l 554 244 b 131 0 484 56 382 0 "},"Ў":{"ha":814,"x_min":0,"x_max":0,"o":"m 131 129 b 366 186 242 129 315 144 l 58 963 l 208 963 l 446 346 l 456 346 l 642 963 l 791 963 l 554 244 b 131 0 484 56 382 0 m 434 1065 b 201 1261 286 1065 201 1137 l 333 1261 b 434 1157 333 1181 370 1157 b 535 1261 498 1157 535 1181 l 667 1261 b 434 1065 667 1137 582 1065 "},"Ф":{"ha":814,"x_min":0,"x_max":0,"o":"m 349 98 b 45 481 146 117 45 244 b 349 879 45 726 146 859 l 349 990 l 464 990 l 464 879 b 769 481 667 859 769 727 b 464 98 769 243 667 117 l 464 -14 l 349 -14 m 457 210 b 633 481 575 229 633 319 b 457 766 633 652 575 747 m 355 766 b 180 481 239 746 180 652 b 355 210 180 320 239 230 "},"Х":{"ha":814,"x_min":0,"x_max":0,"o":"m 407 361 l 200 0 l 44 0 l 339 477 l 44 963 l 200 963 l 407 594 l 614 963 l 770 963 l 475 477 l 770 0 l 614 0 "},"Ч":{"ha":814,"x_min":0,"x_max":0,"o":"m 359 370 b 61 695 150 370 61 467 l 61 963 l 197 963 l 197 695 b 359 498 197 557 245 498 l 549 498 l 549 963 l 685 963 l 685 0 l 549 0 l 549 370 l 359 370 "},"Ц":{"ha":814,"x_min":0,"x_max":0,"o":"m 95 963 l 231 963 l 231 129 l 576 129 l 576 963 l 712 963 l 712 129 l 787 129 l 787 -197 l 651 -197 l 651 0 l 95 0 "},"Ш":{"ha":814,"x_min":0,"x_max":0,"o":"m 87 963 l 222 963 l 222 122 l 349 122 l 349 963 l 465 963 l 465 122 l 591 122 l 591 963 l 727 963 l 727 0 l 87 0 "},"Щ":{"ha":814,"x_min":0,"x_max":0,"o":"m 87 963 l 222 963 l 222 122 l 349 122 l 349 963 l 465 963 l 465 122 l 591 122 l 591 963 l 727 963 l 727 122 l 787 122 l 787 -197 l 651 -197 l 651 0 l 87 0 "},"Џ":{"ha":814,"x_min":0,"x_max":0,"o":"m 339 0 l 95 0 l 95 963 l 231 963 l 231 129 l 583 129 l 583 963 l 719 963 l 719 0 l 475 0 l 475 -197 l 339 -197 "},"Ь":{"ha":814,"x_min":0,"x_max":0,"o":"m 95 963 l 231 963 l 231 621 l 464 621 b 755 311 640 621 755 498 b 464 0 755 123 640 0 l 95 0 m 425 129 b 613 311 538 129 613 201 b 425 492 613 420 538 492 l 231 492 l 231 129 "},"Ъ":{"ha":814,"x_min":0,"x_max":0,"o":"m 163 834 l -7 834 l -7 963 l 298 963 l 298 621 l 471 621 b 762 311 646 621 762 498 b 471 0 762 123 646 0 l 163 0 m 431 129 b 620 311 545 129 620 201 b 431 492 620 420 545 492 l 298 492 l 298 129 "},"Ы":{"ha":814,"x_min":0,"x_max":0,"o":"m 87 963 l 222 963 l 222 621 l 308 621 b 511 311 431 621 511 498 b 308 0 511 123 431 0 l 87 0 m 598 963 l 727 963 l 727 0 l 598 0 m 269 129 b 382 311 337 129 382 201 b 269 492 382 420 337 492 l 222 492 l 222 129 "},"Љ":{"ha":814,"x_min":0,"x_max":0,"o":"m 36 129 b 149 302 123 129 149 170 l 149 963 l 505 963 l 505 621 l 586 621 b 762 311 692 621 762 498 b 586 0 762 123 692 0 l 383 0 l 383 834 l 258 834 l 258 307 b 36 0 258 71 205 0 m 547 129 b 633 311 599 129 633 201 b 547 492 633 420 599 492 l 505 492 l 505 129 "},"Њ":{"ha":814,"x_min":0,"x_max":0,"o":"m 87 963 l 222 963 l 222 544 l 369 544 l 369 963 l 505 963 l 505 621 l 579 621 b 762 311 690 621 762 498 b 579 0 762 123 690 0 l 369 0 l 369 415 l 222 415 l 222 0 l 87 0 m 540 129 b 633 311 596 129 633 201 b 540 492 633 420 596 492 l 505 492 l 505 129 "},"Ѕ":{"ha":814,"x_min":0,"x_max":0,"o":"m 374 -14 b 87 39 264 -14 169 4 l 105 176 b 385 111 204 134 296 111 b 572 245 511 111 572 155 b 484 372 572 305 541 346 l 317 448 b 113 712 185 507 113 587 b 404 977 113 880 219 977 b 720 855 534 977 627 941 l 625 759 b 405 852 545 824 479 852 b 258 719 312 852 258 806 b 357 590 258 656 292 621 l 498 524 b 717 248 641 456 717 380 b 374 -14 717 74 604 -14 "},"Є":{"ha":814,"x_min":0,"x_max":0,"o":"m 514 -14 b 65 483 216 -14 65 152 b 498 977 65 796 222 977 b 779 855 631 977 734 932 l 679 755 b 499 852 638 817 572 852 b 207 557 338 852 228 746 l 585 557 l 585 429 l 206 429 b 537 111 223 217 334 111 b 731 152 604 111 667 125 l 762 33 b 514 -14 682 1 600 -14 "},"Э":{"ha":814,"x_min":0,"x_max":0,"o":"m 323 -14 b 12 102 201 -14 92 25 l 109 198 b 330 111 189 132 241 111 b 607 429 492 111 593 229 l 226 429 l 226 557 l 604 557 b 286 852 581 745 473 852 b 90 818 216 852 153 840 l 58 937 b 309 977 138 964 220 977 b 749 484 598 977 749 802 b 323 -14 749 174 606 -14 "},"І":{"ha":814,"x_min":0,"x_max":0,"o":"m 114 129 l 338 129 l 338 834 l 114 834 l 114 963 l 700 963 l 700 834 l 474 834 l 474 129 l 700 129 l 700 0 l 114 0 "},"Ї":{"ha":814,"x_min":0,"x_max":0,"o":"m 114 129 l 338 129 l 338 834 l 114 834 l 114 963 l 700 963 l 700 834 l 474 834 l 474 129 l 700 129 l 700 0 l 114 0 m 266 1072 b 175 1162 216 1072 175 1112 b 266 1253 175 1213 216 1253 b 357 1162 316 1253 357 1213 b 266 1072 357 1112 316 1072 m 548 1072 b 457 1162 498 1072 457 1112 b 548 1253 457 1213 498 1253 b 639 1162 598 1253 639 1213 b 548 1072 639 1112 598 1072 "},"Ј":{"ha":814,"x_min":0,"x_max":0,"o":"m 389 -14 b 58 323 178 -14 58 110 l 194 323 b 393 109 194 187 266 109 b 585 323 515 109 585 186 l 585 834 l 332 834 l 332 963 l 720 963 l 720 323 b 389 -14 720 109 597 -14 "},"Ћ":{"ha":814,"x_min":0,"x_max":0,"o":"m 585 264 b 441 461 585 402 542 461 l 298 461 l 298 0 l 163 0 l 163 834 l 14 834 l 14 963 l 570 963 l 570 834 l 298 834 l 298 590 l 441 590 b 720 264 637 590 720 493 l 720 0 l 585 0 "},"Ю":{"ha":814,"x_min":0,"x_max":0,"o":"m 526 -14 b 290 415 370 -14 298 115 l 183 415 l 183 0 l 54 0 l 54 963 l 183 963 l 183 544 l 290 544 b 526 977 299 846 371 977 b 762 475 692 977 762 827 b 526 -14 762 132 692 -14 m 519 111 b 627 475 595 111 627 220 b 519 852 627 739 595 852 b 411 475 443 852 411 739 b 519 111 411 220 443 111 "},"Я":{"ha":814,"x_min":0,"x_max":0,"o":"m 49 125 l 71 125 b 153 200 106 125 135 136 l 177 288 b 322 410 205 390 256 410 l 338 410 l 337 427 b 76 675 235 431 76 462 b 396 963 76 859 197 963 l 720 963 l 720 0 l 585 0 l 585 359 l 455 359 b 304 272 342 359 319 333 l 269 134 b 81 -3 248 50 207 -3 l 49 -3 m 585 834 l 396 834 b 218 665 288 834 218 777 b 396 488 218 555 288 488 l 585 488 "},"Ђ":{"ha":814,"x_min":0,"x_max":0,"o":"m 415 129 b 598 302 538 129 598 186 b 427 471 598 414 541 471 l 298 471 l 298 0 l 163 0 l 163 834 l -7 834 l -7 963 l 549 963 l 549 834 l 298 834 l 298 600 l 427 600 b 734 302 632 600 734 501 b 415 0 734 100 628 0 "},"Ғ":{"ha":814,"x_min":0,"x_max":0,"o":"m -3 526 l 122 526 l 122 963 l 739 963 l 739 834 l 258 834 l 258 526 l 480 526 l 480 397 l 258 397 l 258 0 l 122 0 l 122 397 l -3 397 "},"Җ":{"ha":814,"x_min":0,"x_max":0,"o":"m 18 125 l 34 125 b 67 169 51 125 67 138 l 67 370 b 172 465 67 428 109 461 l 195 467 l 195 496 l 172 498 b 67 593 109 502 67 535 l 67 794 b 34 838 67 825 51 838 l 18 838 l 18 966 l 79 966 b 197 833 157 966 197 926 l 197 608 b 237 546 197 558 197 546 l 322 546 l 322 963 l 437 963 l 437 546 l 523 546 b 562 608 562 546 562 558 l 562 833 b 680 966 562 926 603 966 l 741 966 l 741 838 l 726 838 b 692 794 709 838 692 825 l 692 593 b 588 498 692 535 650 502 l 558 496 l 558 467 l 588 465 b 692 370 650 461 692 428 l 692 172 b 726 129 692 142 709 129 l 814 129 l 814 -197 l 685 -197 l 685 -3 l 680 -3 b 562 130 603 -3 562 37 l 562 355 b 523 417 562 405 562 417 l 437 417 l 437 0 l 322 0 l 322 417 l 237 417 b 197 355 197 417 197 405 l 197 130 b 79 -3 197 37 157 -3 l 18 -3 "},"Қ":{"ha":814,"x_min":0,"x_max":0,"o":"m 95 963 l 231 963 l 231 546 l 367 546 b 496 661 455 546 479 579 l 522 785 b 704 966 550 922 586 966 l 753 966 l 753 838 l 721 838 b 656 767 680 838 669 818 l 620 623 b 460 491 600 543 569 491 l 422 491 l 422 472 l 460 472 b 633 340 575 472 613 420 l 669 196 b 734 125 682 145 692 125 l 787 125 l 787 -197 l 658 -197 l 658 1 b 529 178 581 14 552 64 l 503 302 b 367 417 487 382 462 417 l 231 417 l 231 0 l 95 0 "},"Ң":{"ha":814,"x_min":0,"x_max":0,"o":"m 658 0 l 583 0 l 583 415 l 231 415 l 231 0 l 95 0 l 95 963 l 231 963 l 231 544 l 583 544 l 583 963 l 719 963 l 719 129 l 787 129 l 787 -197 l 658 -197 "},"Ү":{"ha":814,"x_min":0,"x_max":0,"o":"m 339 341 l 17 963 l 166 963 l 401 481 l 413 481 l 648 963 l 797 963 l 475 341 l 475 0 l 339 0 "},"Ұ":{"ha":814,"x_min":0,"x_max":0,"o":"m 174 329 l 339 329 l 339 341 l 17 963 l 166 963 l 401 481 l 413 481 l 648 963 l 797 963 l 475 341 l 475 329 l 642 329 l 642 200 l 475 200 l 475 0 l 339 0 l 339 200 l 174 200 "},"Ҳ":{"ha":814,"x_min":0,"x_max":0,"o":"m 658 0 l 614 0 l 407 361 l 200 0 l 44 0 l 339 477 l 44 963 l 200 963 l 407 594 l 614 963 l 770 963 l 475 477 l 690 129 l 787 129 l 787 -197 l 658 -197 "},"Ҷ":{"ha":814,"x_min":0,"x_max":0,"o":"m 644 0 l 549 0 l 549 370 l 359 370 b 61 695 150 370 61 467 l 61 963 l 197 963 l 197 695 b 359 498 197 557 245 498 l 549 498 l 549 963 l 685 963 l 685 129 l 773 129 l 773 -197 l 644 -197 "},"Һ":{"ha":814,"x_min":0,"x_max":0,"o":"m 583 268 b 420 465 583 406 534 465 l 231 465 l 231 0 l 95 0 l 95 963 l 231 963 l 231 593 l 420 593 b 719 268 630 593 719 496 l 719 0 l 583 0 "},"Ӏ":{"ha":814,"x_min":0,"x_max":0,"o":"m 114 129 l 338 129 l 338 834 l 114 834 l 114 963 l 700 963 l 700 834 l 474 834 l 474 129 l 700 129 l 700 0 l 114 0 "},"Ә":{"ha":814,"x_min":0,"x_max":0,"o":"m 407 -14 b 52 461 171 -14 52 143 b 54 541 52 489 52 516 l 617 541 b 339 852 602 749 509 852 b 133 825 267 852 197 843 l 114 945 b 339 977 185 966 261 977 b 762 475 620 977 762 810 b 407 -14 762 148 643 -14 m 195 412 b 407 111 205 211 275 111 b 618 412 536 111 606 211 "},"Ӣ":{"ha":814,"x_min":0,"x_max":0,"o":"m 100 963 l 231 963 l 231 237 l 244 237 l 570 963 l 713 963 l 713 0 l 583 0 l 583 726 l 570 726 l 244 0 l 100 0 m 144 1199 l 669 1199 l 669 1072 l 144 1072 "},"Ө":{"ha":814,"x_min":0,"x_max":0,"o":"m 407 -14 b 52 475 171 -14 52 148 b 407 977 52 810 171 977 b 762 475 643 977 762 810 b 407 -14 762 148 643 -14 m 618 544 b 407 852 606 750 535 852 b 196 544 279 852 208 750 m 407 111 b 618 415 536 111 607 212 l 195 415 b 407 111 207 212 277 111 "},"Ӯ":{"ha":814,"x_min":0,"x_max":0,"o":"m 131 129 b 366 186 242 129 315 144 l 58 963 l 208 963 l 446 346 l 456 346 l 642 963 l 791 963 l 554 244 b 131 0 484 56 382 0 m 172 1199 l 696 1199 l 696 1072 l 172 1072 "},"а":{"ha":814,"x_min":0,"x_max":0,"o":"m 548 152 l 534 152 b 301 -14 524 41 435 -14 b 65 194 151 -14 65 62 b 391 430 65 346 183 430 b 526 418 442 430 487 427 l 526 452 b 326 593 526 547 458 590 l 153 598 l 167 726 l 312 724 b 663 430 549 720 663 620 l 663 130 l 785 115 l 785 0 l 555 -7 m 526 308 b 388 315 480 315 435 315 b 201 201 265 315 201 276 b 324 102 201 138 245 102 b 526 258 458 102 526 182 l 526 308 "},"б":{"ha":814,"x_min":0,"x_max":0,"o":"m 418 -14 b 90 357 193 -14 90 103 l 90 477 b 456 924 90 749 201 880 l 707 966 l 713 838 l 494 800 b 234 547 297 767 234 704 l 234 480 l 250 480 b 486 637 277 581 366 637 b 742 319 648 637 742 522 b 418 -14 742 108 624 -14 m 425 111 b 597 312 533 111 597 186 b 425 513 597 438 533 513 b 237 312 307 513 237 438 b 425 111 237 186 307 111 "},"в":{"ha":814,"x_min":0,"x_max":0,"o":"m 121 719 l 483 719 b 715 536 630 719 715 652 b 518 380 715 441 643 385 l 518 367 b 742 183 661 364 742 298 b 525 0 742 66 663 0 l 121 0 m 486 129 b 591 224 553 129 591 163 b 476 319 591 284 549 319 l 264 319 l 264 129 m 458 427 b 564 509 526 427 564 457 b 449 590 564 560 522 590 l 264 590 l 264 427 "},"г":{"ha":814,"x_min":0,"x_max":0,"o":"m 180 719 l 692 719 l 692 590 l 324 590 l 324 0 l 180 0 "},"ѓ":{"ha":814,"x_min":0,"x_max":0,"o":"m 180 719 l 692 719 l 692 590 l 324 590 l 324 0 l 180 0 m 515 1104 l 659 1104 l 530 846 l 399 846 "},"ґ":{"ha":814,"x_min":0,"x_max":0,"o":"m 180 719 l 570 719 l 570 895 l 705 895 l 705 590 l 324 590 l 324 0 l 180 0 "},"д":{"ha":814,"x_min":0,"x_max":0,"o":"m 27 129 l 96 129 b 162 457 143 206 162 313 l 162 719 l 681 719 l 681 129 l 766 129 l 766 -183 l 631 -183 l 631 0 l 163 0 l 163 -183 l 27 -183 m 537 590 l 288 590 l 288 462 b 232 129 288 323 272 213 l 537 129 "},"е":{"ha":814,"x_min":0,"x_max":0,"o":"m 476 -14 b 92 361 231 -14 92 119 b 416 732 92 595 210 732 b 722 388 610 732 722 612 b 718 296 722 354 720 324 l 232 296 b 492 113 257 176 348 113 b 669 132 552 113 609 119 l 686 5 b 476 -14 601 -11 530 -14 m 591 406 b 418 606 591 534 526 606 b 227 406 307 606 238 534 "},"ѐ":{"ha":814,"x_min":0,"x_max":0,"o":"m 476 -14 b 92 361 231 -14 92 119 b 416 732 92 595 210 732 b 722 388 610 732 722 612 b 718 296 722 354 720 324 l 232 296 b 492 113 257 176 348 113 b 669 132 552 113 609 119 l 686 5 b 476 -14 601 -11 530 -14 m 591 406 b 418 606 591 534 526 606 b 227 406 307 606 238 534 m 233 1104 l 377 1104 l 492 846 l 362 846 "},"ё":{"ha":814,"x_min":0,"x_max":0,"o":"m 476 -14 b 92 361 231 -14 92 119 b 416 732 92 595 210 732 b 722 388 610 732 722 612 b 718 296 722 354 720 324 l 232 296 b 492 113 257 176 348 113 b 669 132 552 113 609 119 l 686 5 b 476 -14 601 -11 530 -14 m 591 406 b 418 606 591 534 526 606 b 227 406 307 606 238 534 m 273 840 b 182 930 222 840 182 880 b 273 1021 182 981 222 1021 b 363 930 323 1021 363 981 b 273 840 363 880 323 840 m 557 840 b 467 930 507 840 467 880 b 557 1021 467 981 507 1021 b 648 930 608 1021 648 981 b 557 840 648 880 608 840 "},"ж":{"ha":814,"x_min":0,"x_max":0,"o":"m 25 122 l 54 122 b 94 162 75 122 94 134 l 94 253 b 193 349 94 311 138 344 l 218 351 l 218 368 l 193 370 b 94 466 138 375 94 408 l 94 557 b 54 597 94 585 75 597 l 25 597 l 25 726 l 75 726 b 219 595 168 726 219 687 l 219 480 b 219 478 219 479 219 479 b 267 418 219 431 219 418 l 345 418 l 345 719 l 467 719 l 467 418 l 547 418 b 595 478 595 418 595 431 b 595 480 595 479 595 479 l 595 595 b 739 726 595 687 646 726 l 789 726 l 789 597 l 760 597 b 720 557 739 597 720 585 l 720 466 b 621 370 720 408 676 375 l 595 368 l 595 351 l 621 349 b 720 253 676 344 720 311 l 720 162 b 760 122 720 134 739 122 l 789 122 l 789 -7 l 739 -7 b 595 123 646 -7 595 32 l 595 239 b 595 241 595 239 595 240 b 547 300 595 288 595 300 l 467 300 l 467 0 l 345 0 l 345 300 l 267 300 b 219 241 219 300 219 288 b 219 239 219 240 219 239 l 219 123 b 75 -7 219 32 168 -7 l 25 -7 "},"з":{"ha":814,"x_min":0,"x_max":0,"o":"m 377 -14 b 78 75 267 -14 154 4 l 147 175 b 372 111 212 127 304 111 b 553 214 491 111 553 146 b 308 318 553 283 490 318 l 279 318 l 272 429 l 310 429 b 526 510 496 429 526 458 b 331 608 526 574 459 608 b 153 593 269 608 231 601 l 136 715 b 346 732 203 724 251 732 b 675 547 547 732 675 675 b 495 387 675 474 613 402 l 495 373 b 703 197 634 353 703 294 b 377 -14 703 70 576 -14 "},"и":{"ha":814,"x_min":0,"x_max":0,"o":"m 114 719 l 258 719 l 258 197 l 271 197 l 553 719 l 700 719 l 700 0 l 556 0 l 556 522 l 543 522 l 261 0 l 114 0 "},"й":{"ha":814,"x_min":0,"x_max":0,"o":"m 114 719 l 258 719 l 258 197 l 271 197 l 553 719 l 700 719 l 700 0 l 556 0 l 556 522 l 543 522 l 261 0 l 114 0 m 407 840 b 172 1087 245 840 172 921 l 299 1087 b 407 939 299 983 328 939 b 515 1087 487 939 515 985 l 642 1087 b 407 840 642 920 568 840 "},"ѝ":{"ha":814,"x_min":0,"x_max":0,"o":"m 114 719 l 258 719 l 258 197 l 271 197 l 553 719 l 700 719 l 700 0 l 556 0 l 556 522 l 543 522 l 261 0 l 114 0 m 227 1104 l 370 1104 l 486 846 l 355 846 "},"к":{"ha":814,"x_min":0,"x_max":0,"o":"m 107 719 l 251 719 l 251 424 l 353 424 b 443 479 411 424 427 441 l 490 595 b 675 722 532 700 568 722 l 714 722 l 714 593 l 685 593 b 625 557 652 593 637 587 l 577 446 b 441 369 555 394 514 369 l 440 369 l 440 350 l 448 350 b 591 273 521 350 568 325 l 638 162 b 699 125 651 132 665 125 l 721 125 l 721 -3 l 682 -3 b 490 123 575 -3 532 19 l 443 239 b 353 295 427 278 411 295 l 251 295 l 251 0 l 107 0 "},"ќ":{"ha":814,"x_min":0,"x_max":0,"o":"m 107 719 l 251 719 l 251 424 l 353 424 b 443 479 411 424 427 441 l 490 595 b 675 722 532 700 568 722 l 714 722 l 714 593 l 685 593 b 625 557 652 593 637 587 l 577 446 b 441 369 555 394 514 369 l 440 369 l 440 350 l 448 350 b 591 273 521 350 568 325 l 638 162 b 699 125 651 132 665 125 l 721 125 l 721 -3 l 682 -3 b 490 123 575 -3 532 19 l 443 239 b 353 295 427 278 411 295 l 251 295 l 251 0 l 107 0 m 440 1104 l 584 1104 l 455 846 l 325 846 "},"л":{"ha":814,"x_min":0,"x_max":0,"o":"m 43 129 b 184 335 151 129 184 176 l 184 719 l 704 719 l 704 0 l 560 0 l 560 590 l 310 590 l 310 340 b 43 0 310 78 248 0 "},"м":{"ha":814,"x_min":0,"x_max":0,"o":"m 87 719 l 285 719 l 401 305 l 412 305 l 529 719 l 727 719 l 727 0 l 590 0 l 590 548 l 572 548 l 463 149 l 351 149 l 241 548 l 224 548 l 224 0 l 87 0 "},"н":{"ha":814,"x_min":0,"x_max":0,"o":"m 556 300 l 258 300 l 258 0 l 114 0 l 114 719 l 258 719 l 258 418 l 556 418 l 556 719 l 700 719 l 700 0 l 556 0 "},"о":{"ha":814,"x_min":0,"x_max":0,"o":"m 407 -14 b 92 359 208 -14 92 122 b 407 732 92 597 208 732 b 722 359 606 732 722 597 b 407 -14 722 122 606 -14 m 407 115 b 572 359 513 115 572 203 b 407 604 572 515 513 604 b 241 359 301 604 241 515 b 407 115 241 203 301 115 "},"п":{"ha":814,"x_min":0,"x_max":0,"o":"m 556 590 l 258 590 l 258 0 l 114 0 l 114 719 l 700 719 l 700 0 l 556 0 "},"р":{"ha":814,"x_min":0,"x_max":0,"o":"m 114 719 l 244 719 l 256 589 l 264 589 b 462 732 277 679 350 732 b 749 353 650 732 749 602 b 462 -14 749 112 650 -14 b 271 130 351 -14 280 40 l 258 130 l 258 -312 l 114 -312 m 258 335 b 430 109 258 186 317 109 b 606 353 546 109 606 192 b 430 610 606 522 546 610 b 258 384 317 610 258 532 l 258 335 "},"с":{"ha":814,"x_min":0,"x_max":0,"o":"m 476 -14 b 92 361 231 -14 92 119 b 457 732 92 595 223 732 b 744 583 597 732 701 678 l 633 500 b 452 604 593 566 527 604 b 237 368 316 604 237 518 b 492 115 237 203 329 115 b 690 133 559 115 627 122 l 707 7 b 476 -14 632 -9 551 -14 "},"т":{"ha":814,"x_min":0,"x_max":0,"o":"m 335 590 l 61 590 l 61 719 l 753 719 l 753 590 l 479 590 l 479 0 l 335 0 "},"у":{"ha":814,"x_min":0,"x_max":0,"o":"m 44 -197 l 157 -183 b 393 0 271 -170 342 -119 l 323 0 l 37 719 l 186 719 l 421 109 l 431 109 l 607 719 l 756 719 l 549 64 b 173 -312 467 -194 366 -290 l 51 -326 "},"ў":{"ha":814,"x_min":0,"x_max":0,"o":"m 44 -197 l 157 -183 b 393 0 271 -170 342 -119 l 323 0 l 37 719 l 186 719 l 421 109 l 431 109 l 607 719 l 756 719 l 549 64 b 173 -312 467 -194 366 -290 l 51 -326 m 417 840 b 182 1087 255 840 182 921 l 309 1087 b 417 939 309 983 338 939 b 525 1087 497 939 525 985 l 652 1087 b 417 840 652 920 578 840 "},"ф":{"ha":814,"x_min":0,"x_max":0,"o":"m 616 -14 b 489 104 544 -14 495 26 l 475 104 l 475 -298 l 338 -298 l 338 104 l 325 104 b 198 -14 319 26 270 -14 b 31 353 81 -14 31 96 b 199 732 31 619 81 732 b 325 595 275 732 317 687 l 338 595 l 338 1017 l 475 1017 l 475 595 l 489 595 b 614 732 497 687 538 732 b 783 353 733 732 783 619 b 616 -14 783 96 733 -14 m 465 231 b 552 109 465 149 493 109 b 641 353 614 109 641 181 b 553 610 641 534 614 610 b 465 404 494 610 465 543 l 465 231 m 349 404 b 260 610 349 543 319 610 b 173 353 199 610 173 534 b 262 109 173 181 199 109 b 349 231 321 109 349 149 l 349 404 "},"х":{"ha":814,"x_min":0,"x_max":0,"o":"m 329 355 l 72 719 l 235 719 l 407 467 l 579 719 l 742 719 l 481 361 l 742 0 l 579 0 l 404 250 l 235 0 l 72 0 "},"ч":{"ha":814,"x_min":0,"x_max":0,"o":"m 359 258 b 80 549 172 258 80 355 l 80 719 l 224 719 l 224 549 b 373 376 224 433 273 376 l 549 376 l 549 719 l 693 719 l 693 0 l 549 0 l 549 258 l 359 258 "},"ц":{"ha":814,"x_min":0,"x_max":0,"o":"m 95 719 l 239 719 l 239 129 l 530 129 l 530 719 l 674 719 l 674 129 l 766 129 l 766 -183 l 631 -183 l 631 0 l 95 0 "},"ш":{"ha":814,"x_min":0,"x_max":0,"o":"m 76 719 l 220 719 l 220 122 l 345 122 l 345 719 l 467 719 l 467 122 l 594 122 l 594 719 l 738 719 l 738 0 l 76 0 "},"щ":{"ha":814,"x_min":0,"x_max":0,"o":"m 76 719 l 220 719 l 220 122 l 342 122 l 342 719 l 457 719 l 457 122 l 581 122 l 581 719 l 724 719 l 724 122 l 785 122 l 785 -183 l 650 -183 l 650 0 l 76 0 "},"џ":{"ha":814,"x_min":0,"x_max":0,"o":"m 343 0 l 117 0 l 117 719 l 261 719 l 261 118 l 553 118 l 553 719 l 696 719 l 696 0 l 479 0 l 479 -183 l 343 -183 "},"ь":{"ha":814,"x_min":0,"x_max":0,"o":"m 127 719 l 271 719 l 271 486 l 505 486 b 749 243 660 486 749 397 b 505 0 749 88 660 0 l 127 0 m 486 129 b 600 243 558 129 600 170 b 486 357 600 315 558 357 l 271 357 l 271 129 "},"ъ":{"ha":814,"x_min":0,"x_max":0,"o":"m 168 590 l 0 590 l 0 719 l 312 719 l 312 486 l 491 486 b 749 243 655 486 749 397 b 491 0 749 88 655 0 l 168 0 m 472 129 b 600 243 553 129 600 170 b 472 357 600 315 553 357 l 312 357 l 312 129 "},"ы":{"ha":814,"x_min":0,"x_max":0,"o":"m 76 719 l 220 719 l 220 486 l 283 486 b 507 243 425 486 507 397 b 283 0 507 88 425 0 l 76 0 m 594 719 l 738 719 l 738 0 l 594 0 m 264 115 b 378 243 336 115 378 161 b 264 370 378 324 336 370 l 220 370 l 220 115 "},"љ":{"ha":814,"x_min":0,"x_max":0,"o":"m 43 129 b 136 233 114 129 136 153 l 136 719 l 517 719 l 517 486 l 570 486 b 794 243 713 486 794 397 b 570 0 794 88 713 0 l 387 0 l 387 601 l 261 601 l 261 238 b 43 0 261 55 210 0 m 558 129 b 659 243 622 129 659 170 b 558 357 659 315 622 357 l 517 357 l 517 129 "},"њ":{"ha":814,"x_min":0,"x_max":0,"o":"m 60 719 l 203 719 l 203 465 l 367 465 l 367 719 l 497 719 l 497 465 l 570 465 b 794 243 713 465 794 385 b 570 0 794 88 713 0 l 367 0 l 367 347 l 203 347 l 203 0 l 60 0 m 558 129 b 659 243 622 129 659 170 b 558 347 659 309 622 347 l 497 347 l 497 129 "},"ѕ":{"ha":814,"x_min":0,"x_max":0,"o":"m 351 -14 b 106 7 243 -14 170 -8 l 122 137 b 351 115 217 122 286 115 b 559 205 496 115 559 142 b 488 278 559 248 536 266 l 323 320 b 117 509 181 356 117 400 b 499 732 117 666 231 732 b 689 719 568 732 625 728 l 674 594 b 495 604 601 601 548 604 b 266 515 334 604 266 578 b 357 445 266 473 295 460 l 490 412 b 708 208 640 376 708 323 b 351 -14 708 53 601 -14 "},"є":{"ha":814,"x_min":0,"x_max":0,"o":"m 463 -14 b 92 361 227 -14 92 119 b 457 732 92 595 223 732 b 744 583 597 732 701 678 l 633 500 b 452 604 593 566 527 604 b 238 420 332 604 256 538 l 532 420 l 532 302 l 240 302 b 479 115 261 180 345 115 b 690 133 551 115 623 122 l 707 7 b 463 -14 628 -9 543 -14 "},"э":{"ha":814,"x_min":0,"x_max":0,"o":"m 357 -14 b 90 70 240 -14 143 23 l 160 178 b 362 115 205 144 279 115 b 576 302 484 115 560 182 l 282 302 l 282 420 l 572 420 b 308 604 548 540 455 604 b 137 589 253 604 197 599 l 149 721 b 324 732 199 728 257 732 b 722 358 578 732 722 600 b 357 -14 722 123 591 -14 "},"і":{"ha":814,"x_min":0,"x_max":0,"o":"m 109 118 l 382 118 l 382 601 l 149 601 l 149 719 l 526 719 l 526 118 l 747 118 l 747 0 l 109 0 m 450 833 b 349 933 394 833 349 878 b 450 1034 349 989 394 1034 b 550 933 505 1034 550 989 b 450 833 550 878 505 833 "},"ї":{"ha":814,"x_min":0,"x_max":0,"o":"m 109 118 l 382 118 l 382 601 l 149 601 l 149 719 l 526 719 l 526 118 l 747 118 l 747 0 l 109 0 m 300 840 b 209 930 250 840 209 880 b 300 1021 209 981 250 1021 b 391 930 350 1021 391 981 b 300 840 391 880 350 840 m 585 840 b 494 930 534 840 494 880 b 585 1021 494 981 534 1021 b 675 930 635 1021 675 981 b 585 840 675 880 635 840 "},"ј":{"ha":814,"x_min":0,"x_max":0,"o":"m 115 -198 l 251 -186 b 458 42 396 -172 458 -106 l 458 601 l 179 601 l 179 719 l 602 719 l 602 64 b 237 -317 602 -193 492 -297 l 122 -326 m 515 833 b 415 933 460 833 415 878 b 515 1034 415 989 460 1034 b 616 933 571 1034 616 989 b 515 833 616 878 571 833 "},"ћ":{"ha":814,"x_min":0,"x_max":0,"o":"m 556 387 b 441 529 556 477 513 529 b 285 323 337 529 285 461 l 285 0 l 141 0 l 141 777 l 0 777 l 0 895 l 141 895 l 141 1017 l 285 1017 l 285 895 l 522 895 l 522 777 l 285 777 l 285 507 l 298 507 b 475 651 306 604 363 651 b 700 387 618 651 700 555 l 700 0 l 556 0 "},"ю":{"ha":814,"x_min":0,"x_max":0,"o":"m 526 -14 b 304 298 380 -14 313 80 l 208 298 l 208 0 l 75 0 l 75 719 l 208 719 l 208 416 l 304 416 b 526 732 314 637 382 732 b 762 353 692 732 762 619 b 526 -14 762 96 692 -14 m 519 111 b 620 353 589 111 620 183 b 519 608 620 532 589 608 b 418 353 448 608 418 532 b 519 111 418 183 448 111 "},"я":{"ha":814,"x_min":0,"x_max":0,"o":"m 323 305 b 105 503 184 305 105 377 b 378 719 105 640 204 719 l 696 719 l 696 0 l 553 0 l 553 244 l 483 244 b 359 189 395 244 380 227 l 330 134 b 128 -3 281 40 243 -3 l 85 -3 l 85 125 l 108 125 b 182 172 144 125 161 141 l 216 222 b 346 286 244 264 279 286 l 359 286 l 359 305 l 323 305 m 553 590 l 378 590 b 254 478 299 590 254 549 b 378 373 254 411 299 373 l 553 373 "},"ђ":{"ha":814,"x_min":0,"x_max":0,"o":"m 141 777 l 0 777 l 0 895 l 141 895 l 141 1017 l 285 1017 l 285 895 l 522 895 l 522 777 l 285 777 l 285 507 l 298 507 b 475 651 306 604 363 651 b 700 387 618 651 700 555 l 700 16 b 423 -317 700 -208 616 -304 l 349 -326 l 342 -198 l 437 -186 b 556 -5 520 -178 556 -123 l 556 387 b 441 529 556 477 513 529 b 285 323 337 529 285 461 l 285 0 l 141 0 "},"ғ":{"ha":814,"x_min":0,"x_max":0,"o":"m 38 405 l 180 405 l 180 719 l 692 719 l 692 590 l 324 590 l 324 405 l 500 405 l 500 287 l 324 287 l 324 0 l 180 0 l 180 287 l 38 287 "},"җ":{"ha":814,"x_min":0,"x_max":0,"o":"m 32 125 l 75 125 b 108 169 92 125 108 138 l 108 253 b 220 349 108 311 157 344 l 245 351 l 245 368 l 220 370 b 108 466 157 375 108 408 l 108 550 b 75 593 108 581 92 593 l 32 593 l 32 722 l 81 722 b 233 589 179 722 233 682 l 233 480 l 233 479 b 326 418 233 431 233 418 l 326 719 l 434 719 l 434 418 b 526 479 526 418 526 431 l 526 480 l 526 589 b 678 722 526 682 581 722 l 728 722 l 728 593 l 685 593 b 652 550 668 593 652 581 l 652 466 b 540 370 652 408 602 375 l 514 368 l 514 351 l 540 349 b 652 253 602 344 652 311 l 652 172 b 685 129 652 142 668 129 l 791 129 l 791 -183 l 655 -183 l 655 -3 b 526 130 572 3 526 44 l 526 239 l 526 240 b 434 300 526 288 526 300 l 434 0 l 326 0 l 326 300 b 233 240 233 300 233 288 l 233 239 l 233 130 b 81 -3 233 37 179 -3 l 32 -3 "},"қ":{"ha":814,"x_min":0,"x_max":0,"o":"m 107 719 l 251 719 l 251 424 l 353 424 b 443 479 411 424 427 441 l 490 595 b 675 722 532 700 568 722 l 714 722 l 714 593 l 685 593 b 625 557 652 593 637 587 l 577 446 b 441 369 555 394 514 369 l 440 369 l 440 350 l 448 350 b 591 273 521 350 568 325 l 638 162 b 699 125 651 132 665 125 l 784 125 l 784 -183 l 648 -183 l 648 -3 b 490 123 566 3 527 31 l 443 239 b 353 295 427 278 411 295 l 251 295 l 251 0 l 107 0 "},"ң":{"ha":814,"x_min":0,"x_max":0,"o":"m 655 0 l 556 0 l 556 300 l 258 300 l 258 0 l 114 0 l 114 719 l 258 719 l 258 418 l 556 418 l 556 719 l 700 719 l 700 129 l 791 129 l 791 -183 l 655 -183 "},"ү":{"ha":814,"x_min":0,"x_max":0,"o":"m 335 9 l 54 719 l 208 719 l 407 167 l 606 719 l 760 719 l 479 9 l 479 -312 l 335 -312 "},"ұ":{"ha":814,"x_min":0,"x_max":0,"o":"m 146 0 l 335 0 l 335 9 l 54 719 l 208 719 l 407 167 l 606 719 l 760 719 l 479 9 l 479 0 l 669 0 l 669 -118 l 479 -118 l 479 -312 l 335 -312 l 335 -118 l 146 -118 "},"ҳ":{"ha":814,"x_min":0,"x_max":0,"o":"m 648 0 l 579 0 l 404 250 l 235 0 l 72 0 l 329 355 l 72 719 l 235 719 l 407 467 l 579 719 l 742 719 l 481 361 l 649 129 l 784 129 l 784 -183 l 648 -183 "},"ҷ":{"ha":814,"x_min":0,"x_max":0,"o":"m 642 0 l 549 0 l 549 258 l 359 258 b 80 549 172 258 80 355 l 80 719 l 224 719 l 224 549 b 373 376 224 433 273 376 l 549 376 l 549 719 l 693 719 l 693 129 l 777 129 l 777 -183 l 642 -183 "},"һ":{"ha":814,"x_min":0,"x_max":0,"o":"m 556 468 b 427 610 556 559 509 610 b 258 404 315 610 258 543 l 258 0 l 114 0 l 114 1017 l 258 1017 l 258 589 l 271 589 b 461 732 279 685 340 732 b 700 468 613 732 700 636 l 700 0 l 556 0 "},"ӏ":{"ha":814,"x_min":0,"x_max":0,"o":"m 109 118 l 382 118 l 382 601 l 149 601 l 149 719 l 526 719 l 526 118 l 747 118 l 747 0 l 109 0 "},"ә":{"ha":814,"x_min":0,"x_max":0,"o":"m 397 -14 b 92 331 203 -14 92 107 b 96 423 92 365 94 395 l 582 423 b 321 606 557 543 466 606 b 145 581 262 606 205 597 l 127 700 b 338 732 213 728 283 732 b 722 358 583 732 722 600 b 397 -14 722 123 604 -14 m 222 313 b 396 113 222 184 288 113 b 587 313 507 113 576 185 "},"ӣ":{"ha":814,"x_min":0,"x_max":0,"o":"m 114 719 l 258 719 l 258 197 l 271 197 l 553 719 l 700 719 l 700 0 l 556 0 l 556 522 l 543 522 l 261 0 l 114 0 m 115 974 l 699 974 l 699 846 l 115 846 "},"ө":{"ha":814,"x_min":0,"x_max":0,"o":"m 407 -14 b 92 359 208 -14 92 122 b 407 732 92 597 208 732 b 722 359 606 732 722 597 b 407 -14 722 122 606 -14 m 407 115 b 570 304 500 115 557 183 l 244 304 b 407 115 257 183 314 115 m 570 414 b 407 604 557 536 500 604 b 244 414 314 604 257 536 "},"ӯ":{"ha":814,"x_min":0,"x_max":0,"o":"m 44 -197 l 157 -183 b 393 0 271 -170 342 -119 l 323 0 l 37 719 l 186 719 l 421 109 l 431 109 l 607 719 l 756 719 l 549 64 b 173 -312 467 -194 366 -290 l 51 -326 m 125 974 l 709 974 l 709 846 l 125 846 "},"Α":{"ha":814,"x_min":0,"x_max":0,"o":"m 309 963 l 505 963 l 783 0 l 641 0 l 578 235 l 236 235 l 173 0 l 31 0 m 543 363 l 413 846 l 401 846 l 271 363 "},"Β":{"ha":814,"x_min":0,"x_max":0,"o":"m 109 963 l 395 963 b 701 719 590 963 701 875 b 471 514 701 602 618 530 l 471 506 b 769 264 661 503 769 416 b 477 0 769 96 663 0 l 109 0 m 438 129 b 627 285 557 129 627 186 b 429 444 627 386 555 444 l 244 444 l 244 129 m 397 573 b 559 705 500 573 559 621 b 388 834 559 788 497 834 l 244 834 l 244 573 "},"Γ":{"ha":814,"x_min":0,"x_max":0,"o":"m 122 963 l 739 963 l 739 834 l 258 834 l 258 0 l 122 0 "},"Δ":{"ha":814,"x_min":0,"x_max":0,"o":"m 309 963 l 505 963 l 783 0 l 31 0 m 606 129 l 413 846 l 401 846 l 208 129 "},"Ε":{"ha":814,"x_min":0,"x_max":0,"o":"m 109 963 l 746 963 l 746 834 l 244 834 l 244 547 l 624 547 l 624 418 l 244 418 l 244 129 l 746 129 l 746 0 l 109 0 "},"Ζ":{"ha":814,"x_min":0,"x_max":0,"o":"m 102 129 l 552 834 l 102 834 l 102 963 l 712 963 l 712 834 l 258 129 l 726 129 l 726 0 l 102 0 "},"Η":{"ha":814,"x_min":0,"x_max":0,"o":"m 583 415 l 231 415 l 231 0 l 95 0 l 95 963 l 231 963 l 231 544 l 583 544 l 583 963 l 719 963 l 719 0 l 583 0 "},"Θ":{"ha":814,"x_min":0,"x_max":0,"o":"m 407 -14 b 52 475 171 -14 52 148 b 407 977 52 810 171 977 b 762 475 643 977 762 810 b 407 -14 762 148 643 -14 m 407 111 b 618 418 537 111 608 213 l 195 418 b 407 111 206 213 277 111 m 618 545 b 407 852 605 750 535 852 b 196 545 279 852 209 750 "},"Ι":{"ha":814,"x_min":0,"x_max":0,"o":"m 114 129 l 338 129 l 338 834 l 114 834 l 114 963 l 700 963 l 700 834 l 474 834 l 474 129 l 700 129 l 700 0 l 114 0 "},"Κ":{"ha":814,"x_min":0,"x_max":0,"o":"m 102 963 l 237 963 l 237 442 b 602 963 489 465 602 710 l 742 963 b 548 452 742 764 673 576 l 788 0 l 624 0 l 433 367 b 237 309 375 336 310 315 l 237 0 l 102 0 "},"Λ":{"ha":814,"x_min":0,"x_max":0,"o":"m 309 963 l 505 963 l 783 0 l 634 0 l 413 846 l 401 846 l 180 0 l 31 0 "},"Μ":{"ha":814,"x_min":0,"x_max":0,"o":"m 87 963 l 292 963 l 401 549 l 412 549 l 522 963 l 727 963 l 727 0 l 597 0 l 597 792 l 579 792 l 469 393 l 345 393 l 235 792 l 217 792 l 217 0 l 87 0 "},"Ν":{"ha":814,"x_min":0,"x_max":0,"o":"m 244 732 l 231 732 l 231 0 l 100 0 l 100 963 l 271 963 l 570 231 l 583 231 l 583 963 l 713 963 l 713 0 l 543 0 "},"Ξ":{"ha":814,"x_min":0,"x_max":0,"o":"m 68 129 l 746 129 l 746 0 l 68 0 m 68 963 l 746 963 l 746 834 l 68 834 m 129 547 l 685 547 l 685 418 l 129 418 "},"Ο":{"ha":814,"x_min":0,"x_max":0,"o":"m 407 -14 b 52 475 171 -14 52 148 b 407 977 52 810 171 977 b 762 475 643 977 762 810 b 407 -14 762 148 643 -14 m 407 111 b 620 475 549 111 620 232 b 407 852 620 727 549 852 b 194 475 265 852 194 727 b 407 111 194 232 265 111 "},"Π":{"ha":814,"x_min":0,"x_max":0,"o":"m 583 834 l 231 834 l 231 0 l 95 0 l 95 963 l 719 963 l 719 0 l 583 0 "},"Ρ":{"ha":814,"x_min":0,"x_max":0,"o":"m 109 963 l 392 963 b 760 644 633 963 760 854 b 392 298 760 417 633 298 l 244 298 l 244 0 l 109 0 m 392 427 b 617 644 540 427 617 502 b 392 834 617 769 540 834 l 244 834 l 244 427 "},"Σ":{"ha":814,"x_min":0,"x_max":0,"o":"m 102 119 l 401 484 l 102 834 l 102 963 l 712 963 l 712 834 l 286 834 l 574 484 l 270 119 l 726 119 l 726 0 l 102 0 "},"Τ":{"ha":814,"x_min":0,"x_max":0,"o":"m 339 834 l 54 834 l 54 963 l 760 963 l 760 834 l 475 834 l 475 0 l 339 0 "},"Υ":{"ha":814,"x_min":0,"x_max":0,"o":"m 339 341 l 17 963 l 166 963 l 401 481 l 413 481 l 648 963 l 797 963 l 475 341 l 475 0 l 339 0 "},"Φ":{"ha":814,"x_min":0,"x_max":0,"o":"m 349 98 b 45 481 146 117 45 244 b 349 879 45 726 146 859 l 349 990 l 464 990 l 464 879 b 769 481 667 859 769 727 b 464 98 769 243 667 117 l 464 -14 l 349 -14 m 457 210 b 633 481 575 229 633 319 b 457 766 633 652 575 747 m 355 766 b 180 481 239 746 180 652 b 355 210 180 320 239 230 "},"Χ":{"ha":814,"x_min":0,"x_max":0,"o":"m 407 361 l 200 0 l 44 0 l 339 477 l 44 963 l 200 963 l 407 594 l 614 963 l 770 963 l 475 477 l 770 0 l 614 0 "},"Ψ":{"ha":814,"x_min":0,"x_max":0,"o":"m 338 963 l 474 963 l 474 342 b 627 576 576 364 627 442 l 627 963 l 762 963 l 762 576 b 474 214 762 355 665 235 l 474 0 l 338 0 l 338 214 b 52 576 148 236 52 356 l 52 963 l 187 963 l 187 576 b 338 342 187 443 237 365 "},"Ω":{"ha":814,"x_min":0,"x_max":0,"o":"m 71 126 l 237 126 l 237 138 b 52 515 113 164 52 290 b 407 977 52 824 170 977 b 762 515 644 977 762 824 b 593 140 762 286 706 161 l 593 126 l 743 126 l 743 0 l 471 0 l 471 126 b 620 515 570 162 620 292 b 407 852 620 741 549 852 b 194 515 264 852 194 741 b 359 126 194 296 249 166 l 359 0 l 71 0 "},"Ά":{"ha":814,"x_min":0,"x_max":0,"o":"m 376 963 l 573 963 l 783 0 l 641 0 l 597 235 l 353 235 l 309 0 l 166 0 m 572 363 l 481 846 l 469 846 l 377 363 m 60 963 l 204 963 l 130 705 l -1 705 "},"Έ":{"ha":814,"x_min":0,"x_max":0,"o":"m 244 963 l 746 963 l 746 834 l 380 834 l 380 547 l 624 547 l 624 418 l 380 418 l 380 129 l 746 129 l 746 0 l 244 0 m 60 963 l 204 963 l 130 705 l -1 705 "},"Ή":{"ha":814,"x_min":0,"x_max":0,"o":"m 583 415 l 366 415 l 366 0 l 231 0 l 231 963 l 366 963 l 366 544 l 583 544 l 583 963 l 719 963 l 719 0 l 583 0 m 60 963 l 204 963 l 130 705 l -1 705 "},"Ί":{"ha":814,"x_min":0,"x_max":0,"o":"m 250 129 l 406 129 l 406 834 l 250 834 l 250 963 l 700 963 l 700 834 l 542 834 l 542 129 l 700 129 l 700 0 l 250 0 m 60 963 l 204 963 l 130 705 l -1 705 "},"Ό":{"ha":814,"x_min":0,"x_max":0,"o":"m 475 -14 b 187 475 283 -14 187 148 b 475 977 187 810 283 977 b 762 475 666 977 762 810 b 475 -14 762 148 666 -14 m 475 111 b 620 475 571 111 620 232 b 475 852 620 727 571 852 b 330 475 378 852 330 727 b 475 111 330 232 378 111 m 60 963 l 204 963 l 130 705 l -1 705 "},"Ύ":{"ha":814,"x_min":0,"x_max":0,"o":"m 443 348 l 228 963 l 377 963 l 503 481 l 515 481 l 648 963 l 798 963 l 578 347 l 578 0 l 443 0 m 60 963 l 204 963 l 130 705 l -1 705 "},"Ώ":{"ha":814,"x_min":0,"x_max":0,"o":"m 206 126 l 366 126 l 366 138 b 187 515 247 164 187 290 b 475 977 187 824 283 977 b 762 515 667 977 762 824 b 600 140 762 286 708 161 l 600 126 l 743 126 l 743 0 l 511 0 l 511 126 b 620 515 584 162 620 292 b 475 852 620 741 572 852 b 330 515 378 852 330 741 b 454 126 330 296 371 166 l 454 0 l 206 0 m 60 963 l 204 963 l 130 705 l -1 705 "},"Ϊ":{"ha":814,"x_min":0,"x_max":0,"o":"m 114 129 l 338 129 l 338 834 l 114 834 l 114 963 l 700 963 l 700 834 l 474 834 l 474 129 l 700 129 l 700 0 l 114 0 m 266 1072 b 175 1162 216 1072 175 1112 b 266 1253 175 1213 216 1253 b 357 1162 316 1253 357 1213 b 266 1072 357 1112 316 1072 m 548 1072 b 457 1162 498 1072 457 1112 b 548 1253 457 1213 498 1253 b 639 1162 598 1253 639 1213 b 548 1072 639 1112 598 1072 "},"Ϋ":{"ha":814,"x_min":0,"x_max":0,"o":"m 339 341 l 17 963 l 166 963 l 401 481 l 413 481 l 648 963 l 797 963 l 475 341 l 475 0 l 339 0 m 266 1072 b 175 1162 216 1072 175 1112 b 266 1253 175 1213 216 1253 b 357 1162 316 1253 357 1213 b 266 1072 357 1112 316 1072 m 548 1072 b 457 1162 498 1072 457 1112 b 548 1253 457 1213 498 1253 b 639 1162 598 1253 639 1213 b 548 1072 639 1112 598 1072 "},"Ϗ":{"ha":814,"x_min":0,"x_max":0,"o":"m 102 963 l 237 963 l 237 442 b 602 963 489 465 602 710 l 742 963 b 554 458 742 768 676 582 l 750 158 b 788 32 779 113 788 84 l 788 -268 l 652 -268 l 652 18 b 614 117 652 51 644 74 l 444 373 b 237 309 383 338 315 315 l 237 0 l 102 0 "},"α":{"ha":814,"x_min":0,"x_max":0,"o":"m 338 -14 b 52 353 156 -14 52 117 b 346 732 52 594 159 732 b 529 589 457 732 517 685 l 543 589 l 543 719 l 686 719 l 686 130 l 785 115 l 785 0 l 555 -7 l 545 130 l 529 130 b 338 -14 519 35 446 -14 m 543 407 b 380 610 543 535 482 610 b 194 353 261 610 194 517 b 373 109 194 191 255 109 b 543 312 479 109 543 184 "}}}
